<svg xmlns="http://www.w3.org/2000/svg" width="641.196" height="886.646" viewBox="-20 10.600000000000001 641.196 886.646">
<style>
    .page { fill: #fff; stroke: #ccc; }
    .margin { fill: none; stroke: #aaa; stroke-dasharray: 4 2; }
    .column { fill: none; stroke: #ddd; }
    .grid { stroke: #eee; stroke-width: 0.5; }

    .text-frame { fill: rgba(0,0,255,0.08); stroke: #00f; }
    .image-frame { fill: rgba(255,165,0,0.15); stroke: #f90; }
    .decor-frame { fill: rgba(0, 180, 100, 0.12); stroke: #00a060; stroke-width: 1; stroke-dasharray: 5 3; }

    .frame-id { 
        font-size: 7px; 
        fill: #666;
    }
    
    .thread {
        fill: none;
        stroke: #888;
        stroke-dasharray: 3 3;
        stroke-width: 1;
    }

    .label {
        font-size: 9px;
        font-family: monospace;
    }

    .snippet {
        font-size: 12px;
        font-family: Inter, system-ui, -apple-system, Segoe UI, Roboto, Arial, sans-serif;
        fill: #111;
    }

    .label-bg {
        fill: #000;
        opacity: 0.75;
    }

    .label-inv {
        fill: #fff;
        text-anchor: end;
    }

    .z-index { 
        font-size: 7px; 
        fill: #333;
        text-anchor: end;
        paint-order: stroke fill;
        stroke: white;
        stroke-width: 2;
        stroke-linejoin: round;
    }

    .distance {
        stroke: red;
        stroke-width: 2.5;
        fill: none;
    }

    .edge-ghost {
        stroke: rgba(200, 0, 0, 0.4);
        stroke-width: 1.5;
        stroke-dasharray: 6 3;
        fill: none;
    }

    .arrowhead {
        fill: red;
    }
    
    .fender-zone {
        fill: url(#fender-hatch);
        stroke: none;
    }

    .fender-edge {
        stroke: #0891b2;
        stroke-width: 2;
        fill: none;
    }
</style>
<defs>
    <pattern id="baseline-grid" patternUnits="userSpaceOnUse" width="100%" height="10.2">
        <line x1="0" y1="0" x2="100%" y2="0" class="grid" />
    </pattern>
    <pattern id="checkerboard" patternUnits="userSpaceOnUse" width="20" height="20">
        <rect width="20" height="20" fill="#e8e8e8" stroke="none"/>
        <rect width="10" height="10" fill="#ffffff" stroke="none"/>
        <rect x="10" y="10" width="10" height="10" fill="#ffffff" stroke="none"/>
    </pattern>
    <pattern id="fender-hatch" patternUnits="userSpaceOnUse" width="8" height="8" patternTransform="rotate(45)">
        <line x1="0" y1="0" x2="0" y2="8" stroke="#0891b2" stroke-width="1.2" stroke-opacity="0.5" />
    </pattern>
</defs>


<g id="article">
<line class="thread" x1="141.732" y1="877.2" x2="153.071" y2="571.2" />
<line class="thread" x1="294.803" y1="877.2" x2="306.142" y2="571.2" />
<line class="thread" x1="447.874" y1="877.2" x2="459.338" y2="571.2" />
<rect class="text-frame" x="0" y="183.6" width="141.732" height="693.6" />
<rect class="label-bg" x="103.732" y="863.2" width="38" height="14" />
<text class="z-index" x="99.732" y="873.2" text-anchor="end">z:301</text>
<text class="label label-inv" x="137.732" y="873.2">TEKST</text>
<rect class="text-frame" x="153.071" y="571.2" width="141.732" height="306" />
<rect class="label-bg" x="256.803" y="863.2" width="38" height="14" />
<text class="z-index" x="252.803" y="873.2" text-anchor="end">z:302</text>
<text class="label label-inv" x="290.803" y="873.2">TEKST</text>
<rect class="text-frame" x="0" y="71.4" width="600.945" height="81.6" />
<rect class="label-bg" x="574.945" y="139" width="26" height="14" />
<text class="z-index" x="570.945" y="149" text-anchor="end">z:303</text>
<text class="label label-inv" x="596.945" y="149">KOP</text>
<rect class="text-frame" x="0" y="163.2" width="141.732" height="16.885" />
<rect class="label-bg" x="97.732" y="166.08499999999998" width="44" height="14" />
<text class="z-index" x="93.732" y="176.08499999999998" text-anchor="end">z:304</text>
<text class="label label-inv" x="137.732" y="176.08499999999998">PLAATS</text>
<rect class="text-frame" x="153.322" y="673.349" width="141.732" height="56.693" />
<rect class="label-bg" x="257.054" y="716.042" width="38" height="14" />
<text class="z-index" x="253.05399999999997" y="726.042" text-anchor="end">z:305</text>
<text class="label label-inv" x="291.054" y="726.042">QUOTE</text>
<rect class="text-frame" x="306.142" y="571.2" width="141.732" height="306" />
<rect class="label-bg" x="409.874" y="863.2" width="38" height="14" />
<text class="z-index" x="405.874" y="873.2" text-anchor="end">z:306</text>
<text class="label label-inv" x="443.874" y="873.2">TEKST</text>
<rect class="text-frame" x="459.338" y="571.2" width="141.732" height="306.046" />
<rect class="label-bg" x="563.07" y="863.2460000000001" width="38" height="14" />
<text class="z-index" x="559.07" y="873.2460000000001" text-anchor="end">z:307</text>
<text class="label label-inv" x="597.07" y="873.2460000000001">TEKST</text>
<rect class="text-frame" x="0" y="183.6" width="141.732" height="139.647" />
<rect class="label-bg" x="97.732" y="309.24699999999996" width="44" height="14" />
<text class="z-index" x="93.732" y="319.24699999999996" text-anchor="end">z:308</text>
<text class="label label-inv" x="137.732" y="319.24699999999996">AUTEUR</text>
<rect class="text-frame" x="0" y="183.6" width="141.732" height="122.976" />
<rect class="label-bg" x="103.732" y="292.576" width="38" height="14" />
<text class="z-index" x="99.732" y="302.576" text-anchor="end">z:309</text>
<text class="label label-inv" x="137.732" y="302.576">INTRO</text>
<rect class="image-frame" x="153.071" y="163.006" width="448.125" height="378.609" />
<rect class="label-bg" x="563.196" y="527.615" width="38" height="14" />
<text class="z-index" x="559.196" y="537.615" text-anchor="end">z:310</text>
<text class="label label-inv" x="597.196" y="537.615">image</text>
<rect class="text-frame" x="0" y="30.6" width="601.196" height="30.6" />
<rect class="label-bg" x="545.196" y="47.2" width="56" height="14" />
<text class="z-index" x="541.196" y="57.2" text-anchor="end">z:311</text>
<text class="label label-inv" x="597.196" y="57.2">BOVENKOP</text>
<rect class="text-frame" x="153.071" y="543.9010000000001" width="447.874" height="6.899" />
<rect class="label-bg" x="532.945" y="536.8000000000001" width="68" height="14" />
<text class="z-index" x="528.945" y="546.8000000000001" text-anchor="end">z:312</text>
<text class="label label-inv" x="596.945" y="546.8000000000001">BIJSCHRIFT</text>
</g>
</svg>