<svg xmlns="http://www.w3.org/2000/svg" width="640.945" height="1101.512" viewBox="16.85 60.849999999999994 640.945 1101.512">
<style>
    .page { fill: #fff; stroke: #ccc; }
    .margin { fill: none; stroke: #aaa; stroke-dasharray: 4 2; }
    .column { fill: none; stroke: #ddd; }
    .grid { stroke: #eee; stroke-width: 0.5; }

    .text-frame { fill: rgba(0,0,255,0.08); stroke: #00f; }
    .image-frame { fill: rgba(255,165,0,0.15); stroke: #f90; }

    .frame-id { 
        font-size: 7px; 
        fill: #666;
    }
    
    .thread {
        fill: none;
        stroke: #888;
        stroke-dasharray: 3 3;
        stroke-width: 1;
    }

    .label {
        font-size: 9px;
        font-family: monospace;
    }

    .snippet {
        font-size: 12px;
        font-family: Inter, system-ui, -apple-system, Segoe UI, Roboto, Arial, sans-serif;
        fill: #111;
    }

    .label-bg {
        fill: #000;
        opacity: 0.75;
    }

    .label-inv {
        fill: #fff;
        text-anchor: end;
    }

    .z-index { 
        font-size: 7px; 
        fill: #333;
        text-anchor: end;
        paint-order: stroke fill;
        stroke: white;
        stroke-width: 2;
        stroke-linejoin: round;
    }

    .distance {
        stroke: red;
        stroke-width: 2.5;
        fill: none;
    }

    .edge-ghost {
        stroke: rgba(200, 0, 0, 0.4);
        stroke-width: 1.5;
        stroke-dasharray: 6 3;
        fill: none;
    }

    .arrowhead {
        fill: red;
    }
    
    .fender-zone {
        fill: url(#fender-hatch);
        stroke: none;
    }

    .fender-edge {
        stroke: #0891b2;
        stroke-width: 2;
        fill: none;
    }
</style>
<defs>
    <pattern id="baseline-grid" patternUnits="userSpaceOnUse" width="100%" height="11">
        <line x1="0" y1="0" x2="100%" y2="0" class="grid" />
    </pattern>
    <pattern id="checkerboard" patternUnits="userSpaceOnUse" width="20" height="20">
        <rect width="20" height="20" fill="#e8e8e8" stroke="none"/>
        <rect width="10" height="10" fill="#ffffff" stroke="none"/>
        <rect x="10" y="10" width="10" height="10" fill="#ffffff" stroke="none"/>
    </pattern>
    <pattern id="fender-hatch" patternUnits="userSpaceOnUse" width="8" height="8" patternTransform="rotate(45)">
        <line x1="0" y1="0" x2="0" y2="8" stroke="#0891b2" stroke-width="1.2" stroke-opacity="0.5" />
    </pattern>
</defs>


<g id="article">

<rect class="text-frame" x="36.85" y="657.2420000000001" width="589.606" height="485.12" />
<rect class="label-bg" x="588.456" y="1128.362" width="38" height="14" />
<text class="z-index" x="584.456" y="1138.362" text-anchor="end">z:650</text>
<text class="label label-inv" x="622.456" y="1138.362">TEKST</text>
<rect class="text-frame" x="36.85" y="102.85" width="589.606" height="22" />
<rect class="label-bg" x="570.456" y="110.85" width="56" height="14" />
<text class="z-index" x="566.456" y="120.85" text-anchor="end">z:651</text>
<text class="label label-inv" x="622.456" y="120.85">BOVENKOP</text>
<rect class="text-frame" x="36.85" y="657.2420000000001" width="289.134" height="89.595" />
<rect class="label-bg" x="287.98400000000004" y="732.8370000000001" width="38" height="14" />
<text class="z-index" x="283.98400000000004" y="742.8370000000001" text-anchor="end">z:652</text>
<text class="label label-inv" x="321.98400000000004" y="742.8370000000001">INTRO</text>
<rect class="text-frame" x="36.85" y="487.85" width="589.606" height="22" />
<rect class="label-bg" x="558.456" y="495.85" width="68" height="14" />
<text class="z-index" x="554.456" y="505.85" text-anchor="end">z:653</text>
<text class="label label-inv" x="622.456" y="505.85">BIJSCHRIFT</text>
<rect class="image-frame" x="36.85" y="135.522" width="589.606" height="347.328" />
<rect class="label-bg" x="588.456" y="468.84999999999997" width="38" height="14" />
<text class="z-index" x="584.456" y="478.84999999999997" text-anchor="end">z:654</text>
<text class="label label-inv" x="622.456" y="478.84999999999997">image</text>
<rect class="text-frame" x="337.32300000000004" y="1026.819" width="138.898" height="115.542" />
<rect class="label-bg" x="438.221" y="1128.3609999999999" width="38" height="14" />
<text class="z-index" x="434.221" y="1138.3609999999999" text-anchor="end">z:655</text>
<text class="label label-inv" x="472.221" y="1138.3609999999999">QUOTE</text>
<rect class="text-frame" x="36.85" y="520.85" width="589.606" height="132" />
<rect class="label-bg" x="600.456" y="638.85" width="26" height="14" />
<text class="z-index" x="596.456" y="648.85" text-anchor="end">z:656</text>
<text class="label label-inv" x="622.456" y="648.85">KOP</text>
<rect class="text-frame" x="36.85" y="751.2520000000001" width="138.898" height="22.398" />
<rect class="label-bg" x="131.748" y="759.6500000000001" width="44" height="14" />
<text class="z-index" x="127.74799999999999" y="769.6500000000001" text-anchor="end">z:657</text>
<text class="label label-inv" x="171.748" y="769.6500000000001">AUTEUR</text>
<rect class="text-frame" x="36.85" y="769.8190000000001" width="138.898" height="15.031" />
<rect class="label-bg" x="131.748" y="770.85" width="44" height="14" />
<text class="z-index" x="127.74799999999999" y="780.85" text-anchor="end">z:658</text>
<text class="label label-inv" x="171.748" y="780.85">PLAATS</text>
<rect class="text-frame" x="337.32300000000004" y="839.85" width="138.898" height="22" />
<rect class="label-bg" x="408.221" y="847.85" width="68" height="14" />
<text class="z-index" x="404.221" y="857.85" text-anchor="end">z:659</text>
<text class="label label-inv" x="472.221" y="857.85">BIJSCHRIFT</text>
<rect class="image-frame" x="337.32300000000004" y="660.934" width="289.134" height="173.988" />
<rect class="label-bg" x="588.4570000000001" y="820.922" width="38" height="14" />
<text class="z-index" x="584.4570000000001" y="830.922" text-anchor="end">z:660</text>
<text class="label label-inv" x="622.4570000000001" y="830.922">image</text>
</g>
</svg>