<svg xmlns="http://www.w3.org/2000/svg" width="794.051" height="1098.11" viewBox="16.85 60.849999999999994 794.051 1098.11">
<style>
    .page { fill: #fff; stroke: #ccc; }
    .margin { fill: none; stroke: #aaa; stroke-dasharray: 4 2; }
    .column { fill: none; stroke: #ddd; }
    .grid { stroke: #eee; stroke-width: 0.5; }

    .text-frame { fill: rgba(0,0,255,0.08); stroke: #00f; }
    .image-frame { fill: rgba(255,165,0,0.15); stroke: #f90; }

    .frame-id { 
        font-size: 7px; 
        fill: #666;
    }
    
    .thread {
        fill: none;
        stroke: #888;
        stroke-dasharray: 3 3;
        stroke-width: 1;
    }

    .label {
        font-size: 9px;
        font-family: monospace;
    }

    .snippet {
        font-size: 12px;
        font-family: Inter, system-ui, -apple-system, Segoe UI, Roboto, Arial, sans-serif;
        fill: #111;
    }

    .label-bg {
        fill: #000;
        opacity: 0.75;
    }

    .label-inv {
        fill: #fff;
        text-anchor: end;
    }

    .z-index { 
        font-size: 7px; 
        fill: #333;
        text-anchor: end;
        paint-order: stroke fill;
        stroke: white;
        stroke-width: 2;
        stroke-linejoin: round;
    }

    .distance {
        stroke: red;
        stroke-width: 2.5;
        fill: none;
    }

    .edge-ghost {
        stroke: rgba(200, 0, 0, 0.4);
        stroke-width: 1.5;
        stroke-dasharray: 6 3;
        fill: none;
    }

    .arrowhead {
        fill: red;
    }
    
    .fender-zone {
        fill: url(#fender-hatch);
        stroke: none;
    }

    .fender-edge {
        stroke: #0891b2;
        stroke-width: 2;
        fill: none;
    }
</style>
<defs>
    <pattern id="baseline-grid" patternUnits="userSpaceOnUse" width="100%" height="11">
        <line x1="0" y1="0" x2="100%" y2="0" class="grid" />
    </pattern>
    <pattern id="checkerboard" patternUnits="userSpaceOnUse" width="20" height="20">
        <rect width="20" height="20" fill="#e8e8e8" stroke="none"/>
        <rect width="10" height="10" fill="#ffffff" stroke="none"/>
        <rect x="10" y="10" width="10" height="10" fill="#ffffff" stroke="none"/>
    </pattern>
    <pattern id="fender-hatch" patternUnits="userSpaceOnUse" width="8" height="8" patternTransform="rotate(45)">
        <line x1="0" y1="0" x2="0" y2="8" stroke="#0891b2" stroke-width="1.2" stroke-opacity="0.5" />
    </pattern>
</defs>


<g id="article">
<line class="thread" x1="517.525" y1="1138.961" x2="638.2180000000001" y2="476.85" />
<rect class="text-frame" x="36.868" y="476.85" width="480.657" height="662.111" />
<rect class="label-bg" x="479.525" y="1124.961" width="38" height="14" />
<text class="z-index" x="475.525" y="1134.961" text-anchor="end">z:386</text>
<text class="label label-inv" x="513.525" y="1134.961">TEKST</text>
<rect class="text-frame" x="36.886" y="135.85" width="754.016" height="121" />
<rect class="label-bg" x="764.9019999999999" y="242.85000000000002" width="26" height="14" />
<text class="z-index" x="760.9019999999999" y="252.85000000000002" text-anchor="end">z:392</text>
<text class="label label-inv" x="786.9019999999999" y="252.85000000000002">KOP</text>
<rect class="text-frame" x="36.85" y="102.85" width="754.051" height="22" />
<rect class="label-bg" x="734.9010000000001" y="110.85" width="56" height="14" />
<text class="z-index" x="730.9010000000001" y="120.85" text-anchor="end">z:393</text>
<text class="label label-inv" x="786.9010000000001" y="120.85">BOVENKOP</text>
<rect class="text-frame" x="528.864" y="696.85" width="97.998" height="132" />
<rect class="label-bg" x="558.8620000000001" y="814.85" width="68" height="14" />
<text class="z-index" x="554.8620000000001" y="824.85" text-anchor="end">z:394</text>
<text class="label label-inv" x="622.8620000000001" y="824.85">BIJSCHRIFT</text>
<rect class="text-frame" x="638.2180000000001" y="476.85" width="152.666" height="662.111" />
<rect class="label-bg" x="752.884" y="1124.961" width="38" height="14" />
<text class="z-index" x="748.884" y="1134.961" text-anchor="end">z:395</text>
<text class="label label-inv" x="786.884" y="1134.961">TEKST</text>
<rect class="text-frame" x="532.931" y="971.85" width="93.931" height="167.111" />
<rect class="label-bg" x="588.8620000000001" y="1124.961" width="38" height="14" />
<text class="z-index" x="584.8620000000001" y="1134.961" text-anchor="end">z:396</text>
<text class="label label-inv" x="622.8620000000001" y="1134.961">QUOTE</text>
<rect class="text-frame" x="37.018" y="1114.85" width="317.33" height="24.11" />
<rect class="label-bg" x="286.34799999999996" y="1124.9599999999998" width="68" height="14" />
<text class="z-index" x="282.34799999999996" y="1134.9599999999998" text-anchor="end">z:397</text>
<text class="label label-inv" x="350.34799999999996" y="1134.9599999999998">BIJSCHRIFT</text>
<rect class="image-frame" x="37.018" y="894.85" width="317.33" height="216" />
<rect class="label-bg" x="316.34799999999996" y="1096.85" width="38" height="14" />
<text class="z-index" x="312.34799999999996" y="1106.85" text-anchor="end">z:398</text>
<text class="label label-inv" x="350.34799999999996" y="1106.85">image</text>
<rect class="image-frame" x="201.278" y="271.15" width="589.606" height="420.7" />
<rect class="label-bg" x="752.884" y="677.8499999999999" width="38" height="14" />
<text class="z-index" x="748.884" y="687.8499999999999" text-anchor="end">z:399</text>
<text class="label label-inv" x="786.884" y="687.8499999999999">image</text>
<rect class="text-frame" x="37.42" y="473.879" width="152.097" height="27.904" />
<rect class="label-bg" x="145.517" y="487.783" width="44" height="14" />
<text class="z-index" x="141.517" y="497.783" text-anchor="end">z:400</text>
<text class="label label-inv" x="185.517" y="497.783">PLAATS</text>
<rect class="text-frame" x="37.255" y="454.879" width="152.261" height="40.208" />
<rect class="label-bg" x="145.516" y="481.087" width="44" height="14" />
<text class="z-index" x="141.516" y="491.087" text-anchor="end">z:401</text>
<text class="label label-inv" x="185.516" y="491.087">AUTEUR</text>
<rect class="text-frame" x="37.255" y="267.85" width="152.261" height="194.725" />
<rect class="label-bg" x="151.516" y="448.57500000000005" width="38" height="14" />
<text class="z-index" x="147.516" y="458.57500000000005" text-anchor="end">z:402</text>
<text class="label label-inv" x="185.516" y="458.57500000000005">INTRO</text>
</g>
</svg>