<svg xmlns="http://www.w3.org/2000/svg" width="488.423" height="1099.827" viewBox="827.559 60.849999999999994 488.423 1099.827">
<style>
    .page { fill: #fff; stroke: #ccc; }
    .margin { fill: none; stroke: #aaa; stroke-dasharray: 4 2; }
    .column { fill: none; stroke: #ddd; }
    .grid { stroke: #eee; stroke-width: 0.5; }

    .text-frame { fill: rgba(0,0,255,0.08); stroke: #00f; }
    .image-frame { fill: rgba(255,165,0,0.15); stroke: #f90; }

    .frame-id { 
        font-size: 7px; 
        fill: #666;
    }
    
    .thread {
        fill: none;
        stroke: #888;
        stroke-dasharray: 3 3;
        stroke-width: 1;
    }

    .label {
        font-size: 9px;
        font-family: monospace;
    }

    .snippet {
        font-size: 12px;
        font-family: Inter, system-ui, -apple-system, Segoe UI, Roboto, Arial, sans-serif;
        fill: #111;
    }

    .label-bg {
        fill: #000;
        opacity: 0.75;
    }

    .label-inv {
        fill: #fff;
        text-anchor: end;
    }

    .z-index { 
        font-size: 7px; 
        fill: #333;
        text-anchor: end;
        paint-order: stroke fill;
        stroke: white;
        stroke-width: 2;
        stroke-linejoin: round;
    }

    .distance {
        stroke: red;
        stroke-width: 2.5;
        fill: none;
    }

    .edge-ghost {
        stroke: rgba(200, 0, 0, 0.4);
        stroke-width: 1.5;
        stroke-dasharray: 6 3;
        fill: none;
    }

    .arrowhead {
        fill: red;
    }
    
    .fender-zone {
        fill: url(#fender-hatch);
        stroke: none;
    }

    .fender-edge {
        stroke: #0891b2;
        stroke-width: 2;
        fill: none;
    }
</style>
<defs>
    <pattern id="baseline-grid" patternUnits="userSpaceOnUse" width="100%" height="11">
        <line x1="0" y1="0" x2="100%" y2="0" class="grid" />
    </pattern>
    <pattern id="checkerboard" patternUnits="userSpaceOnUse" width="20" height="20">
        <rect width="20" height="20" fill="#e8e8e8" stroke="none"/>
        <rect width="10" height="10" fill="#ffffff" stroke="none"/>
        <rect x="10" y="10" width="10" height="10" fill="#ffffff" stroke="none"/>
    </pattern>
    <pattern id="fender-hatch" patternUnits="userSpaceOnUse" width="8" height="8" patternTransform="rotate(45)">
        <line x1="0" y1="0" x2="0" y2="8" stroke="#0891b2" stroke-width="1.2" stroke-opacity="0.5" />
    </pattern>
</defs>


<g id="article">

<rect class="text-frame" x="858.85" y="102.85" width="436.535" height="15.821" />
<rect class="label-bg" x="1239.385" y="104.67099999999999" width="56" height="14" />
<text class="z-index" x="1235.385" y="114.67099999999999" text-anchor="end">z:775</text>
<text class="label label-inv" x="1291.385" y="114.67099999999999">BOVENKOP</text>
<rect class="text-frame" x="858.898" y="699.783" width="436.535" height="440.894" />
<rect class="label-bg" x="1257.433" y="1126.6770000000001" width="38" height="14" />
<text class="z-index" x="1253.433" y="1136.6770000000001" text-anchor="end">z:776</text>
<text class="label label-inv" x="1291.433" y="1136.6770000000001">TEKST</text>
<rect class="text-frame" x="1007.9979999999999" y="1026.85" width="138.144" height="110.787" />
<rect class="label-bg" x="1108.1419999999998" y="1123.637" width="38" height="14" />
<text class="z-index" x="1104.1419999999998" y="1133.637" text-anchor="end">z:777</text>
<text class="label label-inv" x="1142.1419999999998" y="1133.637">QUOTE</text>
<rect class="text-frame" x="858.898" y="421.85" width="436.535" height="22" />
<rect class="label-bg" x="1227.433" y="429.85" width="68" height="14" />
<text class="z-index" x="1223.433" y="439.85" text-anchor="end">z:778</text>
<text class="label label-inv" x="1291.433" y="439.85">BIJSCHRIFT</text>
<rect class="image-frame" x="858.898" y="134.85" width="436.535" height="282.15" />
<rect class="label-bg" x="1257.433" y="403" width="38" height="14" />
<text class="z-index" x="1253.433" y="413" text-anchor="end">z:779</text>
<text class="label label-inv" x="1291.433" y="413">image</text>
<rect class="text-frame" x="858.898" y="454.85" width="436.535" height="110" />
<rect class="label-bg" x="1269.433" y="550.85" width="26" height="14" />
<text class="z-index" x="1265.433" y="560.85" text-anchor="end">z:780</text>
<text class="label label-inv" x="1291.433" y="560.85">KOP</text>
<rect class="text-frame" x="858.85" y="102.85" width="57.128" height="15.821" />
<rect class="label-bg" x="865.9780000000001" y="104.67099999999999" width="50" height="14" />
<text class="z-index" x="861.9780000000001" y="114.67099999999999" text-anchor="end">z:781</text>
<text class="label label-inv" x="911.9780000000001" y="114.67099999999999">SPECIAL</text>
<rect class="text-frame" x="1007.9979999999999" y="773.85" width="287.244" height="22.205" />
<rect class="label-bg" x="1227.242" y="782.0550000000001" width="68" height="14" />
<text class="z-index" x="1223.242" y="792.0550000000001" text-anchor="end">z:782</text>
<text class="label label-inv" x="1291.242" y="792.0550000000001">BIJSCHRIFT</text>
<rect class="image-frame" x="1008.7379999999999" y="568.952" width="287.244" height="200.515" />
<rect class="label-bg" x="1257.982" y="755.467" width="38" height="14" />
<text class="z-index" x="1253.982" y="765.467" text-anchor="end">z:783</text>
<text class="label label-inv" x="1291.982" y="765.467">image</text>
<rect class="text-frame" x="859.047" y="671.85" width="137.804" height="27.933" />
<rect class="label-bg" x="952.851" y="685.783" width="44" height="14" />
<text class="z-index" x="948.851" y="695.783" text-anchor="end">z:784</text>
<text class="label label-inv" x="992.851" y="695.783">PLAATS</text>
<rect class="text-frame" x="858.898" y="652.85" width="137.953" height="40.237" />
<rect class="label-bg" x="952.851" y="679.087" width="44" height="14" />
<text class="z-index" x="948.851" y="689.087" text-anchor="end">z:785</text>
<text class="label label-inv" x="992.851" y="689.087">AUTEUR</text>
<rect class="text-frame" x="858.898" y="564.85" width="137.878" height="102.865" />
<rect class="label-bg" x="958.7760000000001" y="653.715" width="38" height="14" />
<text class="z-index" x="954.7760000000001" y="663.715" text-anchor="end">z:786</text>
<text class="label label-inv" x="992.7760000000001" y="663.715">INTRO</text>
</g>
</svg>