<svg xmlns="http://www.w3.org/2000/svg" width="794.299" height="536.2909999999999" viewBox="827.559 60.849999999999994 794.299 536.2909999999999">
<style>
    .page { fill: #fff; stroke: #ccc; }
    .margin { fill: none; stroke: #aaa; stroke-dasharray: 4 2; }
    .column { fill: none; stroke: #ddd; }
    .grid { stroke: #eee; stroke-width: 0.5; }

    .text-frame { fill: rgba(0,0,255,0.08); stroke: #00f; }
    .image-frame { fill: rgba(255,165,0,0.15); stroke: #f90; }

    .frame-id { 
        font-size: 7px; 
        fill: #666;
    }
    
    .thread {
        fill: none;
        stroke: #888;
        stroke-dasharray: 3 3;
        stroke-width: 1;
    }

    .label {
        font-size: 9px;
        font-family: monospace;
    }

    .snippet {
        font-size: 12px;
        font-family: Inter, system-ui, -apple-system, Segoe UI, Roboto, Arial, sans-serif;
        fill: #111;
    }

    .label-bg {
        fill: #000;
        opacity: 0.75;
    }

    .label-inv {
        fill: #fff;
        text-anchor: end;
    }

    .z-index { 
        font-size: 7px; 
        fill: #333;
        text-anchor: end;
        paint-order: stroke fill;
        stroke: white;
        stroke-width: 2;
        stroke-linejoin: round;
    }

    .distance {
        stroke: red;
        stroke-width: 2.5;
        fill: none;
    }

    .edge-ghost {
        stroke: rgba(200, 0, 0, 0.4);
        stroke-width: 1.5;
        stroke-dasharray: 6 3;
        fill: none;
    }

    .arrowhead {
        fill: red;
    }
    
    .fender-zone {
        fill: url(#fender-hatch);
        stroke: none;
    }

    .fender-edge {
        stroke: #0891b2;
        stroke-width: 2;
        fill: none;
    }
</style>
<defs>
    <pattern id="baseline-grid" patternUnits="userSpaceOnUse" width="100%" height="11">
        <line x1="0" y1="0" x2="100%" y2="0" class="grid" />
    </pattern>
    <pattern id="checkerboard" patternUnits="userSpaceOnUse" width="20" height="20">
        <rect width="20" height="20" fill="#e8e8e8" stroke="none"/>
        <rect width="10" height="10" fill="#ffffff" stroke="none"/>
        <rect x="10" y="10" width="10" height="10" fill="#ffffff" stroke="none"/>
    </pattern>
    <pattern id="fender-hatch" patternUnits="userSpaceOnUse" width="8" height="8" patternTransform="rotate(45)">
        <line x1="0" y1="0" x2="0" y2="8" stroke="#0891b2" stroke-width="1.2" stroke-opacity="0.5" />
    </pattern>
</defs>


<g id="article">
<line class="thread" x1="1163.905" y1="577.1410000000001" x2="1175.568" y2="399.85" />
<line class="thread" x1="1328.234" y1="577.1410000000001" x2="1448.909" y2="190.85" />
<rect class="text-frame" x="847.559" y="267.85" width="316.346" height="309.291" />
<rect class="label-bg" x="1125.905" y="563.1410000000001" width="38" height="14" />
<text class="z-index" x="1121.905" y="573.1410000000001" text-anchor="end">z:190</text>
<text class="label label-inv" x="1159.905" y="573.1410000000001">TEKST</text>
<rect class="text-frame" x="1339.654" y="399.85" width="98.119" height="55" />
<rect class="label-bg" x="1369.773" y="440.85" width="68" height="14" />
<text class="z-index" x="1365.773" y="450.85" text-anchor="end">z:191</text>
<text class="label label-inv" x="1433.773" y="450.85">BIJSCHRIFT</text>
<rect class="image-frame" x="1175.568" y="194.74" width="262.002" height="200.11" />
<rect class="label-bg" x="1399.57" y="380.85" width="38" height="14" />
<text class="z-index" x="1395.57" y="390.85" text-anchor="end">z:192</text>
<text class="label label-inv" x="1433.57" y="390.85">image</text>
<rect class="text-frame" x="1339.5729999999999" y="465.85" width="97.998" height="111.291" />
<rect class="label-bg" x="1399.571" y="563.1410000000001" width="38" height="14" />
<text class="z-index" x="1395.571" y="573.1410000000001" text-anchor="end">z:193</text>
<text class="label label-inv" x="1433.571" y="573.1410000000001">QUOTE</text>
<rect class="text-frame" x="1448.909" y="190.85" width="152.666" height="386.291" />
<rect class="label-bg" x="1563.575" y="563.141" width="38" height="14" />
<text class="z-index" x="1559.575" y="573.141" text-anchor="end">z:198</text>
<text class="label label-inv" x="1597.575" y="573.141">TEKST</text>
<rect class="text-frame" x="1175.568" y="399.85" width="152.666" height="177.291" />
<rect class="label-bg" x="1290.234" y="563.1410000000001" width="38" height="14" />
<text class="z-index" x="1286.234" y="573.1410000000001" text-anchor="end">z:199</text>
<text class="label label-inv" x="1324.234" y="573.1410000000001">TEKST</text>
<rect class="text-frame" x="847.559" y="135.85" width="754.016" height="44" />
<rect class="label-bg" x="1575.5749999999998" y="165.85" width="26" height="14" />
<text class="z-index" x="1571.5749999999998" y="175.85" text-anchor="end">z:200</text>
<text class="label label-inv" x="1597.5749999999998" y="175.85">KOP</text>
<rect class="text-frame" x="847.843" y="102.85" width="754.016" height="15.821" />
<rect class="label-bg" x="1545.859" y="104.67099999999999" width="56" height="14" />
<text class="z-index" x="1541.859" y="114.67099999999999" text-anchor="end">z:201</text>
<text class="label label-inv" x="1597.859" y="114.67099999999999">BOVENKOP</text>
<rect class="text-frame" x="847.9929999999999" y="102.85" width="56.955" height="15.821" />
<rect class="label-bg" x="854.948" y="104.67099999999999" width="50" height="14" />
<text class="z-index" x="850.948" y="114.67099999999999" text-anchor="end">z:203</text>
<text class="label label-inv" x="900.948" y="114.67099999999999">SPECIAL</text>
<rect class="text-frame" x="847.712" y="287.97" width="141.579" height="15.813" />
<rect class="label-bg" x="945.2909999999999" y="289.783" width="44" height="14" />
<text class="z-index" x="941.2909999999999" y="299.783" text-anchor="end">z:204</text>
<text class="label label-inv" x="985.2909999999999" y="299.783">PLAATS</text>
<rect class="text-frame" x="847.559" y="267.85" width="141.732" height="29.237" />
<rect class="label-bg" x="945.2909999999999" y="283.08700000000005" width="44" height="14" />
<text class="z-index" x="941.2909999999999" y="293.08700000000005" text-anchor="end">z:205</text>
<text class="label label-inv" x="985.2909999999999" y="293.08700000000005">AUTEUR</text>
<rect class="text-frame" x="847.559" y="192.85" width="316.346" height="68.725" />
<rect class="label-bg" x="1125.905" y="247.575" width="38" height="14" />
<text class="z-index" x="1121.905" y="257.575" text-anchor="end">z:206</text>
<text class="label label-inv" x="1159.905" y="257.575">INTRO</text>
</g>
</svg>