<svg xmlns="http://www.w3.org/2000/svg" width="794.016" height="557.15" viewBox="16.85 60.849999999999994 794.016 557.15">
<style>
    .page { fill: #fff; stroke: #ccc; }
    .margin { fill: none; stroke: #aaa; stroke-dasharray: 4 2; }
    .column { fill: none; stroke: #ddd; }
    .grid { stroke: #eee; stroke-width: 0.5; }

    .text-frame { fill: rgba(0,0,255,0.08); stroke: #00f; }
    .image-frame { fill: rgba(255,165,0,0.15); stroke: #f90; }

    .frame-id { 
        font-size: 7px; 
        fill: #666;
    }
    
    .thread {
        fill: none;
        stroke: #888;
        stroke-dasharray: 3 3;
        stroke-width: 1;
    }

    .label {
        font-size: 9px;
        font-family: monospace;
    }

    .snippet {
        font-size: 12px;
        font-family: Inter, system-ui, -apple-system, Segoe UI, Roboto, Arial, sans-serif;
        fill: #111;
    }

    .label-bg {
        fill: #000;
        opacity: 0.75;
    }

    .label-inv {
        fill: #fff;
        text-anchor: end;
    }

    .z-index { 
        font-size: 7px; 
        fill: #333;
        text-anchor: end;
        paint-order: stroke fill;
        stroke: white;
        stroke-width: 2;
        stroke-linejoin: round;
    }

    .distance {
        stroke: red;
        stroke-width: 2.5;
        fill: none;
    }

    .edge-ghost {
        stroke: rgba(200, 0, 0, 0.4);
        stroke-width: 1.5;
        stroke-dasharray: 6 3;
        fill: none;
    }

    .arrowhead {
        fill: red;
    }
    
    .fender-zone {
        fill: url(#fender-hatch);
        stroke: none;
    }

    .fender-edge {
        stroke: #0891b2;
        stroke-width: 2;
        fill: none;
    }
</style>
<defs>
    <pattern id="baseline-grid" patternUnits="userSpaceOnUse" width="100%" height="11">
        <line x1="0" y1="0" x2="100%" y2="0" class="grid" />
    </pattern>
    <pattern id="checkerboard" patternUnits="userSpaceOnUse" width="20" height="20">
        <rect width="20" height="20" fill="#e8e8e8" stroke="none"/>
        <rect width="10" height="10" fill="#ffffff" stroke="none"/>
        <rect x="10" y="10" width="10" height="10" fill="#ffffff" stroke="none"/>
    </pattern>
    <pattern id="fender-hatch" patternUnits="userSpaceOnUse" width="8" height="8" patternTransform="rotate(45)">
        <line x1="0" y1="0" x2="0" y2="8" stroke="#0891b2" stroke-width="1.2" stroke-opacity="0.5" />
    </pattern>
</defs>


<g id="article">
<line class="thread" x1="325.98400000000004" y1="577.1410000000001" x2="487.559" y2="190.85" />
<rect class="text-frame" x="36.85" y="278.85" width="289.134" height="298.291" />
<rect class="label-bg" x="287.98400000000004" y="563.1410000000001" width="38" height="14" />
<text class="z-index" x="283.98400000000004" y="573.1410000000001" text-anchor="end">z:105</text>
<text class="label label-inv" x="321.98400000000004" y="573.1410000000001">TEKST</text>
<rect class="text-frame" x="36.85" y="135.85" width="589.606" height="44" />
<rect class="label-bg" x="600.456" y="165.85" width="26" height="14" />
<text class="z-index" x="596.456" y="175.85" text-anchor="end">z:106</text>
<text class="label label-inv" x="622.456" y="175.85">KOP</text>
<rect class="text-frame" x="36.85" y="102.85" width="589.323" height="15.821" />
<rect class="label-bg" x="570.173" y="104.67099999999999" width="56" height="14" />
<text class="z-index" x="566.173" y="114.67099999999999" text-anchor="end">z:110</text>
<text class="label label-inv" x="622.173" y="114.67099999999999">BOVENKOP</text>
<rect class="text-frame" x="36.85" y="102.85" width="56.934" height="15.821" />
<rect class="label-bg" x="43.78399999999999" y="104.67099999999999" width="50" height="14" />
<text class="z-index" x="39.78399999999999" y="114.67099999999999" text-anchor="end">z:112</text>
<text class="label label-inv" x="89.78399999999999" y="114.67099999999999">SPECIAL</text>
<rect class="text-frame" x="337.32300000000004" y="454.894" width="138.898" height="122.248" />
<rect class="label-bg" x="438.221" y="563.142" width="38" height="14" />
<text class="z-index" x="434.221" y="573.142" text-anchor="end">z:113</text>
<text class="label label-inv" x="472.221" y="573.142">QUOTE</text>
<rect class="image-frame" x="337.32300000000004" y="193.457" width="138.898" height="189.677" />
<rect class="label-bg" x="438.221" y="369.134" width="38" height="14" />
<text class="z-index" x="434.221" y="379.134" text-anchor="end">z:114</text>
<text class="label label-inv" x="472.221" y="379.134">image</text>
<rect class="text-frame" x="337.32300000000004" y="388.85" width="138.898" height="55" />
<rect class="label-bg" x="408.221" y="429.85" width="68" height="14" />
<text class="z-index" x="404.221" y="439.85" text-anchor="end">z:115</text>
<text class="label label-inv" x="472.221" y="439.85">BIJSCHRIFT</text>
<rect class="text-frame" x="487.559" y="190.85" width="138.898" height="386.291" />
<rect class="label-bg" x="588.457" y="563.141" width="38" height="14" />
<text class="z-index" x="584.457" y="573.141" text-anchor="end">z:116</text>
<text class="label label-inv" x="622.457" y="573.141">TEKST</text>
<rect class="text-frame" x="37.154" y="288.748" width="138.855" height="15.035" />
<rect class="label-bg" x="132.009" y="289.783" width="44" height="14" />
<text class="z-index" x="128.009" y="299.783" text-anchor="end">z:117</text>
<text class="label label-inv" x="172.009" y="299.783">PLAATS</text>
<rect class="text-frame" x="37.003" y="269.88800000000003" width="139.005" height="27.199" />
<rect class="label-bg" x="132.00799999999998" y="283.08700000000005" width="44" height="14" />
<text class="z-index" x="128.00799999999998" y="293.08700000000005" text-anchor="end">z:118</text>
<text class="label label-inv" x="172.00799999999998" y="293.08700000000005">AUTEUR</text>
<rect class="text-frame" x="37.003" y="193.457" width="288.981" height="68.725" />
<rect class="label-bg" x="287.984" y="248.18200000000002" width="38" height="14" />
<text class="z-index" x="283.984" y="258.182" text-anchor="end">z:119</text>
<text class="label label-inv" x="321.984" y="258.182">INTRO</text>
</g>
</svg>