<svg xmlns="http://www.w3.org/2000/svg" width="487.874" height="1096.85" viewBox="322.992 60.849999999999994 487.874 1096.85">
<style>
    .page { fill: #fff; stroke: #ccc; }
    .margin { fill: none; stroke: #aaa; stroke-dasharray: 4 2; }
    .column { fill: none; stroke: #ddd; }
    .grid { stroke: #eee; stroke-width: 0.5; }

    .text-frame { fill: rgba(0,0,255,0.08); stroke: #00f; }
    .image-frame { fill: rgba(255,165,0,0.15); stroke: #f90; }

    .frame-id { 
        font-size: 7px; 
        fill: #666;
    }
    
    .thread {
        fill: none;
        stroke: #888;
        stroke-dasharray: 3 3;
        stroke-width: 1;
    }

    .label {
        font-size: 9px;
        font-family: monospace;
    }

    .snippet {
        font-size: 12px;
        font-family: Inter, system-ui, -apple-system, Segoe UI, Roboto, Arial, sans-serif;
        fill: #111;
    }

    .label-bg {
        fill: #000;
        opacity: 0.75;
    }

    .label-inv {
        fill: #fff;
        text-anchor: end;
    }

    .z-index { 
        font-size: 7px; 
        fill: #333;
        text-anchor: end;
        paint-order: stroke fill;
        stroke: white;
        stroke-width: 2;
        stroke-linejoin: round;
    }

    .distance {
        stroke: red;
        stroke-width: 2.5;
        fill: none;
    }

    .edge-ghost {
        stroke: rgba(200, 0, 0, 0.4);
        stroke-width: 1.5;
        stroke-dasharray: 6 3;
        fill: none;
    }

    .arrowhead {
        fill: red;
    }
    
    .fender-zone {
        fill: url(#fender-hatch);
        stroke: none;
    }

    .fender-edge {
        stroke: #0891b2;
        stroke-width: 2;
        fill: none;
    }
</style>
<defs>
    <pattern id="baseline-grid" patternUnits="userSpaceOnUse" width="100%" height="11">
        <line x1="0" y1="0" x2="100%" y2="0" class="grid" />
    </pattern>
    <pattern id="checkerboard" patternUnits="userSpaceOnUse" width="20" height="20">
        <rect width="20" height="20" fill="#e8e8e8" stroke="none"/>
        <rect width="10" height="10" fill="#ffffff" stroke="none"/>
        <rect x="10" y="10" width="10" height="10" fill="#ffffff" stroke="none"/>
    </pattern>
    <pattern id="fender-hatch" patternUnits="userSpaceOnUse" width="8" height="8" patternTransform="rotate(45)">
        <line x1="0" y1="0" x2="0" y2="8" stroke="#0891b2" stroke-width="1.2" stroke-opacity="0.5" />
    </pattern>
</defs>


<g id="article">

<rect class="text-frame" x="354.331" y="707.817" width="436.535" height="429.884" />
<rect class="label-bg" x="752.866" y="1123.701" width="38" height="14" />
<text class="z-index" x="748.866" y="1133.701" text-anchor="end">z:788</text>
<text class="label label-inv" x="786.866" y="1133.701">TEKST</text>
<rect class="text-frame" x="354.331" y="102.85" width="436.535" height="22" />
<rect class="label-bg" x="734.866" y="110.85" width="56" height="14" />
<text class="z-index" x="730.866" y="120.85" text-anchor="end">z:789</text>
<text class="label label-inv" x="786.866" y="120.85">BOVENKOP</text>
<rect class="text-frame" x="354.331" y="476.85" width="436.535" height="99" />
<rect class="label-bg" x="764.866" y="561.85" width="26" height="14" />
<text class="z-index" x="760.866" y="571.85" text-anchor="end">z:790</text>
<text class="label label-inv" x="786.866" y="571.85">KOP</text>
<rect class="text-frame" x="354.331" y="443.85" width="436.535" height="22" />
<rect class="label-bg" x="722.866" y="451.85" width="68" height="14" />
<text class="z-index" x="718.866" y="461.85" text-anchor="end">z:791</text>
<text class="label label-inv" x="786.866" y="461.85">BIJSCHRIFT</text>
<rect class="image-frame" x="354.331" y="134.85" width="436.535" height="303.827" />
<rect class="label-bg" x="752.866" y="424.677" width="38" height="14" />
<text class="z-index" x="748.866" y="434.677" text-anchor="end">z:792</text>
<text class="label label-inv" x="786.866" y="434.677">image</text>
<rect class="text-frame" x="503.718" y="1015.85" width="138.144" height="121.85" />
<rect class="label-bg" x="603.8620000000001" y="1123.7" width="38" height="14" />
<text class="z-index" x="599.8620000000001" y="1133.7" text-anchor="end">z:793</text>
<text class="label label-inv" x="637.8620000000001" y="1133.7">QUOTE</text>
<rect class="text-frame" x="503.622" y="806.85" width="287.244" height="22" />
<rect class="label-bg" x="722.866" y="814.85" width="68" height="14" />
<text class="z-index" x="718.866" y="824.85" text-anchor="end">z:794</text>
<text class="label label-inv" x="786.866" y="824.85">BIJSCHRIFT</text>
<rect class="image-frame" x="503.622" y="591.024" width="287.244" height="209.976" />
<rect class="label-bg" x="752.866" y="787" width="38" height="14" />
<text class="z-index" x="748.866" y="797" text-anchor="end">z:795</text>
<text class="label label-inv" x="786.866" y="797">image</text>
<rect class="text-frame" x="354.48" y="693.85" width="137.804" height="27.933" />
<rect class="label-bg" x="448.284" y="707.783" width="44" height="14" />
<text class="z-index" x="444.284" y="717.783" text-anchor="end">z:796</text>
<text class="label label-inv" x="488.284" y="717.783">PLAATS</text>
<rect class="text-frame" x="354.331" y="674.85" width="137.953" height="40.237" />
<rect class="label-bg" x="448.284" y="701.087" width="44" height="14" />
<text class="z-index" x="444.284" y="711.087" text-anchor="end">z:797</text>
<text class="label label-inv" x="488.284" y="711.087">AUTEUR</text>
<rect class="text-frame" x="354.331" y="586.85" width="137.878" height="102.865" />
<rect class="label-bg" x="454.209" y="675.715" width="38" height="14" />
<text class="z-index" x="450.209" y="685.715" text-anchor="end">z:798</text>
<text class="label label-inv" x="488.209" y="685.715">INTRO</text>
</g>
</svg>