<svg xmlns="http://www.w3.org/2000/svg" width="839.37" height="802.465" viewBox="476.063 60.849999999999994 839.37 802.465">
<style>
    .page { fill: #fff; stroke: #ccc; }
    .margin { fill: none; stroke: #aaa; stroke-dasharray: 4 2; }
    .column { fill: none; stroke: #ddd; }
    .grid { stroke: #eee; stroke-width: 0.5; }

    .text-frame { fill: rgba(0,0,255,0.08); stroke: #00f; }
    .image-frame { fill: rgba(255,165,0,0.15); stroke: #f90; }

    .frame-id { 
        font-size: 7px; 
        fill: #666;
    }
    
    .thread {
        fill: none;
        stroke: #888;
        stroke-dasharray: 3 3;
        stroke-width: 1;
    }

    .label {
        font-size: 9px;
        font-family: monospace;
    }

    .snippet {
        font-size: 12px;
        font-family: Inter, system-ui, -apple-system, Segoe UI, Roboto, Arial, sans-serif;
        fill: #111;
    }

    .label-bg {
        fill: #000;
        opacity: 0.75;
    }

    .label-inv {
        fill: #fff;
        text-anchor: end;
    }

    .z-index { 
        font-size: 7px; 
        fill: #333;
        text-anchor: end;
        paint-order: stroke fill;
        stroke: white;
        stroke-width: 2;
        stroke-linejoin: round;
    }

    .distance {
        stroke: red;
        stroke-width: 2.5;
        fill: none;
    }

    .edge-ghost {
        stroke: rgba(200, 0, 0, 0.4);
        stroke-width: 1.5;
        stroke-dasharray: 6 3;
        fill: none;
    }

    .arrowhead {
        fill: red;
    }
    
    .fender-zone {
        fill: url(#fender-hatch);
        stroke: none;
    }

    .fender-edge {
        stroke: #0891b2;
        stroke-width: 2;
        fill: none;
    }
</style>
<defs>
    <pattern id="baseline-grid" patternUnits="userSpaceOnUse" width="100%" height="11">
        <line x1="0" y1="0" x2="100%" y2="0" class="grid" />
    </pattern>
    <pattern id="checkerboard" patternUnits="userSpaceOnUse" width="20" height="20">
        <rect width="20" height="20" fill="#e8e8e8" stroke="none"/>
        <rect width="10" height="10" fill="#ffffff" stroke="none"/>
        <rect x="10" y="10" width="10" height="10" fill="#ffffff" stroke="none"/>
    </pattern>
    <pattern id="fender-hatch" patternUnits="userSpaceOnUse" width="8" height="8" patternTransform="rotate(45)">
        <line x1="0" y1="0" x2="0" y2="8" stroke="#0891b2" stroke-width="1.2" stroke-opacity="0.5" />
    </pattern>
</defs>


<g id="article">
<line class="thread" x1="790.866" y1="843.315" x2="847.559" y2="630.85" />
<rect class="text-frame" x="496.063" y="421.85" width="294.803" height="421.465" />
<rect class="label-bg" x="752.866" y="829.315" width="38" height="14" />
<text class="z-index" x="748.866" y="839.315" text-anchor="end">z:204</text>
<text class="label label-inv" x="786.866" y="839.315">TEKST</text>
<rect class="text-frame" x="847.559" y="630.85" width="436.535" height="212.465" />
<rect class="label-bg" x="1246.094" y="829.315" width="38" height="14" />
<text class="z-index" x="1242.094" y="839.315" text-anchor="end">z:207</text>
<text class="label label-inv" x="1280.094" y="839.315">TEKST</text>
<rect class="text-frame" x="649.284" y="631.85" width="141.582" height="44" />
<rect class="label-bg" x="722.866" y="661.85" width="68" height="14" />
<text class="z-index" x="718.866" y="671.85" text-anchor="end">z:209</text>
<text class="label label-inv" x="786.866" y="671.85">BIJSCHRIFT</text>
<rect class="text-frame" x="496.063" y="135.925" width="788.031" height="65.925" />
<rect class="label-bg" x="1258.094" y="187.85000000000002" width="26" height="14" />
<text class="z-index" x="1254.094" y="197.85000000000002" text-anchor="end">z:210</text>
<text class="label label-inv" x="1280.094" y="197.85000000000002">KOP</text>
<rect class="image-frame" x="649.134" y="205.85" width="634.961" height="418.945" />
<rect class="label-bg" x="1246.095" y="610.795" width="38" height="14" />
<text class="z-index" x="1242.095" y="620.795" text-anchor="end">z:211</text>
<text class="label label-inv" x="1280.095" y="620.795">image</text>
<rect class="text-frame" x="507.402" y="102.85" width="776.693" height="15.821" />
<rect class="label-bg" x="1228.095" y="104.67099999999999" width="56" height="14" />
<text class="z-index" x="1224.095" y="114.67099999999999" text-anchor="end">z:212</text>
<text class="label label-inv" x="1280.095" y="114.67099999999999">BOVENKOP</text>
<rect class="text-frame" x="496.063" y="102.85" width="57.061" height="15.821" />
<rect class="label-bg" x="503.124" y="104.67099999999999" width="50" height="14" />
<text class="z-index" x="499.124" y="114.67099999999999" text-anchor="end">z:214</text>
<text class="label label-inv" x="549.124" y="114.67099999999999">SPECIAL</text>
<rect class="text-frame" x="496.216" y="407.879" width="141.579" height="38.904" />
<rect class="label-bg" x="593.7950000000001" y="432.783" width="44" height="14" />
<text class="z-index" x="589.7950000000001" y="442.783" text-anchor="end">z:215</text>
<text class="label label-inv" x="633.7950000000001" y="442.783">PLAATS</text>
<rect class="text-frame" x="496.063" y="388.879" width="141.732" height="51.208" />
<rect class="label-bg" x="593.795" y="426.087" width="44" height="14" />
<text class="z-index" x="589.795" y="436.087" text-anchor="end">z:216</text>
<text class="label label-inv" x="633.795" y="436.087">AUTEUR</text>
<rect class="text-frame" x="496.063" y="201.85" width="141.732" height="212.725" />
<rect class="label-bg" x="599.795" y="400.575" width="38" height="14" />
<text class="z-index" x="595.795" y="410.575" text-anchor="end">z:217</text>
<text class="label label-inv" x="633.795" y="410.575">INTRO</text>
</g>
</svg>