<svg xmlns="http://www.w3.org/2000/svg" width="839.37" height="1101.512" viewBox="476.063 60.849999999999994 839.37 1101.512">
<style>
    .page { fill: #fff; stroke: #ccc; }
    .margin { fill: none; stroke: #aaa; stroke-dasharray: 4 2; }
    .column { fill: none; stroke: #ddd; }
    .grid { stroke: #eee; stroke-width: 0.5; }

    .text-frame { fill: rgba(0,0,255,0.08); stroke: #00f; }
    .image-frame { fill: rgba(255,165,0,0.15); stroke: #f90; }

    .frame-id { 
        font-size: 7px; 
        fill: #666;
    }
    
    .thread {
        fill: none;
        stroke: #888;
        stroke-dasharray: 3 3;
        stroke-width: 1;
    }

    .label {
        font-size: 9px;
        font-family: monospace;
    }

    .snippet {
        font-size: 12px;
        font-family: Inter, system-ui, -apple-system, Segoe UI, Roboto, Arial, sans-serif;
        fill: #111;
    }

    .label-bg {
        fill: #000;
        opacity: 0.75;
    }

    .label-inv {
        fill: #fff;
        text-anchor: end;
    }

    .z-index { 
        font-size: 7px; 
        fill: #333;
        text-anchor: end;
        paint-order: stroke fill;
        stroke: white;
        stroke-width: 2;
        stroke-linejoin: round;
    }

    .distance {
        stroke: red;
        stroke-width: 2.5;
        fill: none;
    }

    .edge-ghost {
        stroke: rgba(200, 0, 0, 0.4);
        stroke-width: 1.5;
        stroke-dasharray: 6 3;
        fill: none;
    }

    .arrowhead {
        fill: red;
    }
    
    .fender-zone {
        fill: url(#fender-hatch);
        stroke: none;
    }

    .fender-edge {
        stroke: #0891b2;
        stroke-width: 2;
        fill: none;
    }
</style>
<defs>
    <pattern id="baseline-grid" patternUnits="userSpaceOnUse" width="100%" height="11">
        <line x1="0" y1="0" x2="100%" y2="0" class="grid" />
    </pattern>
    <pattern id="checkerboard" patternUnits="userSpaceOnUse" width="20" height="20">
        <rect width="20" height="20" fill="#e8e8e8" stroke="none"/>
        <rect width="10" height="10" fill="#ffffff" stroke="none"/>
        <rect x="10" y="10" width="10" height="10" fill="#ffffff" stroke="none"/>
    </pattern>
    <pattern id="fender-hatch" patternUnits="userSpaceOnUse" width="8" height="8" patternTransform="rotate(45)">
        <line x1="0" y1="0" x2="0" y2="8" stroke="#0891b2" stroke-width="1.2" stroke-opacity="0.5" />
    </pattern>
</defs>


<g id="article">
<line class="thread" x1="790.866" y1="1142.362" x2="847.559" y2="751.85" />
<rect class="text-frame" x="507.402" y="102.85" width="776.693" height="15.821" />
<rect class="label-bg" x="1228.095" y="104.67099999999999" width="56" height="14" />
<text class="z-index" x="1224.095" y="114.67099999999999" text-anchor="end">z:166</text>
<text class="label label-inv" x="1280.095" y="114.67099999999999">BOVENKOP</text>
<rect class="text-frame" x="496.063" y="850.85" width="294.803" height="291.512" />
<rect class="label-bg" x="752.866" y="1128.362" width="38" height="14" />
<text class="z-index" x="748.866" y="1138.362" text-anchor="end">z:167</text>
<text class="label label-inv" x="786.866" y="1138.362">TEKST</text>
<rect class="text-frame" x="847.559" y="751.85" width="436.535" height="390.512" />
<rect class="label-bg" x="1246.094" y="1128.362" width="38" height="14" />
<text class="z-index" x="1242.094" y="1138.362" text-anchor="end">z:168</text>
<text class="label label-inv" x="1280.094" y="1138.362">TEKST</text>
<rect class="text-frame" x="496.063" y="652.85" width="788.031" height="15.821" />
<rect class="label-bg" x="1216.094" y="654.671" width="68" height="14" />
<text class="z-index" x="1212.094" y="664.671" text-anchor="end">z:169</text>
<text class="label label-inv" x="1280.094" y="664.671">BIJSCHRIFT</text>
<rect class="image-frame" x="496.063" y="135.85" width="788.031" height="513" />
<rect class="label-bg" x="1246.094" y="634.85" width="38" height="14" />
<text class="z-index" x="1242.094" y="644.85" text-anchor="end">z:170</text>
<text class="label label-inv" x="1280.094" y="644.85">image</text>
<rect class="text-frame" x="996.8499999999999" y="1028" width="137.953" height="114.362" />
<rect class="label-bg" x="1096.8029999999999" y="1128.362" width="38" height="14" />
<text class="z-index" x="1092.8029999999999" y="1138.362" text-anchor="end">z:171</text>
<text class="label label-inv" x="1130.8029999999999" y="1138.362">QUOTE</text>
<rect class="text-frame" x="496.063" y="102.85" width="57.371" height="15.821" />
<rect class="label-bg" x="503.43399999999997" y="104.67099999999999" width="50" height="14" />
<text class="z-index" x="499.43399999999997" y="114.67099999999999" text-anchor="end">z:173</text>
<text class="label label-inv" x="549.434" y="114.67099999999999">SPECIAL</text>
<rect class="text-frame" x="496.063" y="685.85" width="788.031" height="55" />
<rect class="label-bg" x="1258.094" y="726.85" width="26" height="14" />
<text class="z-index" x="1254.094" y="736.85" text-anchor="end">z:174</text>
<text class="label label-inv" x="1280.094" y="736.85">KOP</text>
<rect class="text-frame" x="496.216" y="847.85" width="141.579" height="27.933" />
<rect class="label-bg" x="593.7950000000001" y="861.783" width="44" height="14" />
<text class="z-index" x="589.7950000000001" y="871.783" text-anchor="end">z:175</text>
<text class="label label-inv" x="633.7950000000001" y="871.783">PLAATS</text>
<rect class="text-frame" x="496.063" y="828.85" width="141.732" height="40.237" />
<rect class="label-bg" x="593.795" y="855.087" width="44" height="14" />
<text class="z-index" x="589.795" y="865.087" text-anchor="end">z:176</text>
<text class="label label-inv" x="633.795" y="865.087">AUTEUR</text>
<rect class="text-frame" x="496.063" y="751.85" width="294.65" height="86.725" />
<rect class="label-bg" x="752.713" y="824.575" width="38" height="14" />
<text class="z-index" x="748.713" y="834.575" text-anchor="end">z:177</text>
<text class="label label-inv" x="786.713" y="834.575">INTRO</text>
</g>
</svg>