<svg xmlns="http://www.w3.org/2000/svg" width="640.945" height="832.0000000000001" viewBox="-802.362 60.849999999999994 640.945 832">
<style>
    .page { fill: #fff; stroke: #ccc; }
    .margin { fill: none; stroke: #aaa; stroke-dasharray: 4 2; }
    .column { fill: none; stroke: #ddd; }
    .grid { stroke: #eee; stroke-width: 0.5; }

    .text-frame { fill: rgba(0,0,255,0.08); stroke: #00f; }
    .image-frame { fill: rgba(255,165,0,0.15); stroke: #f90; }

    .frame-id { 
        font-size: 7px; 
        fill: #666;
    }
    
    .thread {
        fill: none;
        stroke: #888;
        stroke-dasharray: 3 3;
        stroke-width: 1;
    }

    .label {
        font-size: 9px;
        font-family: monospace;
    }

    .snippet {
        font-size: 12px;
        font-family: Inter, system-ui, -apple-system, Segoe UI, Roboto, Arial, sans-serif;
        fill: #111;
    }

    .label-bg {
        fill: #000;
        opacity: 0.75;
    }

    .label-inv {
        fill: #fff;
        text-anchor: end;
    }

    .z-index { 
        font-size: 7px; 
        fill: #333;
        text-anchor: end;
        paint-order: stroke fill;
        stroke: white;
        stroke-width: 2;
        stroke-linejoin: round;
    }

    .distance {
        stroke: red;
        stroke-width: 2.5;
        fill: none;
    }

    .edge-ghost {
        stroke: rgba(200, 0, 0, 0.4);
        stroke-width: 1.5;
        stroke-dasharray: 6 3;
        fill: none;
    }

    .arrowhead {
        fill: red;
    }
    
    .fender-zone {
        fill: url(#fender-hatch);
        stroke: none;
    }

    .fender-edge {
        stroke: #0891b2;
        stroke-width: 2;
        fill: none;
    }
</style>
<defs>
    <pattern id="baseline-grid" patternUnits="userSpaceOnUse" width="100%" height="11">
        <line x1="0" y1="0" x2="100%" y2="0" class="grid" />
    </pattern>
    <pattern id="checkerboard" patternUnits="userSpaceOnUse" width="20" height="20">
        <rect width="20" height="20" fill="#e8e8e8" stroke="none"/>
        <rect width="10" height="10" fill="#ffffff" stroke="none"/>
        <rect x="10" y="10" width="10" height="10" fill="#ffffff" stroke="none"/>
    </pattern>
    <pattern id="fender-hatch" patternUnits="userSpaceOnUse" width="8" height="8" patternTransform="rotate(45)">
        <line x1="0" y1="0" x2="0" y2="8" stroke="#0891b2" stroke-width="1.2" stroke-opacity="0.5" />
    </pattern>
</defs>


<g id="article">

<rect class="text-frame" x="-782.362" y="245.85" width="589.606" height="597.457" />
<rect class="label-bg" x="-230.75599999999997" y="829.307" width="38" height="14" />
<text class="z-index" x="-234.75599999999997" y="839.307" text-anchor="end">z:196</text>
<text class="label label-inv" x="-196.75599999999997" y="839.307">TEKST</text>
<rect class="text-frame" x="-334.48799999999994" y="520.85" width="141.882" height="33" />
<rect class="label-bg" x="-260.60599999999994" y="539.85" width="68" height="14" />
<text class="z-index" x="-264.60599999999994" y="549.85" text-anchor="end">z:202</text>
<text class="label label-inv" x="-196.60599999999994" y="549.85">BIJSCHRIFT</text>
<rect class="text-frame" x="-632.088" y="718.85" width="289.096" height="22" />
<rect class="label-bg" x="-410.99199999999996" y="726.85" width="68" height="14" />
<text class="z-index" x="-414.99199999999996" y="736.85" text-anchor="end">z:203</text>
<text class="label label-inv" x="-346.99199999999996" y="736.85">BIJSCHRIFT</text>
<rect class="image-frame" x="-632.088" y="249.732" width="439.333" height="265.559" />
<rect class="label-bg" x="-230.75499999999994" y="501.29100000000005" width="38" height="14" />
<text class="z-index" x="-234.75499999999994" y="511.29100000000005" text-anchor="end">z:204</text>
<text class="label label-inv" x="-196.75499999999994" y="511.29100000000005">image</text>
<rect class="text-frame" x="-782.362" y="135.85" width="589.606" height="98.906" />
<rect class="label-bg" x="-218.75599999999997" y="220.756" width="26" height="14" />
<text class="z-index" x="-222.75599999999997" y="230.756" text-anchor="end">z:205</text>
<text class="label label-inv" x="-196.75599999999997" y="230.756">KOP</text>
<rect class="text-frame" x="-782.062" y="102.85" width="589.456" height="15.821" />
<rect class="label-bg" x="-248.606" y="104.67099999999999" width="56" height="14" />
<text class="z-index" x="-252.606" y="114.67099999999999" text-anchor="end">z:206</text>
<text class="label label-inv" x="-196.606" y="114.67099999999999">BOVENKOP</text>
<rect class="text-frame" x="-782.362" y="102.85" width="57.278" height="15.821" />
<rect class="label-bg" x="-775.084" y="104.67099999999999" width="50" height="14" />
<text class="z-index" x="-779.084" y="114.67099999999999" text-anchor="end">z:207</text>
<text class="label label-inv" x="-729.084" y="114.67099999999999">SPECIAL</text>
<rect class="image-frame" x="-632.088" y="525.213" width="289.096" height="190.697" />
<rect class="label-bg" x="-380.99199999999996" y="701.91" width="38" height="14" />
<text class="z-index" x="-384.99199999999996" y="711.91" text-anchor="end">z:208</text>
<text class="label label-inv" x="-346.99199999999996" y="711.91">image</text>
<rect class="text-frame" x="-782.209" y="352.85" width="141.579" height="27.933" />
<rect class="label-bg" x="-684.6299999999999" y="366.783" width="44" height="14" />
<text class="z-index" x="-688.6299999999999" y="376.783" text-anchor="end">z:209</text>
<text class="label label-inv" x="-644.6299999999999" y="376.783">PLAATS</text>
<rect class="text-frame" x="-782.362" y="333.85" width="141.732" height="40.237" />
<rect class="label-bg" x="-684.63" y="360.08700000000005" width="44" height="14" />
<text class="z-index" x="-688.63" y="370.08700000000005" text-anchor="end">z:210</text>
<text class="label label-inv" x="-644.63" y="370.08700000000005">AUTEUR</text>
<rect class="text-frame" x="-782.362" y="245.85" width="141.656" height="102.865" />
<rect class="label-bg" x="-678.7059999999999" y="334.715" width="38" height="14" />
<text class="z-index" x="-682.7059999999999" y="344.715" text-anchor="end">z:211</text>
<text class="label label-inv" x="-644.7059999999999" y="344.715">INTRO</text>
</g>
</svg>