<svg xmlns="http://www.w3.org/2000/svg" width="640.945" height="1096" viewBox="827.559 60.849999999999994 640.945 1096">
<style>
    .page { fill: #fff; stroke: #ccc; }
    .margin { fill: none; stroke: #aaa; stroke-dasharray: 4 2; }
    .column { fill: none; stroke: #ddd; }
    .grid { stroke: #eee; stroke-width: 0.5; }

    .text-frame { fill: rgba(0,0,255,0.08); stroke: #00f; }
    .image-frame { fill: rgba(255,165,0,0.15); stroke: #f90; }

    .frame-id { 
        font-size: 7px; 
        fill: #666;
    }
    
    .thread {
        fill: none;
        stroke: #888;
        stroke-dasharray: 3 3;
        stroke-width: 1;
    }

    .label {
        font-size: 9px;
        font-family: monospace;
    }

    .snippet {
        font-size: 12px;
        font-family: Inter, system-ui, -apple-system, Segoe UI, Roboto, Arial, sans-serif;
        fill: #111;
    }

    .label-bg {
        fill: #000;
        opacity: 0.75;
    }

    .label-inv {
        fill: #fff;
        text-anchor: end;
    }

    .z-index { 
        font-size: 7px; 
        fill: #333;
        text-anchor: end;
        paint-order: stroke fill;
        stroke: white;
        stroke-width: 2;
        stroke-linejoin: round;
    }

    .distance {
        stroke: red;
        stroke-width: 2.5;
        fill: none;
    }

    .edge-ghost {
        stroke: rgba(200, 0, 0, 0.4);
        stroke-width: 1.5;
        stroke-dasharray: 6 3;
        fill: none;
    }

    .arrowhead {
        fill: red;
    }
    
    .fender-zone {
        fill: url(#fender-hatch);
        stroke: none;
    }

    .fender-edge {
        stroke: #0891b2;
        stroke-width: 2;
        fill: none;
    }
</style>
<defs>
    <pattern id="baseline-grid" patternUnits="userSpaceOnUse" width="100%" height="11">
        <line x1="0" y1="0" x2="100%" y2="0" class="grid" />
    </pattern>
    <pattern id="checkerboard" patternUnits="userSpaceOnUse" width="20" height="20">
        <rect width="20" height="20" fill="#e8e8e8" stroke="none"/>
        <rect width="10" height="10" fill="#ffffff" stroke="none"/>
        <rect x="10" y="10" width="10" height="10" fill="#ffffff" stroke="none"/>
    </pattern>
    <pattern id="fender-hatch" patternUnits="userSpaceOnUse" width="8" height="8" patternTransform="rotate(45)">
        <line x1="0" y1="0" x2="0" y2="8" stroke="#0891b2" stroke-width="1.2" stroke-opacity="0.5" />
    </pattern>
</defs>


<g id="article">
<line class="thread" x1="1164.23" y1="1136.85" x2="1284.5" y2="707.85" />
<rect class="text-frame" x="847.56" y="102.85" width="589.456" height="15.821" />
<rect class="label-bg" x="1381.016" y="104.67099999999999" width="56" height="14" />
<text class="z-index" x="1377.016" y="114.67099999999999" text-anchor="end">z:733</text>
<text class="label label-inv" x="1433.016" y="114.67099999999999">BOVENKOP</text>
<rect class="text-frame" x="847.56" y="102.85" width="56.958" height="15.821" />
<rect class="label-bg" x="854.5179999999999" y="104.67099999999999" width="50" height="14" />
<text class="z-index" x="850.5179999999999" y="114.67099999999999" text-anchor="end">z:734</text>
<text class="label label-inv" x="900.5179999999999" y="114.67099999999999">SPECIAL</text>
<rect class="text-frame" x="847.56" y="575.85" width="589.606" height="121" />
<rect class="label-bg" x="1411.166" y="682.85" width="26" height="14" />
<text class="z-index" x="1407.166" y="692.85" text-anchor="end">z:735</text>
<text class="label label-inv" x="1433.166" y="692.85">KOP</text>
<rect class="text-frame" x="847.56" y="542.85" width="589.606" height="22.001" />
<rect class="label-bg" x="1369.166" y="550.851" width="68" height="14" />
<text class="z-index" x="1365.166" y="560.851" text-anchor="end">z:736</text>
<text class="label label-inv" x="1433.166" y="560.851">BIJSCHRIFT</text>
<rect class="image-frame" x="847.56" y="135.85" width="589.606" height="398" />
<rect class="label-bg" x="1399.166" y="519.85" width="38" height="14" />
<text class="z-index" x="1395.166" y="529.85" text-anchor="end">z:737</text>
<text class="label label-inv" x="1433.166" y="529.85">image</text>
<rect class="text-frame" x="1284.5" y="707.85" width="152.666" height="429" />
<rect class="label-bg" x="1399.166" y="1122.85" width="38" height="14" />
<text class="z-index" x="1395.166" y="1132.85" text-anchor="end">z:738</text>
<text class="label label-inv" x="1433.166" y="1132.85">TEKST</text>
<rect class="text-frame" x="1175.569" y="972.85" width="97.998" height="164" />
<rect class="label-bg" x="1235.567" y="1122.85" width="38" height="14" />
<text class="z-index" x="1231.567" y="1132.85" text-anchor="end">z:739</text>
<text class="label label-inv" x="1269.567" y="1132.85">QUOTE</text>
<rect class="text-frame" x="847.56" y="773.85" width="316.67" height="363" />
<rect class="label-bg" x="1126.23" y="1122.85" width="38" height="14" />
<text class="z-index" x="1122.23" y="1132.85" text-anchor="end">z:740</text>
<text class="label label-inv" x="1160.23" y="1132.85">TEKST</text>
<rect class="text-frame" x="847.725" y="792.85" width="152.501" height="6.696" />
<rect class="label-bg" x="956.226" y="785.546" width="44" height="14" />
<text class="z-index" x="952.226" y="795.546" text-anchor="end">z:741</text>
<text class="label label-inv" x="996.226" y="795.546">PLAATS</text>
<rect class="text-frame" x="847.56" y="773.85" width="152.666" height="18.237" />
<rect class="label-bg" x="956.2259999999999" y="778.087" width="44" height="14" />
<text class="z-index" x="952.2259999999999" y="788.087" text-anchor="end">z:742</text>
<text class="label label-inv" x="996.2259999999999" y="788.087">AUTEUR</text>
<rect class="text-frame" x="847.56" y="707.85" width="426.007" height="50.725" />
<rect class="label-bg" x="1235.567" y="744.575" width="38" height="14" />
<text class="z-index" x="1231.567" y="754.575" text-anchor="end">z:743</text>
<text class="label label-inv" x="1269.567" y="754.575">INTRO</text>
</g>
</svg>