<svg xmlns="http://www.w3.org/2000/svg" width="794.299" height="1101.512" viewBox="16.85 60.849999999999994 794.299 1101.512">
<style>
    .page { fill: #fff; stroke: #ccc; }
    .margin { fill: none; stroke: #aaa; stroke-dasharray: 4 2; }
    .column { fill: none; stroke: #ddd; }
    .grid { stroke: #eee; stroke-width: 0.5; }

    .text-frame { fill: rgba(0,0,255,0.08); stroke: #00f; }
    .image-frame { fill: rgba(255,165,0,0.15); stroke: #f90; }

    .frame-id { 
        font-size: 7px; 
        fill: #666;
    }
    
    .thread {
        fill: none;
        stroke: #888;
        stroke-dasharray: 3 3;
        stroke-width: 1;
    }

    .label {
        font-size: 9px;
        font-family: monospace;
    }

    .snippet {
        font-size: 12px;
        font-family: Inter, system-ui, -apple-system, Segoe UI, Roboto, Arial, sans-serif;
        fill: #111;
    }

    .label-bg {
        fill: #000;
        opacity: 0.75;
    }

    .label-inv {
        fill: #fff;
        text-anchor: end;
    }

    .z-index { 
        font-size: 7px; 
        fill: #333;
        text-anchor: end;
        paint-order: stroke fill;
        stroke: white;
        stroke-width: 2;
        stroke-linejoin: round;
    }

    .distance {
        stroke: red;
        stroke-width: 2.5;
        fill: none;
    }

    .edge-ghost {
        stroke: rgba(200, 0, 0, 0.4);
        stroke-width: 1.5;
        stroke-dasharray: 6 3;
        fill: none;
    }

    .arrowhead {
        fill: red;
    }
    
    .fender-zone {
        fill: url(#fender-hatch);
        stroke: none;
    }

    .fender-edge {
        stroke: #0891b2;
        stroke-width: 2;
        fill: none;
    }
</style>
<defs>
    <pattern id="baseline-grid" patternUnits="userSpaceOnUse" width="100%" height="11">
        <line x1="0" y1="0" x2="100%" y2="0" class="grid" />
    </pattern>
    <pattern id="checkerboard" patternUnits="userSpaceOnUse" width="20" height="20">
        <rect width="20" height="20" fill="#e8e8e8" stroke="none"/>
        <rect width="10" height="10" fill="#ffffff" stroke="none"/>
        <rect x="10" y="10" width="10" height="10" fill="#ffffff" stroke="none"/>
    </pattern>
    <pattern id="fender-hatch" patternUnits="userSpaceOnUse" width="8" height="8" patternTransform="rotate(45)">
        <line x1="0" y1="0" x2="0" y2="8" stroke="#0891b2" stroke-width="1.2" stroke-opacity="0.5" />
    </pattern>
</defs>


<g id="article">

<rect class="text-frame" x="36.85" y="751.869" width="754.299" height="387.942" />
<rect class="label-bg" x="753.149" y="1125.8110000000001" width="38" height="14" />
<text class="z-index" x="749.149" y="1135.8110000000001" text-anchor="end">z:590</text>
<text class="label label-inv" x="787.149" y="1135.8110000000001">TEKST</text>
<rect class="text-frame" x="36.85" y="619.8380000000001" width="754.016" height="132" />
<rect class="label-bg" x="764.866" y="737.8380000000001" width="26" height="14" />
<text class="z-index" x="760.866" y="747.8380000000001" text-anchor="end">z:591</text>
<text class="label label-inv" x="786.866" y="747.8380000000001">KOP</text>
<rect class="text-frame" x="37.134" y="586.838" width="754.016" height="22" />
<rect class="label-bg" x="723.15" y="594.838" width="68" height="14" />
<text class="z-index" x="719.15" y="604.838" text-anchor="end">z:592</text>
<text class="label label-inv" x="787.15" y="604.838">BIJSCHRIFT</text>
<rect class="image-frame" x="36.85" y="135.85" width="754.016" height="445.988" />
<rect class="label-bg" x="752.866" y="567.838" width="38" height="14" />
<text class="z-index" x="748.866" y="577.838" text-anchor="end">z:593</text>
<text class="label label-inv" x="786.866" y="577.838">image</text>
<rect class="text-frame" x="496.06300000000005" y="938.85" width="141.732" height="55" />
<rect class="label-bg" x="569.7950000000001" y="979.85" width="68" height="14" />
<text class="z-index" x="565.7950000000001" y="989.85" text-anchor="end">z:594</text>
<text class="label label-inv" x="633.7950000000001" y="989.85">BIJSCHRIFT</text>
<rect class="image-frame" x="343.276" y="756.609" width="294.52" height="176.8" />
<rect class="label-bg" x="599.796" y="919.4090000000001" width="38" height="14" />
<text class="z-index" x="595.796" y="929.4090000000001" text-anchor="end">z:595</text>
<text class="label label-inv" x="633.796" y="929.4090000000001">image</text>
<rect class="text-frame" x="36.85" y="102.85" width="754.016" height="22" />
<rect class="label-bg" x="734.866" y="110.85" width="56" height="14" />
<text class="z-index" x="730.866" y="120.85" text-anchor="end">z:596</text>
<text class="label label-inv" x="786.866" y="120.85">BOVENKOP</text>
<rect class="text-frame" x="496.06300000000005" y="1004.85" width="141.732" height="137.512" />
<rect class="label-bg" x="599.7950000000001" y="1128.362" width="38" height="14" />
<text class="z-index" x="595.7950000000001" y="1138.362" text-anchor="end">z:597</text>
<text class="label label-inv" x="633.7950000000001" y="1138.362">QUOTE</text>
<rect class="text-frame" x="37.003" y="847.869" width="141.579" height="6.696" />
<rect class="label-bg" x="134.582" y="840.565" width="44" height="14" />
<text class="z-index" x="130.582" y="850.565" text-anchor="end">z:598</text>
<text class="label label-inv" x="174.582" y="850.565">PLAATS</text>
<rect class="text-frame" x="36.85" y="828.869" width="141.732" height="18.218" />
<rect class="label-bg" x="134.582" y="833.087" width="44" height="14" />
<text class="z-index" x="130.582" y="843.087" text-anchor="end">z:599</text>
<text class="label label-inv" x="174.582" y="843.087">AUTEUR</text>
<rect class="text-frame" x="36.85" y="751.869" width="294.917" height="68.725" />
<rect class="label-bg" x="293.767" y="806.594" width="38" height="14" />
<text class="z-index" x="289.767" y="816.594" text-anchor="end">z:600</text>
<text class="label label-inv" x="327.767" y="816.594">INTRO</text>
</g>
</svg>