<svg xmlns="http://www.w3.org/2000/svg" width="487.874" height="1101.512" viewBox="827.559 60.849999999999994 487.874 1101.512">
<style>
    .page { fill: #fff; stroke: #ccc; }
    .margin { fill: none; stroke: #aaa; stroke-dasharray: 4 2; }
    .column { fill: none; stroke: #ddd; }
    .grid { stroke: #eee; stroke-width: 0.5; }

    .text-frame { fill: rgba(0,0,255,0.08); stroke: #00f; }
    .image-frame { fill: rgba(255,165,0,0.15); stroke: #f90; }

    .frame-id { 
        font-size: 7px; 
        fill: #666;
    }
    
    .thread {
        fill: none;
        stroke: #888;
        stroke-dasharray: 3 3;
        stroke-width: 1;
    }

    .label {
        font-size: 9px;
        font-family: monospace;
    }

    .snippet {
        font-size: 12px;
        font-family: Inter, system-ui, -apple-system, Segoe UI, Roboto, Arial, sans-serif;
        fill: #111;
    }

    .label-bg {
        fill: #000;
        opacity: 0.75;
    }

    .label-inv {
        fill: #fff;
        text-anchor: end;
    }

    .z-index { 
        font-size: 7px; 
        fill: #333;
        text-anchor: end;
        paint-order: stroke fill;
        stroke: white;
        stroke-width: 2;
        stroke-linejoin: round;
    }

    .distance {
        stroke: red;
        stroke-width: 2.5;
        fill: none;
    }

    .edge-ghost {
        stroke: rgba(200, 0, 0, 0.4);
        stroke-width: 1.5;
        stroke-dasharray: 6 3;
        fill: none;
    }

    .arrowhead {
        fill: red;
    }
    
    .fender-zone {
        fill: url(#fender-hatch);
        stroke: none;
    }

    .fender-edge {
        stroke: #0891b2;
        stroke-width: 2;
        fill: none;
    }
</style>
<defs>
    <pattern id="baseline-grid" patternUnits="userSpaceOnUse" width="100%" height="11">
        <line x1="0" y1="0" x2="100%" y2="0" class="grid" />
    </pattern>
    <pattern id="checkerboard" patternUnits="userSpaceOnUse" width="20" height="20">
        <rect width="20" height="20" fill="#e8e8e8" stroke="none"/>
        <rect width="10" height="10" fill="#ffffff" stroke="none"/>
        <rect x="10" y="10" width="10" height="10" fill="#ffffff" stroke="none"/>
    </pattern>
    <pattern id="fender-hatch" patternUnits="userSpaceOnUse" width="8" height="8" patternTransform="rotate(45)">
        <line x1="0" y1="0" x2="0" y2="8" stroke="#0891b2" stroke-width="1.2" stroke-opacity="0.5" />
    </pattern>
</defs>


<g id="article">

<rect class="text-frame" x="858.85" y="102.85" width="436.535" height="15.821" />
<rect class="label-bg" x="1239.385" y="104.67099999999999" width="56" height="14" />
<text class="z-index" x="1235.385" y="114.67099999999999" text-anchor="end">z:813</text>
<text class="label label-inv" x="1291.385" y="114.67099999999999">BOVENKOP</text>
<rect class="text-frame" x="858.898" y="608.85" width="436.535" height="533.512" />
<rect class="label-bg" x="1257.433" y="1128.362" width="38" height="14" />
<text class="z-index" x="1253.433" y="1138.362" text-anchor="end">z:814</text>
<text class="label label-inv" x="1291.433" y="1138.362">TEKST</text>
<rect class="text-frame" x="1008.189" y="1026.85" width="137.953" height="110" />
<rect class="label-bg" x="1108.142" y="1122.85" width="38" height="14" />
<text class="z-index" x="1104.142" y="1132.85" text-anchor="end">z:815</text>
<text class="label label-inv" x="1142.142" y="1132.85">QUOTE</text>
<rect class="text-frame" x="858.898" y="421.85" width="436.535" height="11" />
<rect class="label-bg" x="1227.433" y="418.85" width="68" height="14" />
<text class="z-index" x="1223.433" y="428.85" text-anchor="end">z:816</text>
<text class="label label-inv" x="1291.433" y="428.85">BIJSCHRIFT</text>
<rect class="image-frame" x="858.898" y="134.85" width="436.535" height="281.715" />
<rect class="label-bg" x="1257.433" y="402.56499999999994" width="38" height="14" />
<text class="z-index" x="1253.433" y="412.56499999999994" text-anchor="end">z:817</text>
<text class="label label-inv" x="1291.433" y="412.56499999999994">image</text>
<rect class="text-frame" x="858.898" y="443.85" width="436.535" height="154" />
<rect class="label-bg" x="1269.433" y="583.85" width="26" height="14" />
<text class="z-index" x="1265.433" y="593.85" text-anchor="end">z:818</text>
<text class="label label-inv" x="1291.433" y="593.85">KOP</text>
<rect class="text-frame" x="858.85" y="102.85" width="57.128" height="15.821" />
<rect class="label-bg" x="865.9780000000001" y="104.67099999999999" width="50" height="14" />
<text class="z-index" x="861.9780000000001" y="114.67099999999999" text-anchor="end">z:819</text>
<text class="label label-inv" x="911.9780000000001" y="114.67099999999999">SPECIAL</text>
<rect class="text-frame" x="859.045" y="704.85" width="136.205" height="6.696" />
<rect class="label-bg" x="951.25" y="697.546" width="44" height="14" />
<text class="z-index" x="947.25" y="707.546" text-anchor="end">z:820</text>
<text class="label label-inv" x="991.25" y="707.546">PLAATS</text>
<rect class="text-frame" x="858.898" y="685.85" width="136.352" height="18.237" />
<rect class="label-bg" x="951.25" y="690.087" width="44" height="14" />
<text class="z-index" x="947.25" y="700.087" text-anchor="end">z:821</text>
<text class="label label-inv" x="991.25" y="700.087">AUTEUR</text>
<rect class="text-frame" x="858.898" y="608.85" width="283.465" height="68.725" />
<rect class="label-bg" x="1104.363" y="663.575" width="38" height="14" />
<text class="z-index" x="1100.363" y="673.575" text-anchor="end">z:822</text>
<text class="label label-inv" x="1138.363" y="673.575">INTRO</text>
</g>
</svg>