<svg xmlns="http://www.w3.org/2000/svg" width="640.945" height="1098.063" viewBox="16.85 60.849999999999994 640.945 1098.063">
<style>
    .page { fill: #fff; stroke: #ccc; }
    .margin { fill: none; stroke: #aaa; stroke-dasharray: 4 2; }
    .column { fill: none; stroke: #ddd; }
    .grid { stroke: #eee; stroke-width: 0.5; }

    .text-frame { fill: rgba(0,0,255,0.08); stroke: #00f; }
    .image-frame { fill: rgba(255,165,0,0.15); stroke: #f90; }

    .frame-id { 
        font-size: 7px; 
        fill: #666;
    }
    
    .thread {
        fill: none;
        stroke: #888;
        stroke-dasharray: 3 3;
        stroke-width: 1;
    }

    .label {
        font-size: 9px;
        font-family: monospace;
    }

    .snippet {
        font-size: 12px;
        font-family: Inter, system-ui, -apple-system, Segoe UI, Roboto, Arial, sans-serif;
        fill: #111;
    }

    .label-bg {
        fill: #000;
        opacity: 0.75;
    }

    .label-inv {
        fill: #fff;
        text-anchor: end;
    }

    .z-index { 
        font-size: 7px; 
        fill: #333;
        text-anchor: end;
        paint-order: stroke fill;
        stroke: white;
        stroke-width: 2;
        stroke-linejoin: round;
    }

    .distance {
        stroke: red;
        stroke-width: 2.5;
        fill: none;
    }

    .edge-ghost {
        stroke: rgba(200, 0, 0, 0.4);
        stroke-width: 1.5;
        stroke-dasharray: 6 3;
        fill: none;
    }

    .arrowhead {
        fill: red;
    }
    
    .fender-zone {
        fill: url(#fender-hatch);
        stroke: none;
    }

    .fender-edge {
        stroke: #0891b2;
        stroke-width: 2;
        fill: none;
    }
</style>
<defs>
    <pattern id="baseline-grid" patternUnits="userSpaceOnUse" width="100%" height="11">
        <line x1="0" y1="0" x2="100%" y2="0" class="grid" />
    </pattern>
    <pattern id="checkerboard" patternUnits="userSpaceOnUse" width="20" height="20">
        <rect width="20" height="20" fill="#e8e8e8" stroke="none"/>
        <rect width="10" height="10" fill="#ffffff" stroke="none"/>
        <rect x="10" y="10" width="10" height="10" fill="#ffffff" stroke="none"/>
    </pattern>
    <pattern id="fender-hatch" patternUnits="userSpaceOnUse" width="8" height="8" patternTransform="rotate(45)">
        <line x1="0" y1="0" x2="0" y2="8" stroke="#0891b2" stroke-width="1.2" stroke-opacity="0.5" />
    </pattern>
</defs>


<g id="article">

<rect class="text-frame" x="36.85" y="663.85" width="589.606" height="475.063" />
<rect class="label-bg" x="588.456" y="1124.913" width="38" height="14" />
<text class="z-index" x="584.456" y="1134.913" text-anchor="end">z:679</text>
<text class="label label-inv" x="622.456" y="1134.913">TEKST</text>
<rect class="text-frame" x="36.85" y="102.85" width="589.606" height="22" />
<rect class="label-bg" x="570.456" y="110.85" width="56" height="14" />
<text class="z-index" x="566.456" y="120.85" text-anchor="end">z:680</text>
<text class="label label-inv" x="622.456" y="120.85">BOVENKOP</text>
<rect class="text-frame" x="36.85" y="498.85" width="589.606" height="22" />
<rect class="label-bg" x="558.456" y="506.85" width="68" height="14" />
<text class="z-index" x="554.456" y="516.85" text-anchor="end">z:681</text>
<text class="label label-inv" x="622.456" y="516.85">BIJSCHRIFT</text>
<rect class="image-frame" x="36.85" y="124.85" width="589.606" height="369" />
<rect class="label-bg" x="588.456" y="479.85" width="38" height="14" />
<text class="z-index" x="584.456" y="489.85" text-anchor="end">z:682</text>
<text class="label label-inv" x="622.456" y="489.85">image</text>
<rect class="text-frame" x="337.32300000000004" y="1026.85" width="138.898" height="112.063" />
<rect class="label-bg" x="438.221" y="1124.913" width="38" height="14" />
<text class="z-index" x="434.221" y="1134.913" text-anchor="end">z:683</text>
<text class="label label-inv" x="472.221" y="1134.913">QUOTE</text>
<rect class="text-frame" x="36.85" y="531.85" width="589.606" height="132" />
<rect class="label-bg" x="600.456" y="649.85" width="26" height="14" />
<text class="z-index" x="596.456" y="659.85" text-anchor="end">z:684</text>
<text class="label label-inv" x="622.456" y="659.85">KOP</text>
<rect class="text-frame" x="37.153" y="759.85" width="138.595" height="6.696" />
<rect class="label-bg" x="131.748" y="752.546" width="44" height="14" />
<text class="z-index" x="127.74799999999999" y="762.546" text-anchor="end">z:685</text>
<text class="label label-inv" x="171.748" y="762.546">PLAATS</text>
<rect class="text-frame" x="37.003" y="740.85" width="138.744" height="18.237" />
<rect class="label-bg" x="131.747" y="745.087" width="44" height="14" />
<text class="z-index" x="127.74700000000001" y="755.087" text-anchor="end">z:686</text>
<text class="label label-inv" x="171.747" y="755.087">AUTEUR</text>
<rect class="text-frame" x="37.003" y="663.85" width="288.981" height="68.725" />
<rect class="label-bg" x="287.984" y="718.575" width="38" height="14" />
<text class="z-index" x="283.984" y="728.575" text-anchor="end">z:687</text>
<text class="label label-inv" x="321.984" y="728.575">INTRO</text>
</g>
</svg>