<svg xmlns="http://www.w3.org/2000/svg" width="992.441" height="832" viewBox="322.992 60.849999999999994 992.441 832">
<style>
    .page { fill: #fff; stroke: #ccc; }
    .margin { fill: none; stroke: #aaa; stroke-dasharray: 4 2; }
    .column { fill: none; stroke: #ddd; }
    .grid { stroke: #eee; stroke-width: 0.5; }

    .text-frame { fill: rgba(0,0,255,0.08); stroke: #00f; }
    .image-frame { fill: rgba(255,165,0,0.15); stroke: #f90; }

    .frame-id { 
        font-size: 7px; 
        fill: #666;
    }
    
    .thread {
        fill: none;
        stroke: #888;
        stroke-dasharray: 3 3;
        stroke-width: 1;
    }

    .label {
        font-size: 9px;
        font-family: monospace;
    }

    .snippet {
        font-size: 12px;
        font-family: Inter, system-ui, -apple-system, Segoe UI, Roboto, Arial, sans-serif;
        fill: #111;
    }

    .label-bg {
        fill: #000;
        opacity: 0.75;
    }

    .label-inv {
        fill: #fff;
        text-anchor: end;
    }

    .z-index { 
        font-size: 7px; 
        fill: #333;
        text-anchor: end;
        paint-order: stroke fill;
        stroke: white;
        stroke-width: 2;
        stroke-linejoin: round;
    }

    .distance {
        stroke: red;
        stroke-width: 2.5;
        fill: none;
    }

    .edge-ghost {
        stroke: rgba(200, 0, 0, 0.4);
        stroke-width: 1.5;
        stroke-dasharray: 6 3;
        fill: none;
    }

    .arrowhead {
        fill: red;
    }
    
    .fender-zone {
        fill: url(#fender-hatch);
        stroke: none;
    }

    .fender-edge {
        stroke: #0891b2;
        stroke-width: 2;
        fill: none;
    }
</style>
<defs>
    <pattern id="baseline-grid" patternUnits="userSpaceOnUse" width="100%" height="11">
        <line x1="0" y1="0" x2="100%" y2="0" class="grid" />
    </pattern>
    <pattern id="checkerboard" patternUnits="userSpaceOnUse" width="20" height="20">
        <rect width="20" height="20" fill="#e8e8e8" stroke="none"/>
        <rect width="10" height="10" fill="#ffffff" stroke="none"/>
        <rect x="10" y="10" width="10" height="10" fill="#ffffff" stroke="none"/>
    </pattern>
    <pattern id="fender-hatch" patternUnits="userSpaceOnUse" width="8" height="8" patternTransform="rotate(45)">
        <line x1="0" y1="0" x2="0" y2="8" stroke="#0891b2" stroke-width="1.2" stroke-opacity="0.5" />
    </pattern>
</defs>


<g id="article">
<line class="thread" x1="790.866" y1="841.433" x2="847.559" y2="575.85" />
<rect class="text-frame" x="847.559" y="575.85" width="436.535" height="265.583" />
<rect class="label-bg" x="1246.094" y="827.433" width="38" height="14" />
<text class="z-index" x="1242.094" y="837.433" text-anchor="end">z:503</text>
<text class="label label-inv" x="1280.094" y="837.433">TEKST</text>
<rect class="text-frame" x="996.8499999999999" y="575.85" width="139.843" height="143" />
<rect class="label-bg" x="1068.693" y="704.85" width="68" height="14" />
<text class="z-index" x="1064.693" y="714.85" text-anchor="end">z:504</text>
<text class="label label-inv" x="1132.693" y="714.85">BIJSCHRIFT</text>
<rect class="text-frame" x="996.8499999999999" y="729.85" width="137.953" height="110" />
<rect class="label-bg" x="1096.8029999999999" y="825.85" width="38" height="14" />
<text class="z-index" x="1092.8029999999999" y="835.85" text-anchor="end">z:505</text>
<text class="label label-inv" x="1130.8029999999999" y="835.85">QUOTE</text>
<rect class="text-frame" x="354.331" y="575.85" width="436.535" height="265.583" />
<rect class="label-bg" x="752.866" y="827.433" width="38" height="14" />
<text class="z-index" x="748.866" y="837.433" text-anchor="end">z:507</text>
<text class="label label-inv" x="786.866" y="837.433">TEKST</text>
<rect class="image-frame" x="652.913" y="135.85" width="631.181" height="429" />
<rect class="label-bg" x="1246.094" y="550.85" width="38" height="14" />
<text class="z-index" x="1242.094" y="560.85" text-anchor="end">z:511</text>
<text class="label label-inv" x="1280.094" y="560.85">image</text>
<rect class="text-frame" x="354.331" y="135.85" width="287.34" height="308" />
<rect class="label-bg" x="615.671" y="429.85" width="26" height="14" />
<text class="z-index" x="611.671" y="439.85" text-anchor="end">z:512</text>
<text class="label label-inv" x="637.671" y="439.85">KOP</text>
<rect class="text-frame" x="354.331" y="102.85" width="929.764" height="15.821" />
<rect class="label-bg" x="1228.095" y="104.67099999999999" width="56" height="14" />
<text class="z-index" x="1224.095" y="114.67099999999999" text-anchor="end">z:513</text>
<text class="label label-inv" x="1280.095" y="114.67099999999999">BOVENKOP</text>
<rect class="text-frame" x="354.331" y="102.85" width="56.884" height="15.821" />
<rect class="label-bg" x="361.21500000000003" y="104.67099999999999" width="50" height="14" />
<text class="z-index" x="357.21500000000003" y="114.67099999999999" text-anchor="end">z:515</text>
<text class="label label-inv" x="407.21500000000003" y="114.67099999999999">SPECIAL</text>
<rect class="text-frame" x="354.331" y="583.85" width="138.855" height="16.933" />
<rect class="label-bg" x="449.18600000000004" y="586.783" width="44" height="14" />
<text class="z-index" x="445.18600000000004" y="596.783" text-anchor="end">z:516</text>
<text class="label label-inv" x="489.18600000000004" y="596.783">PLAATS</text>
<rect class="text-frame" x="354.331" y="564.85" width="139.005" height="29.237" />
<rect class="label-bg" x="449.336" y="580.087" width="44" height="14" />
<text class="z-index" x="445.336" y="590.087" text-anchor="end">z:517</text>
<text class="label label-inv" x="489.336" y="590.087">AUTEUR</text>
<rect class="text-frame" x="354.331" y="476.85" width="288.981" height="86.725" />
<rect class="label-bg" x="605.312" y="549.575" width="38" height="14" />
<text class="z-index" x="601.312" y="559.575" text-anchor="end">z:518</text>
<text class="label label-inv" x="639.312" y="559.575">INTRO</text>
</g>
</svg>