<svg xmlns="http://www.w3.org/2000/svg" width="794.016" height="557" viewBox="16.85 60.849999999999994 794.016 557">
<style>
    .page { fill: #fff; stroke: #ccc; }
    .margin { fill: none; stroke: #aaa; stroke-dasharray: 4 2; }
    .column { fill: none; stroke: #ddd; }
    .grid { stroke: #eee; stroke-width: 0.5; }

    .text-frame { fill: rgba(0,0,255,0.08); stroke: #00f; }
    .image-frame { fill: rgba(255,165,0,0.15); stroke: #f90; }

    .frame-id { 
        font-size: 7px; 
        fill: #666;
    }
    
    .thread {
        fill: none;
        stroke: #888;
        stroke-dasharray: 3 3;
        stroke-width: 1;
    }

    .label {
        font-size: 9px;
        font-family: monospace;
    }

    .snippet {
        font-size: 12px;
        font-family: Inter, system-ui, -apple-system, Segoe UI, Roboto, Arial, sans-serif;
        fill: #111;
    }

    .label-bg {
        fill: #000;
        opacity: 0.75;
    }

    .label-inv {
        fill: #fff;
        text-anchor: end;
    }

    .z-index { 
        font-size: 7px; 
        fill: #333;
        text-anchor: end;
        paint-order: stroke fill;
        stroke: white;
        stroke-width: 2;
        stroke-linejoin: round;
    }

    .distance {
        stroke: red;
        stroke-width: 2.5;
        fill: none;
    }

    .edge-ghost {
        stroke: rgba(200, 0, 0, 0.4);
        stroke-width: 1.5;
        stroke-dasharray: 6 3;
        fill: none;
    }

    .arrowhead {
        fill: red;
    }
    
    .fender-zone {
        fill: url(#fender-hatch);
        stroke: none;
    }

    .fender-edge {
        stroke: #0891b2;
        stroke-width: 2;
        fill: none;
    }
</style>
<defs>
    <pattern id="baseline-grid" patternUnits="userSpaceOnUse" width="100%" height="11">
        <line x1="0" y1="0" x2="100%" y2="0" class="grid" />
    </pattern>
    <pattern id="checkerboard" patternUnits="userSpaceOnUse" width="20" height="20">
        <rect width="20" height="20" fill="#e8e8e8" stroke="none"/>
        <rect width="10" height="10" fill="#ffffff" stroke="none"/>
        <rect x="10" y="10" width="10" height="10" fill="#ffffff" stroke="none"/>
    </pattern>
    <pattern id="fender-hatch" patternUnits="userSpaceOnUse" width="8" height="8" patternTransform="rotate(45)">
        <line x1="0" y1="0" x2="0" y2="8" stroke="#0891b2" stroke-width="1.2" stroke-opacity="0.5" />
    </pattern>
</defs>


<g id="article">

<rect class="text-frame" x="36.85" y="190.85" width="754.016" height="386.291" />
<rect class="label-bg" x="752.866" y="563.141" width="38" height="14" />
<text class="z-index" x="748.866" y="573.141" text-anchor="end">z:120</text>
<text class="label label-inv" x="786.866" y="573.141">TEKST</text>
<rect class="image-frame" x="189.921" y="195.418" width="371.339" height="248.433" />
<rect class="label-bg" x="523.26" y="429.851" width="38" height="14" />
<text class="z-index" x="519.26" y="439.851" text-anchor="end">z:121</text>
<text class="label label-inv" x="557.26" y="439.851">image</text>
<rect class="text-frame" x="190.09799999999998" y="454.85" width="141.732" height="121" />
<rect class="label-bg" x="293.83" y="561.85" width="38" height="14" />
<text class="z-index" x="289.83" y="571.85" text-anchor="end">z:122</text>
<text class="label label-inv" x="327.83" y="571.85">QUOTE</text>
<rect class="text-frame" x="572.5980000000001" y="256.85" width="65.197" height="187" />
<rect class="label-bg" x="569.7950000000001" y="429.85" width="68" height="14" />
<text class="z-index" x="565.7950000000001" y="439.85" text-anchor="end">z:123</text>
<text class="label label-inv" x="633.7950000000001" y="439.85">BIJSCHRIFT</text>
<rect class="text-frame" x="36.85" y="135.85" width="754.016" height="44" />
<rect class="label-bg" x="764.866" y="165.85" width="26" height="14" />
<text class="z-index" x="760.866" y="175.85" text-anchor="end">z:130</text>
<text class="label label-inv" x="786.866" y="175.85">KOP</text>
<rect class="text-frame" x="36.85" y="102.85" width="753.632" height="15.829" />
<rect class="label-bg" x="734.482" y="104.679" width="56" height="14" />
<text class="z-index" x="730.482" y="114.679" text-anchor="end">z:131</text>
<text class="label label-inv" x="786.482" y="114.679">BOVENKOP</text>
<rect class="text-frame" x="36.85" y="102.85" width="56.958" height="15.821" />
<rect class="label-bg" x="43.80799999999999" y="104.67099999999999" width="50" height="14" />
<text class="z-index" x="39.80799999999999" y="114.67099999999999" text-anchor="end">z:133</text>
<text class="label label-inv" x="89.80799999999999" y="114.67099999999999">SPECIAL</text>
<rect class="text-frame" x="37.003" y="297.85" width="141.579" height="27.933" />
<rect class="label-bg" x="134.582" y="311.783" width="44" height="14" />
<text class="z-index" x="130.582" y="321.783" text-anchor="end">z:134</text>
<text class="label label-inv" x="174.582" y="321.783">PLAATS</text>
<rect class="text-frame" x="36.85" y="278.85" width="141.732" height="40.237" />
<rect class="label-bg" x="134.582" y="305.08700000000005" width="44" height="14" />
<text class="z-index" x="130.582" y="315.08700000000005" text-anchor="end">z:135</text>
<text class="label label-inv" x="174.582" y="315.08700000000005">AUTEUR</text>
<rect class="text-frame" x="36.85" y="190.85" width="141.656" height="102.865" />
<rect class="label-bg" x="140.506" y="279.715" width="38" height="14" />
<text class="z-index" x="136.506" y="289.715" text-anchor="end">z:136</text>
<text class="label label-inv" x="174.506" y="289.715">INTRO</text>
</g>
</svg>