<svg xmlns="http://www.w3.org/2000/svg" width="794.316" height="1098.394" viewBox="16.85 60.849999999999994 794.316 1098.394">
<style>
    .page { fill: #fff; stroke: #ccc; }
    .margin { fill: none; stroke: #aaa; stroke-dasharray: 4 2; }
    .column { fill: none; stroke: #ddd; }
    .grid { stroke: #eee; stroke-width: 0.5; }

    .text-frame { fill: rgba(0,0,255,0.08); stroke: #00f; }
    .image-frame { fill: rgba(255,165,0,0.15); stroke: #f90; }

    .frame-id { 
        font-size: 7px; 
        fill: #666;
    }
    
    .thread {
        fill: none;
        stroke: #888;
        stroke-dasharray: 3 3;
        stroke-width: 1;
    }

    .label {
        font-size: 9px;
        font-family: monospace;
    }

    .snippet {
        font-size: 12px;
        font-family: Inter, system-ui, -apple-system, Segoe UI, Roboto, Arial, sans-serif;
        fill: #111;
    }

    .label-bg {
        fill: #000;
        opacity: 0.75;
    }

    .label-inv {
        fill: #fff;
        text-anchor: end;
    }

    .z-index { 
        font-size: 7px; 
        fill: #333;
        text-anchor: end;
        paint-order: stroke fill;
        stroke: white;
        stroke-width: 2;
        stroke-linejoin: round;
    }

    .distance {
        stroke: red;
        stroke-width: 2.5;
        fill: none;
    }

    .edge-ghost {
        stroke: rgba(200, 0, 0, 0.4);
        stroke-width: 1.5;
        stroke-dasharray: 6 3;
        fill: none;
    }

    .arrowhead {
        fill: red;
    }
    
    .fender-zone {
        fill: url(#fender-hatch);
        stroke: none;
    }

    .fender-edge {
        stroke: #0891b2;
        stroke-width: 2;
        fill: none;
    }
</style>
<defs>
    <pattern id="baseline-grid" patternUnits="userSpaceOnUse" width="100%" height="11">
        <line x1="0" y1="0" x2="100%" y2="0" class="grid" />
    </pattern>
    <pattern id="checkerboard" patternUnits="userSpaceOnUse" width="20" height="20">
        <rect width="20" height="20" fill="#e8e8e8" stroke="none"/>
        <rect width="10" height="10" fill="#ffffff" stroke="none"/>
        <rect x="10" y="10" width="10" height="10" fill="#ffffff" stroke="none"/>
    </pattern>
    <pattern id="fender-hatch" patternUnits="userSpaceOnUse" width="8" height="8" patternTransform="rotate(45)">
        <line x1="0" y1="0" x2="0" y2="8" stroke="#0891b2" stroke-width="1.2" stroke-opacity="0.5" />
    </pattern>
</defs>


<g id="article">

<rect class="text-frame" x="36.85" y="102.85" width="754.016" height="22" />
<rect class="label-bg" x="734.866" y="110.85" width="56" height="14" />
<text class="z-index" x="730.866" y="120.85" text-anchor="end">z:157</text>
<text class="label label-inv" x="786.866" y="120.85">BOVENKOP</text>
<rect class="text-frame" x="36.85" y="138.85" width="754.016" height="140" />
<rect class="label-bg" x="764.866" y="264.85" width="26" height="14" />
<text class="z-index" x="760.866" y="274.85" text-anchor="end">z:158</text>
<text class="label label-inv" x="786.866" y="274.85">KOP</text>
<rect class="text-frame" x="36.85" y="282.047" width="754.016" height="857.197" />
<rect class="label-bg" x="752.866" y="1125.2440000000001" width="38" height="14" />
<text class="z-index" x="748.866" y="1135.2440000000001" text-anchor="end">z:159</text>
<text class="label label-inv" x="786.866" y="1135.2440000000001">TEKST</text>
<rect class="image-frame" x="189.921" y="282.047" width="447.874" height="651.803" />
<rect class="label-bg" x="599.7950000000001" y="919.85" width="38" height="14" />
<text class="z-index" x="595.7950000000001" y="929.85" text-anchor="end">z:160</text>
<text class="label label-inv" x="633.7950000000001" y="929.85">image</text>
<rect class="text-frame" x="189.921" y="938.85" width="447.874" height="22" />
<rect class="label-bg" x="569.7950000000001" y="946.85" width="68" height="14" />
<text class="z-index" x="565.7950000000001" y="956.85" text-anchor="end">z:161</text>
<text class="label label-inv" x="633.7950000000001" y="956.85">BIJSCHRIFT</text>
<rect class="text-frame" x="342.992" y="960.85" width="141.732" height="176" />
<rect class="label-bg" x="446.72400000000005" y="1122.85" width="38" height="14" />
<text class="z-index" x="442.72400000000005" y="1132.85" text-anchor="end">z:162</text>
<text class="label label-inv" x="480.72400000000005" y="1132.85">QUOTE</text>
<rect class="text-frame" x="649.434" y="498.85" width="141.732" height="11" />
<rect class="label-bg" x="723.1659999999999" y="495.85" width="68" height="14" />
<text class="z-index" x="719.1659999999999" y="505.85" text-anchor="end">z:163</text>
<text class="label label-inv" x="787.1659999999999" y="505.85">BIJSCHRIFT</text>
<rect class="image-frame" x="649.434" y="282.047" width="141.732" height="213.99" />
<rect class="label-bg" x="753.1659999999999" y="482.03700000000003" width="38" height="14" />
<text class="z-index" x="749.1659999999999" y="492.03700000000003" text-anchor="end">z:164</text>
<text class="label label-inv" x="787.1659999999999" y="492.03700000000003">image</text>
<rect class="text-frame" x="37.003" y="484.879" width="141.579" height="60.904" />
<rect class="label-bg" x="134.582" y="531.783" width="44" height="14" />
<text class="z-index" x="130.582" y="541.783" text-anchor="end">z:165</text>
<text class="label label-inv" x="174.582" y="541.783">PLAATS</text>
<rect class="text-frame" x="36.85" y="465.879" width="141.732" height="73.208" />
<rect class="label-bg" x="134.582" y="525.087" width="44" height="14" />
<text class="z-index" x="130.582" y="535.087" text-anchor="end">z:166</text>
<text class="label label-inv" x="174.582" y="535.087">AUTEUR</text>
<rect class="text-frame" x="36.85" y="282.047" width="141.732" height="230.725" />
<rect class="label-bg" x="140.582" y="498.77200000000005" width="38" height="14" />
<text class="z-index" x="136.582" y="508.77200000000005" text-anchor="end">z:167</text>
<text class="label label-inv" x="174.582" y="508.77200000000005">INTRO</text>
</g>
</svg>