<svg xmlns="http://www.w3.org/2000/svg" width="334.803" height="801.748" viewBox="827.559 60.849999999999994 334.803 801.748">
<style>
    .page { fill: #fff; stroke: #ccc; }
    .margin { fill: none; stroke: #aaa; stroke-dasharray: 4 2; }
    .column { fill: none; stroke: #ddd; }
    .grid { stroke: #eee; stroke-width: 0.5; }

    .text-frame { fill: rgba(0,0,255,0.08); stroke: #00f; }
    .image-frame { fill: rgba(255,165,0,0.15); stroke: #f90; }

    .frame-id { 
        font-size: 7px; 
        fill: #666;
    }
    
    .thread {
        fill: none;
        stroke: #888;
        stroke-dasharray: 3 3;
        stroke-width: 1;
    }

    .label {
        font-size: 9px;
        font-family: monospace;
    }

    .snippet {
        font-size: 12px;
        font-family: Inter, system-ui, -apple-system, Segoe UI, Roboto, Arial, sans-serif;
        fill: #111;
    }

    .label-bg {
        fill: #000;
        opacity: 0.75;
    }

    .label-inv {
        fill: #fff;
        text-anchor: end;
    }

    .z-index { 
        font-size: 7px; 
        fill: #333;
        text-anchor: end;
        paint-order: stroke fill;
        stroke: white;
        stroke-width: 2;
        stroke-linejoin: round;
    }

    .distance {
        stroke: red;
        stroke-width: 2.5;
        fill: none;
    }

    .edge-ghost {
        stroke: rgba(200, 0, 0, 0.4);
        stroke-width: 1.5;
        stroke-dasharray: 6 3;
        fill: none;
    }

    .arrowhead {
        fill: red;
    }
    
    .fender-zone {
        fill: url(#fender-hatch);
        stroke: none;
    }

    .fender-edge {
        stroke: #0891b2;
        stroke-width: 2;
        fill: none;
    }
</style>
<defs>
    <pattern id="baseline-grid" patternUnits="userSpaceOnUse" width="100%" height="11">
        <line x1="0" y1="0" x2="100%" y2="0" class="grid" />
    </pattern>
    <pattern id="checkerboard" patternUnits="userSpaceOnUse" width="20" height="20">
        <rect width="20" height="20" fill="#e8e8e8" stroke="none"/>
        <rect width="10" height="10" fill="#ffffff" stroke="none"/>
        <rect x="10" y="10" width="10" height="10" fill="#ffffff" stroke="none"/>
    </pattern>
    <pattern id="fender-hatch" patternUnits="userSpaceOnUse" width="8" height="8" patternTransform="rotate(45)">
        <line x1="0" y1="0" x2="0" y2="8" stroke="#0891b2" stroke-width="1.2" stroke-opacity="0.5" />
    </pattern>
</defs>


<g id="article">
<line class="thread" x1="989.2909999999999" y1="842.598" x2="1000.48" y2="454.85" />
<rect class="text-frame" x="847.559" y="355.05499999999995" width="294.803" height="99" />
<rect class="label-bg" x="1116.362" y="440.05499999999995" width="26" height="14" />
<text class="z-index" x="1112.362" y="450.05499999999995" text-anchor="end">z:439</text>
<text class="label label-inv" x="1138.362" y="450.05499999999995">KOP</text>
<rect class="text-frame" x="847.559" y="322.85" width="294.803" height="22" />
<rect class="label-bg" x="1074.362" y="330.85" width="68" height="14" />
<text class="z-index" x="1070.362" y="340.85" text-anchor="end">z:440</text>
<text class="label label-inv" x="1138.362" y="340.85">BIJSCHRIFT</text>
<rect class="image-frame" x="847.559" y="102.85" width="294.803" height="214.402" />
<rect class="label-bg" x="1104.362" y="303.25199999999995" width="38" height="14" />
<text class="z-index" x="1100.362" y="313.25199999999995" text-anchor="end">z:441</text>
<text class="label label-inv" x="1138.362" y="313.25199999999995">image</text>
<rect class="text-frame" x="847.559" y="575.85" width="141.732" height="266.748" />
<rect class="label-bg" x="951.2909999999999" y="828.598" width="38" height="14" />
<text class="z-index" x="947.2909999999999" y="838.598" text-anchor="end">z:442</text>
<text class="label label-inv" x="985.2909999999999" y="838.598">TEKST</text>
<rect class="text-frame" x="1000.48" y="454.85" width="141.732" height="387.748" />
<rect class="label-bg" x="1104.212" y="828.598" width="38" height="14" />
<text class="z-index" x="1100.212" y="838.598" text-anchor="end">z:443</text>
<text class="label label-inv" x="1138.212" y="838.598">TEKST</text>
<rect class="text-frame" x="1000.48" y="575.85" width="141.732" height="110" />
<rect class="label-bg" x="1104.212" y="671.85" width="38" height="14" />
<text class="z-index" x="1100.212" y="681.85" text-anchor="end">z:444</text>
<text class="label label-inv" x="1138.212" y="681.85">QUOTE</text>
<rect class="text-frame" x="847.559" y="550.85" width="141.579" height="16.933" />
<rect class="label-bg" x="945.1379999999999" y="553.783" width="44" height="14" />
<text class="z-index" x="941.1379999999999" y="563.783" text-anchor="end">z:445</text>
<text class="label label-inv" x="985.1379999999999" y="563.783">PLAATS</text>
<rect class="text-frame" x="847.559" y="531.85" width="141.732" height="29.237" />
<rect class="label-bg" x="945.2909999999999" y="547.087" width="44" height="14" />
<text class="z-index" x="941.2909999999999" y="557.087" text-anchor="end">z:446</text>
<text class="label label-inv" x="985.2909999999999" y="557.087">AUTEUR</text>
<rect class="text-frame" x="847.559" y="454.85" width="141.656" height="77" />
<rect class="label-bg" x="951.2149999999999" y="517.85" width="38" height="14" />
<text class="z-index" x="947.2149999999999" y="527.85" text-anchor="end">z:447</text>
<text class="label label-inv" x="985.2149999999999" y="527.85">INTRO</text>
</g>
</svg>