<svg xmlns="http://www.w3.org/2000/svg" width="794.016" height="801.843" viewBox="8.346 60.849999999999994 794.016 801.843">
<style>
    .page { fill: #fff; stroke: #ccc; }
    .margin { fill: none; stroke: #aaa; stroke-dasharray: 4 2; }
    .column { fill: none; stroke: #ddd; }
    .grid { stroke: #eee; stroke-width: 0.5; }

    .text-frame { fill: rgba(0,0,255,0.08); stroke: #00f; }
    .image-frame { fill: rgba(255,165,0,0.15); stroke: #f90; }

    .frame-id { 
        font-size: 7px; 
        fill: #666;
    }
    
    .thread {
        fill: none;
        stroke: #888;
        stroke-dasharray: 3 3;
        stroke-width: 1;
    }

    .label {
        font-size: 9px;
        font-family: monospace;
    }

    .snippet {
        font-size: 12px;
        font-family: Inter, system-ui, -apple-system, Segoe UI, Roboto, Arial, sans-serif;
        fill: #111;
    }

    .label-bg {
        fill: #000;
        opacity: 0.75;
    }

    .label-inv {
        fill: #fff;
        text-anchor: end;
    }

    .z-index { 
        font-size: 7px; 
        fill: #333;
        text-anchor: end;
        paint-order: stroke fill;
        stroke: white;
        stroke-width: 2;
        stroke-linejoin: round;
    }

    .distance {
        stroke: red;
        stroke-width: 2.5;
        fill: none;
    }

    .edge-ghost {
        stroke: rgba(200, 0, 0, 0.4);
        stroke-width: 1.5;
        stroke-dasharray: 6 3;
        fill: none;
    }

    .arrowhead {
        fill: red;
    }
    
    .fender-zone {
        fill: url(#fender-hatch);
        stroke: none;
    }

    .fender-edge {
        stroke: #0891b2;
        stroke-width: 2;
        fill: none;
    }
</style>
<defs>
    <pattern id="baseline-grid" patternUnits="userSpaceOnUse" width="100%" height="11">
        <line x1="0" y1="0" x2="100%" y2="0" class="grid" />
    </pattern>
    <pattern id="checkerboard" patternUnits="userSpaceOnUse" width="20" height="20">
        <rect width="20" height="20" fill="#e8e8e8" stroke="none"/>
        <rect width="10" height="10" fill="#ffffff" stroke="none"/>
        <rect x="10" y="10" width="10" height="10" fill="#ffffff" stroke="none"/>
    </pattern>
    <pattern id="fender-hatch" patternUnits="userSpaceOnUse" width="8" height="8" patternTransform="rotate(45)">
        <line x1="0" y1="0" x2="0" y2="8" stroke="#0891b2" stroke-width="1.2" stroke-opacity="0.5" />
    </pattern>
</defs>


<g id="article">
<line class="thread" x1="509.021" y1="842.693" x2="629.696" y2="267.85" />
<rect class="text-frame" x="28.346" y="498.85" width="480.675" height="343.843" />
<rect class="label-bg" x="471.021" y="828.693" width="38" height="14" />
<text class="z-index" x="467.021" y="838.693" text-anchor="end">z:403</text>
<text class="label label-inv" x="505.021" y="838.693">TEKST</text>
<rect class="text-frame" x="28.346" y="135.85" width="754.016" height="121" />
<rect class="label-bg" x="756.362" y="242.85000000000002" width="26" height="14" />
<text class="z-index" x="752.362" y="252.85000000000002" text-anchor="end">z:408</text>
<text class="label label-inv" x="778.362" y="252.85000000000002">KOP</text>
<rect class="text-frame" x="28.346" y="102.85" width="754.016" height="15.821" />
<rect class="label-bg" x="726.362" y="104.67099999999999" width="56" height="14" />
<text class="z-index" x="722.362" y="114.67099999999999" text-anchor="end">z:409</text>
<text class="label label-inv" x="778.362" y="114.67099999999999">BOVENKOP</text>
<rect class="text-frame" x="28.346" y="102.85" width="57.21" height="15.821" />
<rect class="label-bg" x="35.556" y="104.67099999999999" width="50" height="14" />
<text class="z-index" x="31.555999999999997" y="114.67099999999999" text-anchor="end">z:410</text>
<text class="label label-inv" x="81.556" y="114.67099999999999">SPECIAL</text>
<rect class="text-frame" x="520.36" y="575.85" width="97.998" height="99" />
<rect class="label-bg" x="550.3580000000001" y="660.85" width="68" height="14" />
<text class="z-index" x="546.3580000000001" y="670.85" text-anchor="end">z:411</text>
<text class="label label-inv" x="614.3580000000001" y="670.85">BIJSCHRIFT</text>
<rect class="text-frame" x="629.696" y="267.85" width="152.666" height="574.843" />
<rect class="label-bg" x="744.3620000000001" y="828.693" width="38" height="14" />
<text class="z-index" x="740.3620000000001" y="838.693" text-anchor="end">z:412</text>
<text class="label label-inv" x="778.3620000000001" y="838.693">TEKST</text>
<rect class="text-frame" x="520.36" y="734.826" width="97.998" height="107.868" />
<rect class="label-bg" x="580.3580000000001" y="828.694" width="38" height="14" />
<text class="z-index" x="576.3580000000001" y="838.694" text-anchor="end">z:413</text>
<text class="label label-inv" x="614.3580000000001" y="838.694">QUOTE</text>
<rect class="image-frame" x="192.34" y="272.59799999999996" width="425.992" height="286.252" />
<rect class="label-bg" x="580.332" y="544.8499999999999" width="38" height="14" />
<text class="z-index" x="576.332" y="554.8499999999999" text-anchor="end">z:414</text>
<text class="label label-inv" x="614.332" y="554.8499999999999">image</text>
<rect class="text-frame" x="28.511" y="473.879" width="152.366" height="27.904" />
<rect class="label-bg" x="136.877" y="487.783" width="44" height="14" />
<text class="z-index" x="132.877" y="497.783" text-anchor="end">z:415</text>
<text class="label label-inv" x="176.877" y="497.783">PLAATS</text>
<rect class="text-frame" x="28.346" y="454.879" width="152.531" height="40.208" />
<rect class="label-bg" x="136.877" y="481.087" width="44" height="14" />
<text class="z-index" x="132.877" y="491.087" text-anchor="end">z:416</text>
<text class="label label-inv" x="176.877" y="491.087">AUTEUR</text>
<rect class="text-frame" x="28.346" y="267.85" width="152.531" height="194.725" />
<rect class="label-bg" x="142.877" y="448.57500000000005" width="38" height="14" />
<text class="z-index" x="138.877" y="458.57500000000005" text-anchor="end">z:417</text>
<text class="label label-inv" x="176.877" y="458.57500000000005">INTRO</text>
</g>
</svg>