<svg xmlns="http://www.w3.org/2000/svg" width="794.016" height="1096" viewBox="16.85 60.849999999999994 794.016 1096">
<style>
    .page { fill: #fff; stroke: #ccc; }
    .margin { fill: none; stroke: #aaa; stroke-dasharray: 4 2; }
    .column { fill: none; stroke: #ddd; }
    .grid { stroke: #eee; stroke-width: 0.5; }

    .text-frame { fill: rgba(0,0,255,0.08); stroke: #00f; }
    .image-frame { fill: rgba(255,165,0,0.15); stroke: #f90; }

    .frame-id { 
        font-size: 7px; 
        fill: #666;
    }
    
    .thread {
        fill: none;
        stroke: #888;
        stroke-dasharray: 3 3;
        stroke-width: 1;
    }

    .label {
        font-size: 9px;
        font-family: monospace;
    }

    .snippet {
        font-size: 12px;
        font-family: Inter, system-ui, -apple-system, Segoe UI, Roboto, Arial, sans-serif;
        fill: #111;
    }

    .label-bg {
        fill: #000;
        opacity: 0.75;
    }

    .label-inv {
        fill: #fff;
        text-anchor: end;
    }

    .z-index { 
        font-size: 7px; 
        fill: #333;
        text-anchor: end;
        paint-order: stroke fill;
        stroke: white;
        stroke-width: 2;
        stroke-linejoin: round;
    }

    .distance {
        stroke: red;
        stroke-width: 2.5;
        fill: none;
    }

    .edge-ghost {
        stroke: rgba(200, 0, 0, 0.4);
        stroke-width: 1.5;
        stroke-dasharray: 6 3;
        fill: none;
    }

    .arrowhead {
        fill: red;
    }
    
    .fender-zone {
        fill: url(#fender-hatch);
        stroke: none;
    }

    .fender-edge {
        stroke: #0891b2;
        stroke-width: 2;
        fill: none;
    }
</style>
<defs>
    <pattern id="baseline-grid" patternUnits="userSpaceOnUse" width="100%" height="11">
        <line x1="0" y1="0" x2="100%" y2="0" class="grid" />
    </pattern>
    <pattern id="checkerboard" patternUnits="userSpaceOnUse" width="20" height="20">
        <rect width="20" height="20" fill="#e8e8e8" stroke="none"/>
        <rect width="10" height="10" fill="#ffffff" stroke="none"/>
        <rect x="10" y="10" width="10" height="10" fill="#ffffff" stroke="none"/>
    </pattern>
    <pattern id="fender-hatch" patternUnits="userSpaceOnUse" width="8" height="8" patternTransform="rotate(45)">
        <line x1="0" y1="0" x2="0" y2="8" stroke="#0891b2" stroke-width="1.2" stroke-opacity="0.5" />
    </pattern>
</defs>


<g id="article">
<line class="thread" x1="517.525" y1="1136.85" x2="638.2" y2="806.85" />
<rect class="text-frame" x="36.85" y="806.85" width="480.675" height="330" />
<rect class="label-bg" x="479.525" y="1122.85" width="38" height="14" />
<text class="z-index" x="475.525" y="1132.85" text-anchor="end">z:559</text>
<text class="label label-inv" x="513.525" y="1132.85">TEKST</text>
<rect class="text-frame" x="36.85" y="674.85" width="754.016" height="132" />
<rect class="label-bg" x="764.866" y="792.85" width="26" height="14" />
<text class="z-index" x="760.866" y="802.85" text-anchor="end">z:560</text>
<text class="label label-inv" x="786.866" y="802.85">KOP</text>
<rect class="text-frame" x="36.85" y="102.85" width="754.016" height="15.821" />
<rect class="label-bg" x="734.866" y="104.67099999999999" width="56" height="14" />
<text class="z-index" x="730.866" y="114.67099999999999" text-anchor="end">z:561</text>
<text class="label label-inv" x="786.866" y="114.67099999999999">BOVENKOP</text>
<rect class="text-frame" x="37" y="102.85" width="57.22" height="15.821" />
<rect class="label-bg" x="44.22" y="104.67099999999999" width="50" height="14" />
<text class="z-index" x="40.22" y="114.67099999999999" text-anchor="end">z:562</text>
<text class="label label-inv" x="90.22" y="114.67099999999999">SPECIAL</text>
<rect class="text-frame" x="36.85" y="641.85" width="754.016" height="11" />
<rect class="label-bg" x="722.866" y="638.85" width="68" height="14" />
<text class="z-index" x="718.866" y="648.85" text-anchor="end">z:563</text>
<text class="label label-inv" x="786.866" y="648.85">BIJSCHRIFT</text>
<rect class="image-frame" x="36.85" y="135.85" width="754.016" height="500.926" />
<rect class="label-bg" x="752.866" y="622.776" width="38" height="14" />
<text class="z-index" x="748.866" y="632.776" text-anchor="end">z:564</text>
<text class="label label-inv" x="786.866" y="632.776">image</text>
<rect class="text-frame" x="638.2" y="806.85" width="152.666" height="330" />
<rect class="label-bg" x="752.866" y="1122.85" width="38" height="14" />
<text class="z-index" x="748.866" y="1132.85" text-anchor="end">z:565</text>
<text class="label label-inv" x="786.866" y="1132.85">TEKST</text>
<rect class="text-frame" x="528.864" y="872.85" width="97.998" height="154" />
<rect class="label-bg" x="588.8620000000001" y="1012.8499999999999" width="38" height="14" />
<text class="z-index" x="584.8620000000001" y="1022.8499999999999" text-anchor="end">z:566</text>
<text class="label label-inv" x="622.8620000000001" y="1022.8499999999999">QUOTE</text>
<rect class="text-frame" x="37.003" y="891.85" width="141.579" height="6.696" />
<rect class="label-bg" x="134.582" y="884.546" width="44" height="14" />
<text class="z-index" x="130.582" y="894.546" text-anchor="end">z:567</text>
<text class="label label-inv" x="174.582" y="894.546">PLAATS</text>
<rect class="text-frame" x="36.85" y="872.85" width="141.732" height="18.237" />
<rect class="label-bg" x="134.582" y="877.087" width="44" height="14" />
<text class="z-index" x="130.582" y="887.087" text-anchor="end">z:568</text>
<text class="label label-inv" x="174.582" y="887.087">AUTEUR</text>
<rect class="text-frame" x="36.85" y="806.85" width="480.675" height="50.725" />
<rect class="label-bg" x="479.525" y="843.575" width="38" height="14" />
<text class="z-index" x="475.525" y="853.575" text-anchor="end">z:569</text>
<text class="label label-inv" x="513.525" y="853.575">INTRO</text>
</g>
</svg>