<svg xmlns="http://www.w3.org/2000/svg" width="640.945" height="1096" viewBox="16.85 60.849999999999994 640.945 1096">
<style>
    .page { fill: #fff; stroke: #ccc; }
    .margin { fill: none; stroke: #aaa; stroke-dasharray: 4 2; }
    .column { fill: none; stroke: #ddd; }
    .grid { stroke: #eee; stroke-width: 0.5; }

    .text-frame { fill: rgba(0,0,255,0.08); stroke: #00f; }
    .image-frame { fill: rgba(255,165,0,0.15); stroke: #f90; }

    .frame-id { 
        font-size: 7px; 
        fill: #666;
    }
    
    .thread {
        fill: none;
        stroke: #888;
        stroke-dasharray: 3 3;
        stroke-width: 1;
    }

    .label {
        font-size: 9px;
        font-family: monospace;
    }

    .snippet {
        font-size: 12px;
        font-family: Inter, system-ui, -apple-system, Segoe UI, Roboto, Arial, sans-serif;
        fill: #111;
    }

    .label-bg {
        fill: #000;
        opacity: 0.75;
    }

    .label-inv {
        fill: #fff;
        text-anchor: end;
    }

    .z-index { 
        font-size: 7px; 
        fill: #333;
        text-anchor: end;
        paint-order: stroke fill;
        stroke: white;
        stroke-width: 2;
        stroke-linejoin: round;
    }

    .distance {
        stroke: red;
        stroke-width: 2.5;
        fill: none;
    }

    .edge-ghost {
        stroke: rgba(200, 0, 0, 0.4);
        stroke-width: 1.5;
        stroke-dasharray: 6 3;
        fill: none;
    }

    .arrowhead {
        fill: red;
    }
    
    .fender-zone {
        fill: url(#fender-hatch);
        stroke: none;
    }

    .fender-edge {
        stroke: #0891b2;
        stroke-width: 2;
        fill: none;
    }
</style>
<defs>
    <pattern id="baseline-grid" patternUnits="userSpaceOnUse" width="100%" height="11">
        <line x1="0" y1="0" x2="100%" y2="0" class="grid" />
    </pattern>
    <pattern id="checkerboard" patternUnits="userSpaceOnUse" width="20" height="20">
        <rect width="20" height="20" fill="#e8e8e8" stroke="none"/>
        <rect width="10" height="10" fill="#ffffff" stroke="none"/>
        <rect x="10" y="10" width="10" height="10" fill="#ffffff" stroke="none"/>
    </pattern>
    <pattern id="fender-hatch" patternUnits="userSpaceOnUse" width="8" height="8" patternTransform="rotate(45)">
        <line x1="0" y1="0" x2="0" y2="8" stroke="#0891b2" stroke-width="1.2" stroke-opacity="0.5" />
    </pattern>
</defs>


<g id="article">

<rect class="text-frame" x="36.85" y="102.85" width="589.606" height="22" />
<rect class="label-bg" x="570.456" y="110.85" width="56" height="14" />
<text class="z-index" x="566.456" y="120.85" text-anchor="end">z:624</text>
<text class="label label-inv" x="622.456" y="120.85">BOVENKOP</text>
<rect class="text-frame" x="36.85" y="531.85" width="589.606" height="120.995" />
<rect class="label-bg" x="600.456" y="638.845" width="26" height="14" />
<text class="z-index" x="596.456" y="648.845" text-anchor="end">z:625</text>
<text class="label label-inv" x="622.456" y="648.845">KOP</text>
<rect class="text-frame" x="36.85" y="509.85" width="589.606" height="15.821" />
<rect class="label-bg" x="558.456" y="511.67100000000005" width="68" height="14" />
<text class="z-index" x="554.456" y="521.671" text-anchor="end">z:626</text>
<text class="label label-inv" x="622.456" y="521.671">BIJSCHRIFT</text>
<rect class="image-frame" x="36.85" y="135.85" width="589.606" height="368.591" />
<rect class="label-bg" x="588.456" y="490.44100000000003" width="38" height="14" />
<text class="z-index" x="584.456" y="500.44100000000003" text-anchor="end">z:627</text>
<text class="label label-inv" x="622.456" y="500.44100000000003">image</text>
<rect class="text-frame" x="36.85" y="663.85" width="589.456" height="473" />
<rect class="label-bg" x="588.306" y="1122.85" width="38" height="14" />
<text class="z-index" x="584.306" y="1132.85" text-anchor="end">z:628</text>
<text class="label label-inv" x="622.306" y="1132.85">TEKST</text>
<rect class="text-frame" x="337.24800000000005" y="872.85" width="138.86" height="110" />
<rect class="label-bg" x="438.10800000000006" y="968.85" width="38" height="14" />
<text class="z-index" x="434.10800000000006" y="978.85" text-anchor="end">z:629</text>
<text class="label label-inv" x="472.10800000000006" y="978.85">QUOTE</text>
<rect class="text-frame" x="37.154" y="759.85" width="138.819" height="6.696" />
<rect class="label-bg" x="131.97299999999998" y="752.546" width="44" height="14" />
<text class="z-index" x="127.97299999999998" y="762.546" text-anchor="end">z:630</text>
<text class="label label-inv" x="171.97299999999998" y="762.546">PLAATS</text>
<rect class="text-frame" x="37.003" y="740.85" width="138.969" height="18.237" />
<rect class="label-bg" x="131.97199999999998" y="745.087" width="44" height="14" />
<text class="z-index" x="127.97199999999998" y="755.087" text-anchor="end">z:631</text>
<text class="label label-inv" x="171.97199999999998" y="755.087">AUTEUR</text>
<rect class="text-frame" x="37.003" y="663.85" width="288.906" height="68.725" />
<rect class="label-bg" x="287.909" y="718.575" width="38" height="14" />
<text class="z-index" x="283.909" y="728.575" text-anchor="end">z:632</text>
<text class="label label-inv" x="321.909" y="728.575">INTRO</text>
</g>
</svg>