<svg xmlns="http://www.w3.org/2000/svg" width="794.016" height="1098.961" viewBox="16.85 60.849999999999994 794.016 1098.961">
<style>
    .page { fill: #fff; stroke: #ccc; }
    .margin { fill: none; stroke: #aaa; stroke-dasharray: 4 2; }
    .column { fill: none; stroke: #ddd; }
    .grid { stroke: #eee; stroke-width: 0.5; }

    .text-frame { fill: rgba(0,0,255,0.08); stroke: #00f; }
    .image-frame { fill: rgba(255,165,0,0.15); stroke: #f90; }

    .frame-id { 
        font-size: 7px; 
        fill: #666;
    }
    
    .thread {
        fill: none;
        stroke: #888;
        stroke-dasharray: 3 3;
        stroke-width: 1;
    }

    .label {
        font-size: 9px;
        font-family: monospace;
    }

    .snippet {
        font-size: 12px;
        font-family: Inter, system-ui, -apple-system, Segoe UI, Roboto, Arial, sans-serif;
        fill: #111;
    }

    .label-bg {
        fill: #000;
        opacity: 0.75;
    }

    .label-inv {
        fill: #fff;
        text-anchor: end;
    }

    .z-index { 
        font-size: 7px; 
        fill: #333;
        text-anchor: end;
        paint-order: stroke fill;
        stroke: white;
        stroke-width: 2;
        stroke-linejoin: round;
    }

    .distance {
        stroke: red;
        stroke-width: 2.5;
        fill: none;
    }

    .edge-ghost {
        stroke: rgba(200, 0, 0, 0.4);
        stroke-width: 1.5;
        stroke-dasharray: 6 3;
        fill: none;
    }

    .arrowhead {
        fill: red;
    }
    
    .fender-zone {
        fill: url(#fender-hatch);
        stroke: none;
    }

    .fender-edge {
        stroke: #0891b2;
        stroke-width: 2;
        fill: none;
    }
</style>
<defs>
    <pattern id="baseline-grid" patternUnits="userSpaceOnUse" width="100%" height="11">
        <line x1="0" y1="0" x2="100%" y2="0" class="grid" />
    </pattern>
    <pattern id="checkerboard" patternUnits="userSpaceOnUse" width="20" height="20">
        <rect width="20" height="20" fill="#e8e8e8" stroke="none"/>
        <rect width="10" height="10" fill="#ffffff" stroke="none"/>
        <rect x="10" y="10" width="10" height="10" fill="#ffffff" stroke="none"/>
    </pattern>
    <pattern id="fender-hatch" patternUnits="userSpaceOnUse" width="8" height="8" patternTransform="rotate(45)">
        <line x1="0" y1="0" x2="0" y2="8" stroke="#0891b2" stroke-width="1.2" stroke-opacity="0.5" />
    </pattern>
</defs>


<g id="article">
<line class="thread" x1="517.525" y1="1139.8110000000001" x2="638.2" y2="267.85" />
<rect class="text-frame" x="36.85" y="102.85" width="754.016" height="22" />
<rect class="label-bg" x="734.866" y="110.85" width="56" height="14" />
<text class="z-index" x="730.866" y="120.85" text-anchor="end">z:203</text>
<text class="label label-inv" x="786.866" y="120.85">BOVENKOP</text>
<rect class="text-frame" x="36.85" y="135.85" width="754.016" height="132" />
<rect class="label-bg" x="764.866" y="253.85000000000002" width="26" height="14" />
<text class="z-index" x="760.866" y="263.85" text-anchor="end">z:204</text>
<text class="label label-inv" x="786.866" y="263.85">KOP</text>
<rect class="text-frame" x="36.85" y="465.85" width="480.675" height="673.961" />
<rect class="label-bg" x="479.525" y="1125.8110000000001" width="38" height="14" />
<text class="z-index" x="475.525" y="1135.8110000000001" text-anchor="end">z:205</text>
<text class="label label-inv" x="513.525" y="1135.8110000000001">TEKST</text>
<rect class="image-frame" x="200.855" y="271.85" width="426.007" height="639.827" />
<rect class="label-bg" x="588.862" y="897.677" width="38" height="14" />
<text class="z-index" x="584.862" y="907.677" text-anchor="end">z:206</text>
<text class="label label-inv" x="622.862" y="907.677">image</text>
<rect class="text-frame" x="528.864" y="916.85" width="97.998" height="11" />
<rect class="label-bg" x="558.8620000000001" y="913.85" width="68" height="14" />
<text class="z-index" x="554.8620000000001" y="923.85" text-anchor="end">z:207</text>
<text class="label label-inv" x="622.8620000000001" y="923.85">BIJSCHRIFT</text>
<rect class="text-frame" x="638.2" y="267.85" width="152.666" height="871.961" />
<rect class="label-bg" x="752.866" y="1125.8110000000001" width="38" height="14" />
<text class="z-index" x="748.866" y="1135.8110000000001" text-anchor="end">z:208</text>
<text class="label label-inv" x="786.866" y="1135.8110000000001">TEKST</text>
<rect class="text-frame" x="638.2" y="608.85" width="152.666" height="121" />
<rect class="label-bg" x="752.866" y="715.85" width="38" height="14" />
<text class="z-index" x="748.866" y="725.85" text-anchor="end">z:209</text>
<text class="label label-inv" x="786.866" y="725.85">QUOTE</text>
<rect class="text-frame" x="37.016" y="473.879" width="152.906" height="27.904" />
<rect class="label-bg" x="145.922" y="487.783" width="44" height="14" />
<text class="z-index" x="141.922" y="497.783" text-anchor="end">z:210</text>
<text class="label label-inv" x="185.922" y="497.783">PLAATS</text>
<rect class="text-frame" x="36.85" y="454.879" width="153.071" height="40.208" />
<rect class="label-bg" x="145.921" y="481.087" width="44" height="14" />
<text class="z-index" x="141.921" y="491.087" text-anchor="end">z:211</text>
<text class="label label-inv" x="185.921" y="491.087">AUTEUR</text>
<rect class="text-frame" x="36.85" y="267.85" width="153.071" height="194.725" />
<rect class="label-bg" x="151.921" y="448.57500000000005" width="38" height="14" />
<text class="z-index" x="147.921" y="458.57500000000005" text-anchor="end">z:212</text>
<text class="label label-inv" x="185.921" y="458.57500000000005">INTRO</text>
</g>
</svg>