<svg xmlns="http://www.w3.org/2000/svg" width="1145.512" height="803.367" viewBox="322.992 60.849999999999994 1145.512 803.367">
<style>
    .page { fill: #fff; stroke: #ccc; }
    .margin { fill: none; stroke: #aaa; stroke-dasharray: 4 2; }
    .column { fill: none; stroke: #ddd; }
    .grid { stroke: #eee; stroke-width: 0.5; }

    .text-frame { fill: rgba(0,0,255,0.08); stroke: #00f; }
    .image-frame { fill: rgba(255,165,0,0.15); stroke: #f90; }

    .frame-id { 
        font-size: 7px; 
        fill: #666;
    }
    
    .thread {
        fill: none;
        stroke: #888;
        stroke-dasharray: 3 3;
        stroke-width: 1;
    }

    .label {
        font-size: 9px;
        font-family: monospace;
    }

    .snippet {
        font-size: 12px;
        font-family: Inter, system-ui, -apple-system, Segoe UI, Roboto, Arial, sans-serif;
        fill: #111;
    }

    .label-bg {
        fill: #000;
        opacity: 0.75;
    }

    .label-inv {
        fill: #fff;
        text-anchor: end;
    }

    .z-index { 
        font-size: 7px; 
        fill: #333;
        text-anchor: end;
        paint-order: stroke fill;
        stroke: white;
        stroke-width: 2;
        stroke-linejoin: round;
    }

    .distance {
        stroke: red;
        stroke-width: 2.5;
        fill: none;
    }

    .edge-ghost {
        stroke: rgba(200, 0, 0, 0.4);
        stroke-width: 1.5;
        stroke-dasharray: 6 3;
        fill: none;
    }

    .arrowhead {
        fill: red;
    }
    
    .fender-zone {
        fill: url(#fender-hatch);
        stroke: none;
    }

    .fender-edge {
        stroke: #0891b2;
        stroke-width: 2;
        fill: none;
    }
</style>
<defs>
    <pattern id="baseline-grid" patternUnits="userSpaceOnUse" width="100%" height="11">
        <line x1="0" y1="0" x2="100%" y2="0" class="grid" />
    </pattern>
    <pattern id="checkerboard" patternUnits="userSpaceOnUse" width="20" height="20">
        <rect width="20" height="20" fill="#e8e8e8" stroke="none"/>
        <rect width="10" height="10" fill="#ffffff" stroke="none"/>
        <rect x="10" y="10" width="10" height="10" fill="#ffffff" stroke="none"/>
    </pattern>
    <pattern id="fender-hatch" patternUnits="userSpaceOnUse" width="8" height="8" patternTransform="rotate(45)">
        <line x1="0" y1="0" x2="0" y2="8" stroke="#0891b2" stroke-width="1.2" stroke-opacity="0.5" />
    </pattern>
</defs>


<g id="article">
<line class="thread" x1="790.866" y1="844.216" x2="847.559" y2="201.85" />
<rect class="text-frame" x="354.331" y="454.85" width="436.535" height="389.366" />
<rect class="label-bg" x="752.866" y="830.216" width="38" height="14" />
<text class="z-index" x="748.866" y="840.216" text-anchor="end">z:4</text>
<text class="label label-inv" x="786.866" y="840.216">TEKST</text>
<rect class="text-frame" x="847.559" y="201.85" width="589.606" height="642.366" />
<rect class="label-bg" x="1399.165" y="830.216" width="38" height="14" />
<text class="z-index" x="1395.165" y="840.216" text-anchor="end">z:5</text>
<text class="label label-inv" x="1433.165" y="840.216">TEKST</text>
<rect class="text-frame" x="1148.031" y="696.85" width="138.898" height="44" />
<rect class="label-bg" x="1218.9289999999999" y="726.85" width="68" height="14" />
<text class="z-index" x="1214.9289999999999" y="736.85" text-anchor="end">z:6</text>
<text class="label label-inv" x="1282.9289999999999" y="736.85">BIJSCHRIFT</text>
<rect class="image-frame" x="503.622" y="206.92899999999997" width="783.307" height="483.307" />
<rect class="label-bg" x="1248.929" y="676.236" width="38" height="14" />
<text class="z-index" x="1244.929" y="686.236" text-anchor="end">z:7</text>
<text class="label label-inv" x="1282.929" y="686.236">image</text>
<rect class="text-frame" x="1298.268" y="410.85" width="138.898" height="110" />
<rect class="label-bg" x="1399.166" y="506.85" width="38" height="14" />
<text class="z-index" x="1395.166" y="516.85" text-anchor="end">z:13</text>
<text class="label label-inv" x="1433.166" y="516.85">QUOTE</text>
<rect class="text-frame" x="354.331" y="102.85" width="1082.835" height="22" />
<rect class="label-bg" x="1381.1660000000002" y="110.85" width="56" height="14" />
<text class="z-index" x="1377.1660000000002" y="120.85" text-anchor="end">z:14</text>
<text class="label label-inv" x="1433.1660000000002" y="120.85">BOVENKOP</text>
<rect class="text-frame" x="354.331" y="135.85" width="1082.835" height="55" />
<rect class="label-bg" x="1411.1660000000002" y="176.85" width="26" height="14" />
<text class="z-index" x="1407.1660000000002" y="186.85" text-anchor="end">z:15</text>
<text class="label label-inv" x="1433.1660000000002" y="186.85">KOP</text>
<rect class="text-frame" x="354.331" y="412.275" width="137.804" height="45.508" />
<rect class="label-bg" x="448.135" y="443.78299999999996" width="44" height="14" />
<text class="z-index" x="444.135" y="453.78299999999996" text-anchor="end">z:16</text>
<text class="label label-inv" x="488.135" y="453.78299999999996">PLAATS</text>
<rect class="text-frame" x="354.331" y="393.275" width="137.953" height="57.812" />
<rect class="label-bg" x="448.284" y="437.087" width="44" height="14" />
<text class="z-index" x="444.284" y="447.087" text-anchor="end">z:17</text>
<text class="label label-inv" x="488.284" y="447.087">AUTEUR</text>
<rect class="text-frame" x="354.331" y="206.24599999999998" width="137.953" height="212.725" />
<rect class="label-bg" x="454.284" y="404.971" width="38" height="14" />
<text class="z-index" x="450.284" y="414.971" text-anchor="end">z:18</text>
<text class="label label-inv" x="488.284" y="414.971">INTRO</text>
</g>
</svg>