<svg xmlns="http://www.w3.org/2000/svg" width="487.874" height="1096.724" viewBox="322.992 60.849999999999994 487.874 1096.724">
<style>
    .page { fill: #fff; stroke: #ccc; }
    .margin { fill: none; stroke: #aaa; stroke-dasharray: 4 2; }
    .column { fill: none; stroke: #ddd; }
    .grid { stroke: #eee; stroke-width: 0.5; }

    .text-frame { fill: rgba(0,0,255,0.08); stroke: #00f; }
    .image-frame { fill: rgba(255,165,0,0.15); stroke: #f90; }

    .frame-id { 
        font-size: 7px; 
        fill: #666;
    }
    
    .thread {
        fill: none;
        stroke: #888;
        stroke-dasharray: 3 3;
        stroke-width: 1;
    }

    .label {
        font-size: 9px;
        font-family: monospace;
    }

    .snippet {
        font-size: 12px;
        font-family: Inter, system-ui, -apple-system, Segoe UI, Roboto, Arial, sans-serif;
        fill: #111;
    }

    .label-bg {
        fill: #000;
        opacity: 0.75;
    }

    .label-inv {
        fill: #fff;
        text-anchor: end;
    }

    .z-index { 
        font-size: 7px; 
        fill: #333;
        text-anchor: end;
        paint-order: stroke fill;
        stroke: white;
        stroke-width: 2;
        stroke-linejoin: round;
    }

    .distance {
        stroke: red;
        stroke-width: 2.5;
        fill: none;
    }

    .edge-ghost {
        stroke: rgba(200, 0, 0, 0.4);
        stroke-width: 1.5;
        stroke-dasharray: 6 3;
        fill: none;
    }

    .arrowhead {
        fill: red;
    }
    
    .fender-zone {
        fill: url(#fender-hatch);
        stroke: none;
    }

    .fender-edge {
        stroke: #0891b2;
        stroke-width: 2;
        fill: none;
    }
</style>
<defs>
    <pattern id="baseline-grid" patternUnits="userSpaceOnUse" width="100%" height="11">
        <line x1="0" y1="0" x2="100%" y2="0" class="grid" />
    </pattern>
    <pattern id="checkerboard" patternUnits="userSpaceOnUse" width="20" height="20">
        <rect width="20" height="20" fill="#e8e8e8" stroke="none"/>
        <rect width="10" height="10" fill="#ffffff" stroke="none"/>
        <rect x="10" y="10" width="10" height="10" fill="#ffffff" stroke="none"/>
    </pattern>
    <pattern id="fender-hatch" patternUnits="userSpaceOnUse" width="8" height="8" patternTransform="rotate(45)">
        <line x1="0" y1="0" x2="0" y2="8" stroke="#0891b2" stroke-width="1.2" stroke-opacity="0.5" />
    </pattern>
</defs>


<g id="article">

<rect class="text-frame" x="354.331" y="641.85" width="436.535" height="495.724" />
<rect class="label-bg" x="752.866" y="1123.574" width="38" height="14" />
<text class="z-index" x="748.866" y="1133.574" text-anchor="end">z:800</text>
<text class="label label-inv" x="786.866" y="1133.574">TEKST</text>
<rect class="text-frame" x="354.331" y="102.85" width="436.535" height="22" />
<rect class="label-bg" x="734.866" y="110.85" width="56" height="14" />
<text class="z-index" x="730.866" y="120.85" text-anchor="end">z:801</text>
<text class="label label-inv" x="786.866" y="120.85">BOVENKOP</text>
<rect class="text-frame" x="354.331" y="476.85" width="436.535" height="165" />
<rect class="label-bg" x="764.866" y="627.85" width="26" height="14" />
<text class="z-index" x="760.866" y="637.85" text-anchor="end">z:802</text>
<text class="label label-inv" x="786.866" y="637.85">KOP</text>
<rect class="text-frame" x="354.331" y="443.85" width="436.535" height="22" />
<rect class="label-bg" x="722.866" y="451.85" width="68" height="14" />
<text class="z-index" x="718.866" y="461.85" text-anchor="end">z:803</text>
<text class="label label-inv" x="786.866" y="461.85">BIJSCHRIFT</text>
<rect class="image-frame" x="354.331" y="134.85" width="436.535" height="303.15" />
<rect class="label-bg" x="752.866" y="424" width="38" height="14" />
<text class="z-index" x="748.866" y="434" text-anchor="end">z:804</text>
<text class="label label-inv" x="786.866" y="434">image</text>
<rect class="text-frame" x="503.718" y="839.85" width="137.857" height="121" />
<rect class="label-bg" x="603.575" y="946.85" width="38" height="14" />
<text class="z-index" x="599.575" y="956.85" text-anchor="end">z:805</text>
<text class="label label-inv" x="637.575" y="956.85">QUOTE</text>
<rect class="text-frame" x="354.48" y="748.85" width="137.804" height="27.933" />
<rect class="label-bg" x="448.284" y="762.783" width="44" height="14" />
<text class="z-index" x="444.284" y="772.783" text-anchor="end">z:806</text>
<text class="label label-inv" x="488.284" y="772.783">PLAATS</text>
<rect class="text-frame" x="354.331" y="729.85" width="137.953" height="40.237" />
<rect class="label-bg" x="448.284" y="756.087" width="44" height="14" />
<text class="z-index" x="444.284" y="766.087" text-anchor="end">z:807</text>
<text class="label label-inv" x="488.284" y="766.087">AUTEUR</text>
<rect class="text-frame" x="354.331" y="641.85" width="137.878" height="102.865" />
<rect class="label-bg" x="454.209" y="730.715" width="38" height="14" />
<text class="z-index" x="450.209" y="740.715" text-anchor="end">z:808</text>
<text class="label label-inv" x="488.209" y="740.715">INTRO</text>
</g>
</svg>