<svg xmlns="http://www.w3.org/2000/svg" width="794.724" height="1096" viewBox="16.85 60.849999999999994 794.724 1096">
<style>
    .page { fill: #fff; stroke: #ccc; }
    .margin { fill: none; stroke: #aaa; stroke-dasharray: 4 2; }
    .column { fill: none; stroke: #ddd; }
    .grid { stroke: #eee; stroke-width: 0.5; }

    .text-frame { fill: rgba(0,0,255,0.08); stroke: #00f; }
    .image-frame { fill: rgba(255,165,0,0.15); stroke: #f90; }

    .frame-id { 
        font-size: 7px; 
        fill: #666;
    }
    
    .thread {
        fill: none;
        stroke: #888;
        stroke-dasharray: 3 3;
        stroke-width: 1;
    }

    .label {
        font-size: 9px;
        font-family: monospace;
    }

    .snippet {
        font-size: 12px;
        font-family: Inter, system-ui, -apple-system, Segoe UI, Roboto, Arial, sans-serif;
        fill: #111;
    }

    .label-bg {
        fill: #000;
        opacity: 0.75;
    }

    .label-inv {
        fill: #fff;
        text-anchor: end;
    }

    .z-index { 
        font-size: 7px; 
        fill: #333;
        text-anchor: end;
        paint-order: stroke fill;
        stroke: white;
        stroke-width: 2;
        stroke-linejoin: round;
    }

    .distance {
        stroke: red;
        stroke-width: 2.5;
        fill: none;
    }

    .edge-ghost {
        stroke: rgba(200, 0, 0, 0.4);
        stroke-width: 1.5;
        stroke-dasharray: 6 3;
        fill: none;
    }

    .arrowhead {
        fill: red;
    }
    
    .fender-zone {
        fill: url(#fender-hatch);
        stroke: none;
    }

    .fender-edge {
        stroke: #0891b2;
        stroke-width: 2;
        fill: none;
    }
</style>
<defs>
    <pattern id="baseline-grid" patternUnits="userSpaceOnUse" width="100%" height="11">
        <line x1="0" y1="0" x2="100%" y2="0" class="grid" />
    </pattern>
    <pattern id="checkerboard" patternUnits="userSpaceOnUse" width="20" height="20">
        <rect width="20" height="20" fill="#e8e8e8" stroke="none"/>
        <rect width="10" height="10" fill="#ffffff" stroke="none"/>
        <rect x="10" y="10" width="10" height="10" fill="#ffffff" stroke="none"/>
    </pattern>
    <pattern id="fender-hatch" patternUnits="userSpaceOnUse" width="8" height="8" patternTransform="rotate(45)">
        <line x1="0" y1="0" x2="0" y2="8" stroke="#0891b2" stroke-width="1.2" stroke-opacity="0.5" />
    </pattern>
</defs>


<g id="article">
<line class="thread" x1="517.525" y1="1136.8500000000001" x2="637.7950000000001" y2="762.5880000000001" />
<rect class="text-frame" x="528.864" y="1013.787" width="97.998" height="123.063" />
<rect class="label-bg" x="588.8620000000001" y="1122.8500000000001" width="38" height="14" />
<text class="z-index" x="584.8620000000001" y="1132.8500000000001" text-anchor="end">z:571</text>
<text class="label label-inv" x="622.8620000000001" y="1132.8500000000001">QUOTE</text>
<rect class="text-frame" x="36.85" y="630.85" width="754.016" height="132.012" />
<rect class="label-bg" x="764.866" y="748.8620000000001" width="26" height="14" />
<text class="z-index" x="760.866" y="758.8620000000001" text-anchor="end">z:578</text>
<text class="label label-inv" x="786.866" y="758.8620000000001">KOP</text>
<rect class="text-frame" x="36.85" y="597.85" width="754.016" height="21.988" />
<rect class="label-bg" x="722.866" y="605.838" width="68" height="14" />
<text class="z-index" x="718.866" y="615.838" text-anchor="end">z:579</text>
<text class="label label-inv" x="786.866" y="615.838">BIJSCHRIFT</text>
<rect class="image-frame" x="36.85" y="135.85" width="754.016" height="456.339" />
<rect class="label-bg" x="752.866" y="578.189" width="38" height="14" />
<text class="z-index" x="748.866" y="588.189" text-anchor="end">z:580</text>
<text class="label label-inv" x="786.866" y="588.189">image</text>
<rect class="text-frame" x="36.85" y="102.85" width="754.724" height="22" />
<rect class="label-bg" x="735.5740000000001" y="110.85" width="56" height="14" />
<text class="z-index" x="731.5740000000001" y="120.85" text-anchor="end">z:581</text>
<text class="label label-inv" x="787.5740000000001" y="120.85">BOVENKOP</text>
<rect class="text-frame" x="36.85" y="839.5880000000001" width="480.675" height="297.262" />
<rect class="label-bg" x="479.525" y="1122.8500000000001" width="38" height="14" />
<text class="z-index" x="475.525" y="1132.8500000000001" text-anchor="end">z:582</text>
<text class="label label-inv" x="513.525" y="1132.8500000000001">TEKST</text>
<rect class="text-frame" x="528.864" y="949.85" width="97.998" height="66" />
<rect class="label-bg" x="558.8620000000001" y="1001.85" width="68" height="14" />
<text class="z-index" x="554.8620000000001" y="1011.85" text-anchor="end">z:583</text>
<text class="label label-inv" x="622.8620000000001" y="1011.85">BIJSCHRIFT</text>
<rect class="image-frame" x="364.85900000000004" y="767.8380000000001" width="262.002" height="176.194" />
<rect class="label-bg" x="588.8610000000001" y="930.032" width="38" height="14" />
<text class="z-index" x="584.8610000000001" y="940.032" text-anchor="end">z:584</text>
<text class="label label-inv" x="622.8610000000001" y="940.032">image</text>
<rect class="text-frame" x="637.7950000000001" y="762.5880000000001" width="153.071" height="374.262" />
<rect class="label-bg" x="752.8660000000001" y="1122.8500000000001" width="38" height="14" />
<text class="z-index" x="748.8660000000001" y="1132.8500000000001" text-anchor="end">z:585</text>
<text class="label label-inv" x="786.8660000000001" y="1132.8500000000001">TEKST</text>
<rect class="text-frame" x="37.015" y="858.5880000000001" width="152.501" height="6.696" />
<rect class="label-bg" x="145.51600000000002" y="851.2840000000001" width="44" height="14" />
<text class="z-index" x="141.51600000000002" y="861.2840000000001" text-anchor="end">z:586</text>
<text class="label label-inv" x="185.51600000000002" y="861.2840000000001">PLAATS</text>
<rect class="text-frame" x="36.85" y="839.5880000000001" width="152.666" height="18.499" />
<rect class="label-bg" x="145.516" y="844.0870000000001" width="44" height="14" />
<text class="z-index" x="141.516" y="854.0870000000001" text-anchor="end">z:587</text>
<text class="label label-inv" x="185.516" y="854.0870000000001">AUTEUR</text>
<rect class="text-frame" x="36.85" y="762.5880000000001" width="316.67" height="68.725" />
<rect class="label-bg" x="315.52000000000004" y="817.3130000000001" width="38" height="14" />
<text class="z-index" x="311.52000000000004" y="827.3130000000001" text-anchor="end">z:588</text>
<text class="label label-inv" x="349.52000000000004" y="827.3130000000001">INTRO</text>
</g>
</svg>