<svg xmlns="http://www.w3.org/2000/svg" width="794.016" height="1098.394" viewBox="16.85 60.849999999999994 794.016 1098.394">
<style>
    .page { fill: #fff; stroke: #ccc; }
    .margin { fill: none; stroke: #aaa; stroke-dasharray: 4 2; }
    .column { fill: none; stroke: #ddd; }
    .grid { stroke: #eee; stroke-width: 0.5; }

    .text-frame { fill: rgba(0,0,255,0.08); stroke: #00f; }
    .image-frame { fill: rgba(255,165,0,0.15); stroke: #f90; }

    .frame-id { 
        font-size: 7px; 
        fill: #666;
    }
    
    .thread {
        fill: none;
        stroke: #888;
        stroke-dasharray: 3 3;
        stroke-width: 1;
    }

    .label {
        font-size: 9px;
        font-family: monospace;
    }

    .snippet {
        font-size: 12px;
        font-family: Inter, system-ui, -apple-system, Segoe UI, Roboto, Arial, sans-serif;
        fill: #111;
    }

    .label-bg {
        fill: #000;
        opacity: 0.75;
    }

    .label-inv {
        fill: #fff;
        text-anchor: end;
    }

    .z-index { 
        font-size: 7px; 
        fill: #333;
        text-anchor: end;
        paint-order: stroke fill;
        stroke: white;
        stroke-width: 2;
        stroke-linejoin: round;
    }

    .distance {
        stroke: red;
        stroke-width: 2.5;
        fill: none;
    }

    .edge-ghost {
        stroke: rgba(200, 0, 0, 0.4);
        stroke-width: 1.5;
        stroke-dasharray: 6 3;
        fill: none;
    }

    .arrowhead {
        fill: red;
    }
    
    .fender-zone {
        fill: url(#fender-hatch);
        stroke: none;
    }

    .fender-edge {
        stroke: #0891b2;
        stroke-width: 2;
        fill: none;
    }
</style>
<defs>
    <pattern id="baseline-grid" patternUnits="userSpaceOnUse" width="100%" height="11">
        <line x1="0" y1="0" x2="100%" y2="0" class="grid" />
    </pattern>
    <pattern id="checkerboard" patternUnits="userSpaceOnUse" width="20" height="20">
        <rect width="20" height="20" fill="#e8e8e8" stroke="none"/>
        <rect width="10" height="10" fill="#ffffff" stroke="none"/>
        <rect x="10" y="10" width="10" height="10" fill="#ffffff" stroke="none"/>
    </pattern>
    <pattern id="fender-hatch" patternUnits="userSpaceOnUse" width="8" height="8" patternTransform="rotate(45)">
        <line x1="0" y1="0" x2="0" y2="8" stroke="#0891b2" stroke-width="1.2" stroke-opacity="0.5" />
    </pattern>
</defs>


<g id="article">

<rect class="text-frame" x="36.85" y="267.85" width="754.016" height="871.394" />
<rect class="label-bg" x="752.866" y="1125.2440000000001" width="38" height="14" />
<text class="z-index" x="748.866" y="1135.2440000000001" text-anchor="end">z:231</text>
<text class="label label-inv" x="786.866" y="1135.2440000000001">TEKST</text>
<rect class="text-frame" x="36.85" y="102.85" width="754.016" height="22" />
<rect class="label-bg" x="734.866" y="110.85" width="56" height="14" />
<text class="z-index" x="730.866" y="120.85" text-anchor="end">z:232</text>
<text class="label label-inv" x="786.866" y="120.85">BOVENKOP</text>
<rect class="text-frame" x="36.85" y="135.85" width="754.016" height="132" />
<rect class="label-bg" x="764.866" y="253.85000000000002" width="26" height="14" />
<text class="z-index" x="760.866" y="263.85" text-anchor="end">z:233</text>
<text class="label label-inv" x="786.866" y="263.85">KOP</text>
<rect class="image-frame" x="342.992" y="271.85" width="447.874" height="651" />
<rect class="label-bg" x="752.866" y="908.85" width="38" height="14" />
<text class="z-index" x="748.866" y="918.85" text-anchor="end">z:234</text>
<text class="label label-inv" x="786.866" y="918.85">image</text>
<rect class="text-frame" x="190.124" y="685.85" width="141.53" height="110" />
<rect class="label-bg" x="293.654" y="781.85" width="38" height="14" />
<text class="z-index" x="289.654" y="791.85" text-anchor="end">z:235</text>
<text class="label label-inv" x="327.654" y="791.85">QUOTE</text>
<rect class="text-frame" x="342.992" y="927.85" width="447.874" height="11" />
<rect class="label-bg" x="722.866" y="924.85" width="68" height="14" />
<text class="z-index" x="718.866" y="934.85" text-anchor="end">z:236</text>
<text class="label label-inv" x="786.866" y="934.85">BIJSCHRIFT</text>
<rect class="text-frame" x="37.003" y="363.85" width="141.579" height="6.696" />
<rect class="label-bg" x="134.582" y="356.54600000000005" width="44" height="14" />
<text class="z-index" x="130.582" y="366.54600000000005" text-anchor="end">z:237</text>
<text class="label label-inv" x="174.582" y="366.54600000000005">PLAATS</text>
<rect class="text-frame" x="36.85" y="344.85" width="141.732" height="18.237" />
<rect class="label-bg" x="134.582" y="349.08700000000005" width="44" height="14" />
<text class="z-index" x="130.582" y="359.08700000000005" text-anchor="end">z:238</text>
<text class="label label-inv" x="174.582" y="359.08700000000005">AUTEUR</text>
<rect class="text-frame" x="36.85" y="267.85" width="294.65" height="68.725" />
<rect class="label-bg" x="293.5" y="322.57500000000005" width="38" height="14" />
<text class="z-index" x="289.5" y="332.57500000000005" text-anchor="end">z:239</text>
<text class="label label-inv" x="327.5" y="332.57500000000005">INTRO</text>
</g>
</svg>