<svg xmlns="http://www.w3.org/2000/svg" width="1298.583" height="1101.512" viewBox="322.992 60.849999999999994 1298.583 1101.512">
<style>
    .page { fill: #fff; stroke: #ccc; }
    .margin { fill: none; stroke: #aaa; stroke-dasharray: 4 2; }
    .column { fill: none; stroke: #ddd; }
    .grid { stroke: #eee; stroke-width: 0.5; }

    .text-frame { fill: rgba(0,0,255,0.08); stroke: #00f; }
    .image-frame { fill: rgba(255,165,0,0.15); stroke: #f90; }

    .frame-id { 
        font-size: 7px; 
        fill: #666;
    }
    
    .thread {
        fill: none;
        stroke: #888;
        stroke-dasharray: 3 3;
        stroke-width: 1;
    }

    .label {
        font-size: 9px;
        font-family: monospace;
    }

    .snippet {
        font-size: 12px;
        font-family: Inter, system-ui, -apple-system, Segoe UI, Roboto, Arial, sans-serif;
        fill: #111;
    }

    .label-bg {
        fill: #000;
        opacity: 0.75;
    }

    .label-inv {
        fill: #fff;
        text-anchor: end;
    }

    .z-index { 
        font-size: 7px; 
        fill: #333;
        text-anchor: end;
        paint-order: stroke fill;
        stroke: white;
        stroke-width: 2;
        stroke-linejoin: round;
    }

    .distance {
        stroke: red;
        stroke-width: 2.5;
        fill: none;
    }

    .edge-ghost {
        stroke: rgba(200, 0, 0, 0.4);
        stroke-width: 1.5;
        stroke-dasharray: 6 3;
        fill: none;
    }

    .arrowhead {
        fill: red;
    }
    
    .fender-zone {
        fill: url(#fender-hatch);
        stroke: none;
    }

    .fender-edge {
        stroke: #0891b2;
        stroke-width: 2;
        fill: none;
    }
</style>
<defs>
    <pattern id="baseline-grid" patternUnits="userSpaceOnUse" width="100%" height="11">
        <line x1="0" y1="0" x2="100%" y2="0" class="grid" />
    </pattern>
    <pattern id="checkerboard" patternUnits="userSpaceOnUse" width="20" height="20">
        <rect width="20" height="20" fill="#e8e8e8" stroke="none"/>
        <rect width="10" height="10" fill="#ffffff" stroke="none"/>
        <rect x="10" y="10" width="10" height="10" fill="#ffffff" stroke="none"/>
    </pattern>
    <pattern id="fender-hatch" patternUnits="userSpaceOnUse" width="8" height="8" patternTransform="rotate(45)">
        <line x1="0" y1="0" x2="0" y2="8" stroke="#0891b2" stroke-width="1.2" stroke-opacity="0.5" />
    </pattern>
</defs>


<g id="article">
<line class="thread" x1="790.866" y1="841.99" x2="847.559" y2="201.85" />
<line class="thread" x1="1601.5749999999998" y1="841.99" x2="1306.772" y2="916.85" />
<rect class="text-frame" x="354.331" y="322.85" width="436.535" height="519.14" />
<rect class="label-bg" x="752.866" y="827.99" width="38" height="14" />
<text class="z-index" x="748.866" y="837.99" text-anchor="end">z:124</text>
<text class="label label-inv" x="786.866" y="837.99">TEKST</text>
<rect class="text-frame" x="847.559" y="201.85" width="754.016" height="640.14" />
<rect class="label-bg" x="1563.5749999999998" y="827.99" width="38" height="14" />
<text class="z-index" x="1559.5749999999998" y="837.99" text-anchor="end">z:125</text>
<text class="label label-inv" x="1597.5749999999998" y="837.99">TEKST</text>
<rect class="text-frame" x="652.913" y="729.85" width="137.953" height="44" />
<rect class="label-bg" x="722.866" y="759.85" width="68" height="14" />
<text class="z-index" x="718.866" y="769.85" text-anchor="end">z:126</text>
<text class="label label-inv" x="786.866" y="769.85">BIJSCHRIFT</text>
<rect class="text-frame" x="503.526" y="509.85" width="138.048" height="126.5" />
<rect class="label-bg" x="603.5740000000001" y="622.35" width="38" height="14" />
<text class="z-index" x="599.5740000000001" y="632.35" text-anchor="end">z:133</text>
<text class="label label-inv" x="637.5740000000001" y="632.35">QUOTE</text>
<rect class="image-frame" x="652.913" y="205.85" width="795.591" height="518" />
<rect class="label-bg" x="1410.504" y="709.85" width="38" height="14" />
<text class="z-index" x="1406.504" y="719.85" text-anchor="end">z:134</text>
<text class="label label-inv" x="1444.504" y="719.85">image</text>
<rect class="text-frame" x="388.88300000000004" y="102.85" width="1212.692" height="15.821" />
<rect class="label-bg" x="1545.575" y="104.67099999999999" width="56" height="14" />
<text class="z-index" x="1541.575" y="114.67099999999999" text-anchor="end">z:135</text>
<text class="label label-inv" x="1597.575" y="114.67099999999999">BOVENKOP</text>
<rect class="text-frame" x="354.331" y="102.85" width="56.884" height="15.821" />
<rect class="label-bg" x="361.21500000000003" y="104.67099999999999" width="50" height="14" />
<text class="z-index" x="357.21500000000003" y="114.67099999999999" text-anchor="end">z:136</text>
<text class="label label-inv" x="407.21500000000003" y="114.67099999999999">SPECIAL</text>
<rect class="text-frame" x="354.331" y="135.85" width="1247.244" height="55" />
<rect class="label-bg" x="1575.5749999999998" y="176.85" width="26" height="14" />
<text class="z-index" x="1571.5749999999998" y="186.85" text-anchor="end">z:138</text>
<text class="label label-inv" x="1597.5749999999998" y="186.85">KOP</text>
<rect class="text-frame" x="354.331" y="341.817" width="137.949" height="38.967" />
<rect class="label-bg" x="448.28000000000003" y="366.784" width="44" height="14" />
<text class="z-index" x="444.28000000000003" y="376.784" text-anchor="end">z:139</text>
<text class="label label-inv" x="488.28000000000003" y="376.784">PLAATS</text>
<rect class="text-frame" x="354.331" y="322.817" width="138.098" height="51.27" />
<rect class="label-bg" x="448.42900000000003" y="360.087" width="44" height="14" />
<text class="z-index" x="444.42900000000003" y="370.087" text-anchor="end">z:140</text>
<text class="label label-inv" x="488.42900000000003" y="370.087">AUTEUR</text>
<rect class="text-frame" x="354.331" y="201.85" width="287.244" height="142.87" />
<rect class="label-bg" x="603.575" y="330.72" width="38" height="14" />
<text class="z-index" x="599.575" y="340.72" text-anchor="end">z:141</text>
<text class="label label-inv" x="637.575" y="340.72">INTRO</text>
<rect class="text-frame" x="1306.772" y="916.85" width="141.732" height="225.512" />
<rect class="label-bg" x="1410.504" y="1128.362" width="38" height="14" />
<text class="z-index" x="1406.504" y="1138.362" text-anchor="end">z:142</text>
<text class="label label-inv" x="1444.504" y="1138.362">TEKST</text>
</g>
</svg>