<svg xmlns="http://www.w3.org/2000/svg" width="334.803" height="1096" viewBox="827.559 60.849999999999994 334.803 1096">
<style>
    .page { fill: #fff; stroke: #ccc; }
    .margin { fill: none; stroke: #aaa; stroke-dasharray: 4 2; }
    .column { fill: none; stroke: #ddd; }
    .grid { stroke: #eee; stroke-width: 0.5; }

    .text-frame { fill: rgba(0,0,255,0.08); stroke: #00f; }
    .image-frame { fill: rgba(255,165,0,0.15); stroke: #f90; }

    .frame-id { 
        font-size: 7px; 
        fill: #666;
    }
    
    .thread {
        fill: none;
        stroke: #888;
        stroke-dasharray: 3 3;
        stroke-width: 1;
    }

    .label {
        font-size: 9px;
        font-family: monospace;
    }

    .snippet {
        font-size: 12px;
        font-family: Inter, system-ui, -apple-system, Segoe UI, Roboto, Arial, sans-serif;
        fill: #111;
    }

    .label-bg {
        fill: #000;
        opacity: 0.75;
    }

    .label-inv {
        fill: #fff;
        text-anchor: end;
    }

    .z-index { 
        font-size: 7px; 
        fill: #333;
        text-anchor: end;
        paint-order: stroke fill;
        stroke: white;
        stroke-width: 2;
        stroke-linejoin: round;
    }

    .distance {
        stroke: red;
        stroke-width: 2.5;
        fill: none;
    }

    .edge-ghost {
        stroke: rgba(200, 0, 0, 0.4);
        stroke-width: 1.5;
        stroke-dasharray: 6 3;
        fill: none;
    }

    .arrowhead {
        fill: red;
    }
    
    .fender-zone {
        fill: url(#fender-hatch);
        stroke: none;
    }

    .fender-edge {
        stroke: #0891b2;
        stroke-width: 2;
        fill: none;
    }
</style>
<defs>
    <pattern id="baseline-grid" patternUnits="userSpaceOnUse" width="100%" height="11">
        <line x1="0" y1="0" x2="100%" y2="0" class="grid" />
    </pattern>
    <pattern id="checkerboard" patternUnits="userSpaceOnUse" width="20" height="20">
        <rect width="20" height="20" fill="#e8e8e8" stroke="none"/>
        <rect width="10" height="10" fill="#ffffff" stroke="none"/>
        <rect x="10" y="10" width="10" height="10" fill="#ffffff" stroke="none"/>
    </pattern>
    <pattern id="fender-hatch" patternUnits="userSpaceOnUse" width="8" height="8" patternTransform="rotate(45)">
        <line x1="0" y1="0" x2="0" y2="8" stroke="#0891b2" stroke-width="1.2" stroke-opacity="0.5" />
    </pattern>
</defs>


<g id="article">
<line class="thread" x1="989.2909999999999" y1="1136.85" x2="1000.63" y2="421.85" />
<rect class="text-frame" x="847.559" y="289.85" width="294.803" height="11" />
<rect class="label-bg" x="1074.362" y="286.85" width="68" height="14" />
<text class="z-index" x="1070.362" y="296.85" text-anchor="end">z:260</text>
<text class="label label-inv" x="1138.362" y="296.85">BIJSCHRIFT</text>
<rect class="image-frame" x="847.559" y="102.85" width="294.803" height="181" />
<rect class="label-bg" x="1104.362" y="269.85" width="38" height="14" />
<text class="z-index" x="1100.362" y="279.85" text-anchor="end">z:261</text>
<text class="label label-inv" x="1138.362" y="279.85">image</text>
<rect class="text-frame" x="847.559" y="311.85" width="294.803" height="99" />
<rect class="label-bg" x="1116.362" y="396.85" width="26" height="14" />
<text class="z-index" x="1112.362" y="406.85" text-anchor="end">z:262</text>
<text class="label label-inv" x="1138.362" y="406.85">KOP</text>
<rect class="text-frame" x="1000.63" y="421.85" width="141.732" height="715" />
<rect class="label-bg" x="1104.362" y="1122.85" width="38" height="14" />
<text class="z-index" x="1100.362" y="1132.85" text-anchor="end">z:263</text>
<text class="label label-inv" x="1138.362" y="1132.85">TEKST</text>
<rect class="text-frame" x="847.559" y="509.85" width="141.732" height="627" />
<rect class="label-bg" x="951.2909999999999" y="1122.85" width="38" height="14" />
<text class="z-index" x="947.2909999999999" y="1132.85" text-anchor="end">z:264</text>
<text class="label label-inv" x="985.2909999999999" y="1132.85">TEKST</text>
<rect class="text-frame" x="1000.63" y="641.85" width="141.732" height="110" />
<rect class="label-bg" x="1104.362" y="737.85" width="38" height="14" />
<text class="z-index" x="1100.362" y="747.85" text-anchor="end">z:265</text>
<text class="label label-inv" x="1138.362" y="747.85">QUOTE</text>
<rect class="text-frame" x="847.712" y="517.85" width="141.579" height="16.933" />
<rect class="label-bg" x="945.2909999999999" y="520.783" width="44" height="14" />
<text class="z-index" x="941.2909999999999" y="530.783" text-anchor="end">z:266</text>
<text class="label label-inv" x="985.2909999999999" y="530.783">PLAATS</text>
<rect class="text-frame" x="847.559" y="498.85" width="141.732" height="29.237" />
<rect class="label-bg" x="945.2909999999999" y="514.087" width="44" height="14" />
<text class="z-index" x="941.2909999999999" y="524.087" text-anchor="end">z:267</text>
<text class="label label-inv" x="985.2909999999999" y="524.087">AUTEUR</text>
<rect class="text-frame" x="847.559" y="421.85" width="141.732" height="77" />
<rect class="label-bg" x="951.2909999999999" y="484.85" width="38" height="14" />
<text class="z-index" x="947.2909999999999" y="494.85" text-anchor="end">z:268</text>
<text class="label label-inv" x="985.2909999999999" y="494.85">INTRO</text>
</g>
</svg>