<svg xmlns="http://www.w3.org/2000/svg" width="794.016" height="801.843" viewBox="-802.362 60.849999999999994 794.016 801.843">
<style>
    .page { fill: #fff; stroke: #ccc; }
    .margin { fill: none; stroke: #aaa; stroke-dasharray: 4 2; }
    .column { fill: none; stroke: #ddd; }
    .grid { stroke: #eee; stroke-width: 0.5; }

    .text-frame { fill: rgba(0,0,255,0.08); stroke: #00f; }
    .image-frame { fill: rgba(255,165,0,0.15); stroke: #f90; }

    .frame-id { 
        font-size: 7px; 
        fill: #666;
    }
    
    .thread {
        fill: none;
        stroke: #888;
        stroke-dasharray: 3 3;
        stroke-width: 1;
    }

    .label {
        font-size: 9px;
        font-family: monospace;
    }

    .snippet {
        font-size: 12px;
        font-family: Inter, system-ui, -apple-system, Segoe UI, Roboto, Arial, sans-serif;
        fill: #111;
    }

    .label-bg {
        fill: #000;
        opacity: 0.75;
    }

    .label-inv {
        fill: #fff;
        text-anchor: end;
    }

    .z-index { 
        font-size: 7px; 
        fill: #333;
        text-anchor: end;
        paint-order: stroke fill;
        stroke: white;
        stroke-width: 2;
        stroke-linejoin: round;
    }

    .distance {
        stroke: red;
        stroke-width: 2.5;
        fill: none;
    }

    .edge-ghost {
        stroke: rgba(200, 0, 0, 0.4);
        stroke-width: 1.5;
        stroke-dasharray: 6 3;
        fill: none;
    }

    .arrowhead {
        fill: red;
    }
    
    .fender-zone {
        fill: url(#fender-hatch);
        stroke: none;
    }

    .fender-edge {
        stroke: #0891b2;
        stroke-width: 2;
        fill: none;
    }
</style>
<defs>
    <pattern id="baseline-grid" patternUnits="userSpaceOnUse" width="100%" height="11">
        <line x1="0" y1="0" x2="100%" y2="0" class="grid" />
    </pattern>
    <pattern id="checkerboard" patternUnits="userSpaceOnUse" width="20" height="20">
        <rect width="20" height="20" fill="#e8e8e8" stroke="none"/>
        <rect width="10" height="10" fill="#ffffff" stroke="none"/>
        <rect x="10" y="10" width="10" height="10" fill="#ffffff" stroke="none"/>
    </pattern>
    <pattern id="fender-hatch" patternUnits="userSpaceOnUse" width="8" height="8" patternTransform="rotate(45)">
        <line x1="0" y1="0" x2="0" y2="8" stroke="#0891b2" stroke-width="1.2" stroke-opacity="0.5" />
    </pattern>
</defs>


<g id="article">
<line class="thread" x1="-302.092" y1="842.693" x2="-181.01199999999994" y2="267.85" />
<rect class="text-frame" x="-782.362" y="476.85" width="480.27" height="365.843" />
<rect class="label-bg" x="-340.092" y="828.693" width="38" height="14" />
<text class="z-index" x="-344.092" y="838.693" text-anchor="end">z:353</text>
<text class="label label-inv" x="-306.092" y="838.693">TEKST</text>
<rect class="text-frame" x="-181.01199999999994" y="267.85" width="152.666" height="574.843" />
<rect class="label-bg" x="-66.34599999999995" y="828.693" width="38" height="14" />
<text class="z-index" x="-70.34599999999995" y="838.693" text-anchor="end">z:354</text>
<text class="label label-inv" x="-32.34599999999995" y="838.693">TEKST</text>
<rect class="text-frame" x="-782.362" y="135.85" width="754.016" height="121" />
<rect class="label-bg" x="-54.346000000000004" y="242.85000000000002" width="26" height="14" />
<text class="z-index" x="-58.346000000000004" y="252.85000000000002" text-anchor="end">z:355</text>
<text class="label label-inv" x="-32.346000000000004" y="252.85000000000002">KOP</text>
<rect class="text-frame" x="-782.362" y="102.85" width="754.016" height="22" />
<rect class="label-bg" x="-84.346" y="110.85" width="56" height="14" />
<text class="z-index" x="-88.346" y="120.85" text-anchor="end">z:356</text>
<text class="label label-inv" x="-32.346000000000004" y="120.85">BOVENKOP</text>
<rect class="text-frame" x="-618.3679999999999" y="586.85" width="152.407" height="66" />
<rect class="label-bg" x="-533.9609999999999" y="638.85" width="68" height="14" />
<text class="z-index" x="-537.9609999999999" y="648.85" text-anchor="end">z:361</text>
<text class="label label-inv" x="-469.9609999999999" y="648.85">BIJSCHRIFT</text>
<rect class="text-frame" x="-290.349" y="795.85" width="97.973" height="46.843" />
<rect class="label-bg" x="-260.376" y="828.693" width="68" height="14" />
<text class="z-index" x="-264.376" y="838.693" text-anchor="end">z:362</text>
<text class="label label-inv" x="-196.37599999999998" y="838.693">BIJSCHRIFT</text>
<rect class="image-frame" x="-618.3679999999999" y="272.126" width="425.992" height="308.724" />
<rect class="label-bg" x="-230.37599999999992" y="566.8499999999999" width="38" height="14" />
<text class="z-index" x="-234.37599999999992" y="576.8499999999999" text-anchor="end">z:363</text>
<text class="label label-inv" x="-196.37599999999992" y="576.8499999999999">image</text>
<rect class="image-frame" x="-454.623" y="590.409" width="262.247" height="199.44" />
<rect class="label-bg" x="-230.37599999999998" y="775.8489999999999" width="38" height="14" />
<text class="z-index" x="-234.37599999999998" y="785.8489999999999" text-anchor="end">z:364</text>
<text class="label label-inv" x="-196.37599999999998" y="785.8489999999999">image</text>
<rect class="text-frame" x="-782.197" y="473.879" width="152.366" height="27.904" />
<rect class="label-bg" x="-673.831" y="487.783" width="44" height="14" />
<text class="z-index" x="-677.831" y="497.783" text-anchor="end">z:365</text>
<text class="label label-inv" x="-633.831" y="497.783">PLAATS</text>
<rect class="text-frame" x="-782.362" y="454.879" width="152.531" height="40.208" />
<rect class="label-bg" x="-673.8309999999999" y="481.087" width="44" height="14" />
<text class="z-index" x="-677.8309999999999" y="491.087" text-anchor="end">z:366</text>
<text class="label label-inv" x="-633.8309999999999" y="491.087">AUTEUR</text>
<rect class="text-frame" x="-782.362" y="267.85" width="152.531" height="194.725" />
<rect class="label-bg" x="-667.8309999999999" y="448.57500000000005" width="38" height="14" />
<text class="z-index" x="-671.8309999999999" y="458.57500000000005" text-anchor="end">z:367</text>
<text class="label label-inv" x="-633.8309999999999" y="458.57500000000005">INTRO</text>
</g>
</svg>