<svg xmlns="http://www.w3.org/2000/svg" width="334.953" height="1096" viewBox="16.700000000000003 60.849999999999994 334.953 1096">
<style>
    .page { fill: #fff; stroke: #ccc; }
    .margin { fill: none; stroke: #aaa; stroke-dasharray: 4 2; }
    .column { fill: none; stroke: #ddd; }
    .grid { stroke: #eee; stroke-width: 0.5; }

    .text-frame { fill: rgba(0,0,255,0.08); stroke: #00f; }
    .image-frame { fill: rgba(255,165,0,0.15); stroke: #f90; }

    .frame-id { 
        font-size: 7px; 
        fill: #666;
    }
    
    .thread {
        fill: none;
        stroke: #888;
        stroke-dasharray: 3 3;
        stroke-width: 1;
    }

    .label {
        font-size: 9px;
        font-family: monospace;
    }

    .snippet {
        font-size: 12px;
        font-family: Inter, system-ui, -apple-system, Segoe UI, Roboto, Arial, sans-serif;
        fill: #111;
    }

    .label-bg {
        fill: #000;
        opacity: 0.75;
    }

    .label-inv {
        fill: #fff;
        text-anchor: end;
    }

    .z-index { 
        font-size: 7px; 
        fill: #333;
        text-anchor: end;
        paint-order: stroke fill;
        stroke: white;
        stroke-width: 2;
        stroke-linejoin: round;
    }

    .distance {
        stroke: red;
        stroke-width: 2.5;
        fill: none;
    }

    .edge-ghost {
        stroke: rgba(200, 0, 0, 0.4);
        stroke-width: 1.5;
        stroke-dasharray: 6 3;
        fill: none;
    }

    .arrowhead {
        fill: red;
    }
    
    .fender-zone {
        fill: url(#fender-hatch);
        stroke: none;
    }

    .fender-edge {
        stroke: #0891b2;
        stroke-width: 2;
        fill: none;
    }
</style>
<defs>
    <pattern id="baseline-grid" patternUnits="userSpaceOnUse" width="100%" height="11">
        <line x1="0" y1="0" x2="100%" y2="0" class="grid" />
    </pattern>
    <pattern id="checkerboard" patternUnits="userSpaceOnUse" width="20" height="20">
        <rect width="20" height="20" fill="#e8e8e8" stroke="none"/>
        <rect width="10" height="10" fill="#ffffff" stroke="none"/>
        <rect x="10" y="10" width="10" height="10" fill="#ffffff" stroke="none"/>
    </pattern>
    <pattern id="fender-hatch" patternUnits="userSpaceOnUse" width="8" height="8" patternTransform="rotate(45)">
        <line x1="0" y1="0" x2="0" y2="8" stroke="#0891b2" stroke-width="1.2" stroke-opacity="0.5" />
    </pattern>
</defs>


<g id="article">
<line class="thread" x1="178.582" y1="927.85" x2="189.921" y2="201.85" />
<rect class="text-frame" x="36.7" y="1125.85" width="294.803" height="11" />
<rect class="label-bg" x="263.503" y="1122.85" width="68" height="14" />
<text class="z-index" x="259.503" y="1132.85" text-anchor="end">z:198</text>
<text class="label label-inv" x="327.503" y="1132.85">BIJSCHRIFT</text>
<rect class="image-frame" x="36.7" y="938.85" width="294.803" height="181.756" />
<rect class="label-bg" x="293.503" y="1106.606" width="38" height="14" />
<text class="z-index" x="289.503" y="1116.606" text-anchor="end">z:199</text>
<text class="label label-inv" x="327.503" y="1116.606">image</text>
<rect class="text-frame" x="36.85" y="102.85" width="294.803" height="99" />
<rect class="label-bg" x="305.653" y="187.85" width="26" height="14" />
<text class="z-index" x="301.653" y="197.85" text-anchor="end">z:200</text>
<text class="label label-inv" x="327.653" y="197.85">KOP</text>
<rect class="text-frame" x="36.85" y="289.85" width="141.732" height="638" />
<rect class="label-bg" x="140.582" y="913.85" width="38" height="14" />
<text class="z-index" x="136.582" y="923.85" text-anchor="end">z:201</text>
<text class="label label-inv" x="174.582" y="923.85">TEKST</text>
<rect class="text-frame" x="189.921" y="201.85" width="141.732" height="726" />
<rect class="label-bg" x="293.653" y="913.85" width="38" height="14" />
<text class="z-index" x="289.653" y="923.85" text-anchor="end">z:202</text>
<text class="label label-inv" x="327.653" y="923.85">TEKST</text>
<rect class="text-frame" x="189.921" y="520.85" width="141.732" height="110" />
<rect class="label-bg" x="293.653" y="616.85" width="38" height="14" />
<text class="z-index" x="289.653" y="626.85" text-anchor="end">z:203</text>
<text class="label label-inv" x="327.653" y="626.85">QUOTE</text>
<rect class="text-frame" x="37.003" y="297.85" width="141.579" height="16.933" />
<rect class="label-bg" x="134.582" y="300.783" width="44" height="14" />
<text class="z-index" x="130.582" y="310.783" text-anchor="end">z:204</text>
<text class="label label-inv" x="174.582" y="310.783">PLAATS</text>
<rect class="text-frame" x="36.85" y="278.85" width="141.732" height="29.237" />
<rect class="label-bg" x="134.582" y="294.08700000000005" width="44" height="14" />
<text class="z-index" x="130.582" y="304.08700000000005" text-anchor="end">z:205</text>
<text class="label label-inv" x="174.582" y="304.08700000000005">AUTEUR</text>
<rect class="text-frame" x="36.85" y="201.85" width="141.656" height="77" />
<rect class="label-bg" x="140.506" y="264.85" width="38" height="14" />
<text class="z-index" x="136.506" y="274.85" text-anchor="end">z:206</text>
<text class="label label-inv" x="174.506" y="274.85">INTRO</text>
</g>
</svg>