<svg xmlns="http://www.w3.org/2000/svg" width="794.016" height="1098.677" viewBox="16.85 60.849999999999994 794.016 1098.677">
<style>
    .page { fill: #fff; stroke: #ccc; }
    .margin { fill: none; stroke: #aaa; stroke-dasharray: 4 2; }
    .column { fill: none; stroke: #ddd; }
    .grid { stroke: #eee; stroke-width: 0.5; }

    .text-frame { fill: rgba(0,0,255,0.08); stroke: #00f; }
    .image-frame { fill: rgba(255,165,0,0.15); stroke: #f90; }

    .frame-id { 
        font-size: 7px; 
        fill: #666;
    }
    
    .thread {
        fill: none;
        stroke: #888;
        stroke-dasharray: 3 3;
        stroke-width: 1;
    }

    .label {
        font-size: 9px;
        font-family: monospace;
    }

    .snippet {
        font-size: 12px;
        font-family: Inter, system-ui, -apple-system, Segoe UI, Roboto, Arial, sans-serif;
        fill: #111;
    }

    .label-bg {
        fill: #000;
        opacity: 0.75;
    }

    .label-inv {
        fill: #fff;
        text-anchor: end;
    }

    .z-index { 
        font-size: 7px; 
        fill: #333;
        text-anchor: end;
        paint-order: stroke fill;
        stroke: white;
        stroke-width: 2;
        stroke-linejoin: round;
    }

    .distance {
        stroke: red;
        stroke-width: 2.5;
        fill: none;
    }

    .edge-ghost {
        stroke: rgba(200, 0, 0, 0.4);
        stroke-width: 1.5;
        stroke-dasharray: 6 3;
        fill: none;
    }

    .arrowhead {
        fill: red;
    }
    
    .fender-zone {
        fill: url(#fender-hatch);
        stroke: none;
    }

    .fender-edge {
        stroke: #0891b2;
        stroke-width: 2;
        fill: none;
    }
</style>
<defs>
    <pattern id="baseline-grid" patternUnits="userSpaceOnUse" width="100%" height="11">
        <line x1="0" y1="0" x2="100%" y2="0" class="grid" />
    </pattern>
    <pattern id="checkerboard" patternUnits="userSpaceOnUse" width="20" height="20">
        <rect width="20" height="20" fill="#e8e8e8" stroke="none"/>
        <rect width="10" height="10" fill="#ffffff" stroke="none"/>
        <rect x="10" y="10" width="10" height="10" fill="#ffffff" stroke="none"/>
    </pattern>
    <pattern id="fender-hatch" patternUnits="userSpaceOnUse" width="8" height="8" patternTransform="rotate(45)">
        <line x1="0" y1="0" x2="0" y2="8" stroke="#0891b2" stroke-width="1.2" stroke-opacity="0.5" />
    </pattern>
</defs>


<g id="article">

<rect class="text-frame" x="36.85" y="135.85" width="754.016" height="1003.677" />
<rect class="label-bg" x="752.866" y="1125.527" width="38" height="14" />
<text class="z-index" x="748.866" y="1135.527" text-anchor="end">z:143</text>
<text class="label label-inv" x="786.866" y="1135.527">TEKST</text>
<rect class="text-frame" x="36.85" y="102.85" width="754.016" height="22" />
<rect class="label-bg" x="734.866" y="110.85" width="56" height="14" />
<text class="z-index" x="730.866" y="120.85" text-anchor="end">z:144</text>
<text class="label label-inv" x="786.866" y="120.85">BOVENKOP</text>
<rect class="text-frame" x="36.85" y="135.85" width="294.803" height="319" />
<rect class="label-bg" x="305.653" y="440.85" width="26" height="14" />
<text class="z-index" x="301.653" y="450.85" text-anchor="end">z:145</text>
<text class="label label-inv" x="327.653" y="450.85">KOP</text>
<rect class="image-frame" x="342.992" y="135.85" width="447.874" height="632" />
<rect class="label-bg" x="752.866" y="753.85" width="38" height="14" />
<text class="z-index" x="748.866" y="763.85" text-anchor="end">z:146</text>
<text class="label label-inv" x="786.866" y="763.85">image</text>
<rect class="text-frame" x="342.992" y="1020.5360000000001" width="141.732" height="118.991" />
<rect class="label-bg" x="446.72400000000005" y="1125.527" width="38" height="14" />
<text class="z-index" x="442.72400000000005" y="1135.527" text-anchor="end">z:147</text>
<text class="label label-inv" x="480.72400000000005" y="1135.527">QUOTE</text>
<rect class="text-frame" x="342.992" y="773.85" width="447.874" height="11" />
<rect class="label-bg" x="722.866" y="770.85" width="68" height="14" />
<text class="z-index" x="718.866" y="780.85" text-anchor="end">z:148</text>
<text class="label label-inv" x="786.866" y="780.85">BIJSCHRIFT</text>
<rect class="text-frame" x="37.157000000000004" y="561.85" width="141.579" height="49.933" />
<rect class="label-bg" x="134.73600000000002" y="597.783" width="44" height="14" />
<text class="z-index" x="130.73600000000002" y="607.783" text-anchor="end">z:149</text>
<text class="label label-inv" x="174.73600000000002" y="607.783">PLAATS</text>
<rect class="text-frame" x="37.003" y="542.85" width="141.732" height="62.237" />
<rect class="label-bg" x="134.735" y="591.087" width="44" height="14" />
<text class="z-index" x="130.735" y="601.087" text-anchor="end">z:150</text>
<text class="label label-inv" x="174.735" y="601.087">AUTEUR</text>
<rect class="text-frame" x="37.003" y="465.85" width="294.65" height="104.725" />
<rect class="label-bg" x="293.65299999999996" y="556.575" width="38" height="14" />
<text class="z-index" x="289.65299999999996" y="566.575" text-anchor="end">z:151</text>
<text class="label label-inv" x="327.65299999999996" y="566.575">INTRO</text>
</g>
</svg>