<svg xmlns="http://www.w3.org/2000/svg" width="794.033" height="1096" viewBox="827.559 60.849999999999994 794.033 1096">
<style>
    .page { fill: #fff; stroke: #ccc; }
    .margin { fill: none; stroke: #aaa; stroke-dasharray: 4 2; }
    .column { fill: none; stroke: #ddd; }
    .grid { stroke: #eee; stroke-width: 0.5; }

    .text-frame { fill: rgba(0,0,255,0.08); stroke: #00f; }
    .image-frame { fill: rgba(255,165,0,0.15); stroke: #f90; }

    .frame-id { 
        font-size: 7px; 
        fill: #666;
    }
    
    .thread {
        fill: none;
        stroke: #888;
        stroke-dasharray: 3 3;
        stroke-width: 1;
    }

    .label {
        font-size: 9px;
        font-family: monospace;
    }

    .snippet {
        font-size: 12px;
        font-family: Inter, system-ui, -apple-system, Segoe UI, Roboto, Arial, sans-serif;
        fill: #111;
    }

    .label-bg {
        fill: #000;
        opacity: 0.75;
    }

    .label-inv {
        fill: #fff;
        text-anchor: end;
    }

    .z-index { 
        font-size: 7px; 
        fill: #333;
        text-anchor: end;
        paint-order: stroke fill;
        stroke: white;
        stroke-width: 2;
        stroke-linejoin: round;
    }

    .distance {
        stroke: red;
        stroke-width: 2.5;
        fill: none;
    }

    .edge-ghost {
        stroke: rgba(200, 0, 0, 0.4);
        stroke-width: 1.5;
        stroke-dasharray: 6 3;
        fill: none;
    }

    .arrowhead {
        fill: red;
    }
    
    .fender-zone {
        fill: url(#fender-hatch);
        stroke: none;
    }

    .fender-edge {
        stroke: #0891b2;
        stroke-width: 2;
        fill: none;
    }
</style>
<defs>
    <pattern id="baseline-grid" patternUnits="userSpaceOnUse" width="100%" height="11">
        <line x1="0" y1="0" x2="100%" y2="0" class="grid" />
    </pattern>
    <pattern id="checkerboard" patternUnits="userSpaceOnUse" width="20" height="20">
        <rect width="20" height="20" fill="#e8e8e8" stroke="none"/>
        <rect width="10" height="10" fill="#ffffff" stroke="none"/>
        <rect x="10" y="10" width="10" height="10" fill="#ffffff" stroke="none"/>
    </pattern>
    <pattern id="fender-hatch" patternUnits="userSpaceOnUse" width="8" height="8" patternTransform="rotate(45)">
        <line x1="0" y1="0" x2="0" y2="8" stroke="#0891b2" stroke-width="1.2" stroke-opacity="0.5" />
    </pattern>
</defs>


<g id="article">
<line class="thread" x1="1000.63" y1="971.85" x2="1120.9" y2="487.85" />
<rect class="text-frame" x="1120.9" y="487.85" width="480.693" height="484.144" />
<rect class="label-bg" x="1563.593" y="957.994" width="38" height="14" />
<text class="z-index" x="1559.593" y="967.994" text-anchor="end">z:44</text>
<text class="label label-inv" x="1597.593" y="967.994">TEKST</text>
<rect class="text-frame" x="847.559" y="487.85" width="153.071" height="484" />
<rect class="label-bg" x="962.63" y="957.85" width="38" height="14" />
<text class="z-index" x="958.63" y="967.85" text-anchor="end">z:45</text>
<text class="label label-inv" x="996.63" y="967.85">TEKST</text>
<rect class="image-frame" x="847.559" y="982.85" width="243.78" height="139" />
<rect class="label-bg" x="1053.339" y="1107.85" width="38" height="14" />
<text class="z-index" x="1049.339" y="1117.85" text-anchor="end">z:46</text>
<text class="label label-inv" x="1087.339" y="1117.85">image</text>
<rect class="image-frame" x="1104.029" y="982.85" width="243.78" height="139" />
<rect class="label-bg" x="1309.809" y="1107.85" width="38" height="14" />
<text class="z-index" x="1305.809" y="1117.85" text-anchor="end">z:47</text>
<text class="label label-inv" x="1343.809" y="1117.85">image</text>
<rect class="image-frame" x="1357.795" y="982.85" width="243.78" height="139" />
<rect class="label-bg" x="1563.575" y="1107.85" width="38" height="14" />
<text class="z-index" x="1559.575" y="1117.85" text-anchor="end">z:48</text>
<text class="label label-inv" x="1597.575" y="1117.85">image</text>
<rect class="text-frame" x="1011.564" y="641.85" width="98.2" height="11" />
<rect class="label-bg" x="1041.764" y="638.85" width="68" height="14" />
<text class="z-index" x="1037.764" y="648.85" text-anchor="end">z:49</text>
<text class="label label-inv" x="1105.764" y="648.85">BIJSCHRIFT</text>
<rect class="text-frame" x="847.559" y="1125.85" width="243.78" height="11" />
<rect class="label-bg" x="1023.3389999999999" y="1122.85" width="68" height="14" />
<text class="z-index" x="1019.3389999999999" y="1132.85" text-anchor="end">z:50</text>
<text class="label label-inv" x="1087.339" y="1132.85">BIJSCHRIFT</text>
<rect class="text-frame" x="1104.029" y="1125.85" width="243.78" height="11" />
<rect class="label-bg" x="1279.809" y="1122.85" width="68" height="14" />
<text class="z-index" x="1275.809" y="1132.85" text-anchor="end">z:51</text>
<text class="label label-inv" x="1343.809" y="1132.85">BIJSCHRIFT</text>
<rect class="text-frame" x="1357.795" y="1125.85" width="243.78" height="11" />
<rect class="label-bg" x="1533.575" y="1122.85" width="68" height="14" />
<text class="z-index" x="1529.575" y="1132.85" text-anchor="end">z:52</text>
<text class="label label-inv" x="1597.575" y="1132.85">BIJSCHRIFT</text>
<rect class="image-frame" x="1011.564" y="278.85" width="590.011" height="358" />
<rect class="label-bg" x="1563.5749999999998" y="622.85" width="38" height="14" />
<text class="z-index" x="1559.5749999999998" y="632.85" text-anchor="end">z:53</text>
<text class="label label-inv" x="1597.5749999999998" y="632.85">image</text>
<rect class="text-frame" x="847.559" y="135.85" width="754.016" height="132" />
<rect class="label-bg" x="1575.5749999999998" y="253.85000000000002" width="26" height="14" />
<text class="z-index" x="1571.5749999999998" y="263.85" text-anchor="end">z:54</text>
<text class="label label-inv" x="1597.5749999999998" y="263.85">KOP</text>
<rect class="text-frame" x="847.559" y="102.85" width="754.016" height="15.821" />
<rect class="label-bg" x="1545.5749999999998" y="104.67099999999999" width="56" height="14" />
<text class="z-index" x="1541.5749999999998" y="114.67099999999999" text-anchor="end">z:55</text>
<text class="label label-inv" x="1597.5749999999998" y="114.67099999999999">BOVENKOP</text>
<rect class="text-frame" x="847.559" y="102.85" width="56.934" height="15.821" />
<rect class="label-bg" x="854.4929999999999" y="104.67099999999999" width="50" height="14" />
<text class="z-index" x="850.4929999999999" y="114.67099999999999" text-anchor="end">z:56</text>
<text class="label label-inv" x="900.4929999999999" y="114.67099999999999">SPECIAL</text>
<rect class="text-frame" x="1011.564" y="850.85" width="98.2" height="121" />
<rect class="label-bg" x="1071.764" y="957.85" width="38" height="14" />
<text class="z-index" x="1067.764" y="967.85" text-anchor="end">z:57</text>
<text class="label label-inv" x="1105.764" y="967.85">QUOTE</text>
<rect class="text-frame" x="847.7189999999999" y="484.879" width="147.923" height="27.904" />
<rect class="label-bg" x="951.6419999999999" y="498.783" width="44" height="14" />
<text class="z-index" x="947.6419999999999" y="508.783" text-anchor="end">z:59</text>
<text class="label label-inv" x="991.6419999999999" y="508.783">PLAATS</text>
<rect class="text-frame" x="847.559" y="465.879" width="148.083" height="40.208" />
<rect class="label-bg" x="951.6419999999999" y="492.087" width="44" height="14" />
<text class="z-index" x="947.6419999999999" y="502.087" text-anchor="end">z:60</text>
<text class="label label-inv" x="991.6419999999999" y="502.087">AUTEUR</text>
<rect class="text-frame" x="847.559" y="278.85" width="148.083" height="194.725" />
<rect class="label-bg" x="957.6419999999999" y="459.57500000000005" width="38" height="14" />
<text class="z-index" x="953.6419999999999" y="469.57500000000005" text-anchor="end">z:61</text>
<text class="label label-inv" x="991.6419999999999" y="469.57500000000005">INTRO</text>
</g>
</svg>