<svg xmlns="http://www.w3.org/2000/svg" width="640.945" height="536.567" viewBox="16.85 60.849999999999994 640.945 536.567">
<style>
    .page { fill: #fff; stroke: #ccc; }
    .margin { fill: none; stroke: #aaa; stroke-dasharray: 4 2; }
    .column { fill: none; stroke: #ddd; }
    .grid { stroke: #eee; stroke-width: 0.5; }

    .text-frame { fill: rgba(0,0,255,0.08); stroke: #00f; }
    .image-frame { fill: rgba(255,165,0,0.15); stroke: #f90; }

    .frame-id { 
        font-size: 7px; 
        fill: #666;
    }
    
    .thread {
        fill: none;
        stroke: #888;
        stroke-dasharray: 3 3;
        stroke-width: 1;
    }

    .label {
        font-size: 9px;
        font-family: monospace;
    }

    .snippet {
        font-size: 12px;
        font-family: Inter, system-ui, -apple-system, Segoe UI, Roboto, Arial, sans-serif;
        fill: #111;
    }

    .label-bg {
        fill: #000;
        opacity: 0.75;
    }

    .label-inv {
        fill: #fff;
        text-anchor: end;
    }

    .z-index { 
        font-size: 7px; 
        fill: #333;
        text-anchor: end;
        paint-order: stroke fill;
        stroke: white;
        stroke-width: 2;
        stroke-linejoin: round;
    }

    .distance {
        stroke: red;
        stroke-width: 2.5;
        fill: none;
    }

    .edge-ghost {
        stroke: rgba(200, 0, 0, 0.4);
        stroke-width: 1.5;
        stroke-dasharray: 6 3;
        fill: none;
    }

    .arrowhead {
        fill: red;
    }
    
    .fender-zone {
        fill: url(#fender-hatch);
        stroke: none;
    }

    .fender-edge {
        stroke: #0891b2;
        stroke-width: 2;
        fill: none;
    }
</style>
<defs>
    <pattern id="baseline-grid" patternUnits="userSpaceOnUse" width="100%" height="11">
        <line x1="0" y1="0" x2="100%" y2="0" class="grid" />
    </pattern>
    <pattern id="checkerboard" patternUnits="userSpaceOnUse" width="20" height="20">
        <rect width="20" height="20" fill="#e8e8e8" stroke="none"/>
        <rect width="10" height="10" fill="#ffffff" stroke="none"/>
        <rect x="10" y="10" width="10" height="10" fill="#ffffff" stroke="none"/>
    </pattern>
    <pattern id="fender-hatch" patternUnits="userSpaceOnUse" width="8" height="8" patternTransform="rotate(45)">
        <line x1="0" y1="0" x2="0" y2="8" stroke="#0891b2" stroke-width="1.2" stroke-opacity="0.5" />
    </pattern>
</defs>


<g id="article">

<rect class="text-frame" x="36.85" y="247.417" width="589.606" height="330" />
<rect class="label-bg" x="588.456" y="563.417" width="38" height="14" />
<text class="z-index" x="584.456" y="573.417" text-anchor="end">z:211</text>
<text class="label label-inv" x="622.456" y="573.417">TEKST</text>
<rect class="text-frame" x="36.85" y="102.85" width="589.606" height="22" />
<rect class="label-bg" x="570.456" y="110.85" width="56" height="14" />
<text class="z-index" x="566.456" y="120.85" text-anchor="end">z:213</text>
<text class="label label-inv" x="622.456" y="120.85">BOVENKOP</text>
<rect class="text-frame" x="36.85" y="135.85" width="589.606" height="99" />
<rect class="label-bg" x="600.456" y="220.85" width="26" height="14" />
<text class="z-index" x="596.456" y="230.85" text-anchor="end">z:214</text>
<text class="label label-inv" x="622.456" y="230.85">KOP</text>
<rect class="text-frame" x="187.033" y="465.85" width="289.241" height="25.961" />
<rect class="label-bg" x="408.274" y="477.81100000000004" width="68" height="14" />
<text class="z-index" x="404.274" y="487.81100000000004" text-anchor="end">z:215</text>
<text class="label label-inv" x="472.274" y="487.81100000000004">BIJSCHRIFT</text>
<rect class="image-frame" x="187.033" y="249.44899999999998" width="289.241" height="211.402" />
<rect class="label-bg" x="438.274" y="446.851" width="38" height="14" />
<text class="z-index" x="434.274" y="456.851" text-anchor="end">z:216</text>
<text class="label label-inv" x="472.274" y="456.851">image</text>
<rect class="text-frame" x="487.559" y="377.85" width="138.898" height="77" />
<rect class="label-bg" x="588.457" y="440.85" width="38" height="14" />
<text class="z-index" x="584.457" y="450.85" text-anchor="end">z:217</text>
<text class="label label-inv" x="622.457" y="450.85">QUOTE</text>
<rect class="text-frame" x="37.003" y="354.41700000000003" width="141.579" height="26.366" />
<rect class="label-bg" x="134.582" y="366.783" width="44" height="14" />
<text class="z-index" x="130.582" y="376.783" text-anchor="end">z:221</text>
<text class="label label-inv" x="174.582" y="376.783">PLAATS</text>
<rect class="text-frame" x="36.85" y="335.41700000000003" width="141.732" height="38.67" />
<rect class="label-bg" x="134.582" y="360.08700000000005" width="44" height="14" />
<text class="z-index" x="130.582" y="370.08700000000005" text-anchor="end">z:222</text>
<text class="label label-inv" x="174.582" y="370.08700000000005">AUTEUR</text>
<rect class="text-frame" x="36.85" y="245.85" width="141.656" height="102.865" />
<rect class="label-bg" x="140.506" y="334.715" width="38" height="14" />
<text class="z-index" x="136.506" y="344.715" text-anchor="end">z:223</text>
<text class="label label-inv" x="174.506" y="344.715">INTRO</text>
</g>
</svg>