<svg xmlns="http://www.w3.org/2000/svg" width="794.016" height="801.04" viewBox="-802.362 60.849999999999994 794.016 801.04">
<style>
    .page { fill: #fff; stroke: #ccc; }
    .margin { fill: none; stroke: #aaa; stroke-dasharray: 4 2; }
    .column { fill: none; stroke: #ddd; }
    .grid { stroke: #eee; stroke-width: 0.5; }

    .text-frame { fill: rgba(0,0,255,0.08); stroke: #00f; }
    .image-frame { fill: rgba(255,165,0,0.15); stroke: #f90; }

    .frame-id { 
        font-size: 7px; 
        fill: #666;
    }
    
    .thread {
        fill: none;
        stroke: #888;
        stroke-dasharray: 3 3;
        stroke-width: 1;
    }

    .label {
        font-size: 9px;
        font-family: monospace;
    }

    .snippet {
        font-size: 12px;
        font-family: Inter, system-ui, -apple-system, Segoe UI, Roboto, Arial, sans-serif;
        fill: #111;
    }

    .label-bg {
        fill: #000;
        opacity: 0.75;
    }

    .label-inv {
        fill: #fff;
        text-anchor: end;
    }

    .z-index { 
        font-size: 7px; 
        fill: #333;
        text-anchor: end;
        paint-order: stroke fill;
        stroke: white;
        stroke-width: 2;
        stroke-linejoin: round;
    }

    .distance {
        stroke: red;
        stroke-width: 2.5;
        fill: none;
    }

    .edge-ghost {
        stroke: rgba(200, 0, 0, 0.4);
        stroke-width: 1.5;
        stroke-dasharray: 6 3;
        fill: none;
    }

    .arrowhead {
        fill: red;
    }
    
    .fender-zone {
        fill: url(#fender-hatch);
        stroke: none;
    }

    .fender-edge {
        stroke: #0891b2;
        stroke-width: 2;
        fill: none;
    }
</style>
<defs>
    <pattern id="baseline-grid" patternUnits="userSpaceOnUse" width="100%" height="11">
        <line x1="0" y1="0" x2="100%" y2="0" class="grid" />
    </pattern>
    <pattern id="checkerboard" patternUnits="userSpaceOnUse" width="20" height="20">
        <rect width="20" height="20" fill="#e8e8e8" stroke="none"/>
        <rect width="10" height="10" fill="#ffffff" stroke="none"/>
        <rect x="10" y="10" width="10" height="10" fill="#ffffff" stroke="none"/>
    </pattern>
    <pattern id="fender-hatch" patternUnits="userSpaceOnUse" width="8" height="8" patternTransform="rotate(45)">
        <line x1="0" y1="0" x2="0" y2="8" stroke="#0891b2" stroke-width="1.2" stroke-opacity="0.5" />
    </pattern>
</defs>


<g id="article">
<line class="thread" x1="-465.69199999999995" y1="841.89" x2="-454.29099999999994" y2="608.85" />
<line class="thread" x1="-301.2199999999999" y1="839.85" x2="-181.41699999999992" y2="575.85" />
<rect class="text-frame" x="-181.41699999999992" y="575.85" width="153.071" height="266.04" />
<rect class="label-bg" x="-66.34599999999992" y="827.8900000000001" width="38" height="14" />
<text class="z-index" x="-70.34599999999992" y="837.8900000000001" text-anchor="end">z:164</text>
<text class="label label-inv" x="-32.34599999999992" y="837.8900000000001">TEKST</text>
<rect class="text-frame" x="-782.362" y="300.85" width="316.67" height="541.04" />
<rect class="label-bg" x="-503.69199999999995" y="827.89" width="38" height="14" />
<text class="z-index" x="-507.69199999999995" y="837.89" text-anchor="end">z:165</text>
<text class="label label-inv" x="-469.69199999999995" y="837.89">TEKST</text>
<rect class="text-frame" x="-454.29099999999994" y="608.85" width="153.071" height="231" />
<rect class="label-bg" x="-339.2199999999999" y="825.85" width="38" height="14" />
<text class="z-index" x="-343.2199999999999" y="835.85" text-anchor="end">z:167</text>
<text class="label label-inv" x="-305.2199999999999" y="835.85">TEKST</text>
<rect class="text-frame" x="-617.953" y="731" width="152.261" height="108.85" />
<rect class="label-bg" x="-503.692" y="825.85" width="38" height="14" />
<text class="z-index" x="-507.692" y="835.85" text-anchor="end">z:168</text>
<text class="label label-inv" x="-469.692" y="835.85">QUOTE</text>
<rect class="text-frame" x="-290.349" y="707.85" width="97.998" height="110" />
<rect class="label-bg" x="-260.351" y="803.85" width="68" height="14" />
<text class="z-index" x="-264.351" y="813.85" text-anchor="end">z:169</text>
<text class="label label-inv" x="-196.351" y="813.85">BIJSCHRIFT</text>
<rect class="text-frame" x="-782.362" y="135.85" width="317.48" height="143" />
<rect class="label-bg" x="-490.88199999999995" y="264.85" width="26" height="14" />
<text class="z-index" x="-494.88199999999995" y="274.85" text-anchor="end">z:170</text>
<text class="label label-inv" x="-468.88199999999995" y="274.85">KOP</text>
<rect class="image-frame" x="-454.29099999999994" y="135.85" width="425.945" height="565.111" />
<rect class="label-bg" x="-66.34599999999995" y="686.961" width="38" height="14" />
<text class="z-index" x="-70.34599999999995" y="696.961" text-anchor="end">z:171</text>
<text class="label label-inv" x="-32.34599999999995" y="696.961">image</text>
<rect class="text-frame" x="-782.362" y="102.85" width="754.016" height="22" />
<rect class="label-bg" x="-84.346" y="110.85" width="56" height="14" />
<text class="z-index" x="-88.346" y="120.85" text-anchor="end">z:174</text>
<text class="label label-inv" x="-32.346000000000004" y="120.85">BOVENKOP</text>
<rect class="text-frame" x="-782.197" y="407.85" width="152.501" height="16.933" />
<rect class="label-bg" x="-673.696" y="410.783" width="44" height="14" />
<text class="z-index" x="-677.696" y="420.783" text-anchor="end">z:175</text>
<text class="label label-inv" x="-633.696" y="420.783">PLAATS</text>
<rect class="text-frame" x="-782.362" y="388.85" width="152.666" height="29.237" />
<rect class="label-bg" x="-673.6959999999999" y="404.08700000000005" width="44" height="14" />
<text class="z-index" x="-677.6959999999999" y="414.08700000000005" text-anchor="end">z:176</text>
<text class="label label-inv" x="-633.6959999999999" y="414.08700000000005">AUTEUR</text>
<rect class="text-frame" x="-782.362" y="300.85" width="152.583" height="89.865" />
<rect class="label-bg" x="-667.779" y="376.71500000000003" width="38" height="14" />
<text class="z-index" x="-671.779" y="386.71500000000003" text-anchor="end">z:177</text>
<text class="label label-inv" x="-633.779" y="386.71500000000003">INTRO</text>
</g>
</svg>