<svg xmlns="http://www.w3.org/2000/svg" width="794.016" height="1098.961" viewBox="827.559 60.849999999999994 794.016 1098.961">
<style>
    .page { fill: #fff; stroke: #ccc; }
    .margin { fill: none; stroke: #aaa; stroke-dasharray: 4 2; }
    .column { fill: none; stroke: #ddd; }
    .grid { stroke: #eee; stroke-width: 0.5; }

    .text-frame { fill: rgba(0,0,255,0.08); stroke: #00f; }
    .image-frame { fill: rgba(255,165,0,0.15); stroke: #f90; }

    .frame-id { 
        font-size: 7px; 
        fill: #666;
    }
    
    .thread {
        fill: none;
        stroke: #888;
        stroke-dasharray: 3 3;
        stroke-width: 1;
    }

    .label {
        font-size: 9px;
        font-family: monospace;
    }

    .snippet {
        font-size: 12px;
        font-family: Inter, system-ui, -apple-system, Segoe UI, Roboto, Arial, sans-serif;
        fill: #111;
    }

    .label-bg {
        fill: #000;
        opacity: 0.75;
    }

    .label-inv {
        fill: #fff;
        text-anchor: end;
    }

    .z-index { 
        font-size: 7px; 
        fill: #333;
        text-anchor: end;
        paint-order: stroke fill;
        stroke: white;
        stroke-width: 2;
        stroke-linejoin: round;
    }

    .distance {
        stroke: red;
        stroke-width: 2.5;
        fill: none;
    }

    .edge-ghost {
        stroke: rgba(200, 0, 0, 0.4);
        stroke-width: 1.5;
        stroke-dasharray: 6 3;
        fill: none;
    }

    .arrowhead {
        fill: red;
    }
    
    .fender-zone {
        fill: url(#fender-hatch);
        stroke: none;
    }

    .fender-edge {
        stroke: #0891b2;
        stroke-width: 2;
        fill: none;
    }
</style>
<defs>
    <pattern id="baseline-grid" patternUnits="userSpaceOnUse" width="100%" height="11">
        <line x1="0" y1="0" x2="100%" y2="0" class="grid" />
    </pattern>
    <pattern id="checkerboard" patternUnits="userSpaceOnUse" width="20" height="20">
        <rect width="20" height="20" fill="#e8e8e8" stroke="none"/>
        <rect width="10" height="10" fill="#ffffff" stroke="none"/>
        <rect x="10" y="10" width="10" height="10" fill="#ffffff" stroke="none"/>
    </pattern>
    <pattern id="fender-hatch" patternUnits="userSpaceOnUse" width="8" height="8" patternTransform="rotate(45)">
        <line x1="0" y1="0" x2="0" y2="8" stroke="#0891b2" stroke-width="1.2" stroke-opacity="0.5" />
    </pattern>
</defs>


<g id="article">
<line class="thread" x1="1328.234" y1="1136.85" x2="1448.909" y2="762.869" />
<rect class="text-frame" x="1339.5729999999999" y="1015.85" width="97.998" height="123.961" />
<rect class="label-bg" x="1399.571" y="1125.811" width="38" height="14" />
<text class="z-index" x="1395.571" y="1135.811" text-anchor="end">z:602</text>
<text class="label label-inv" x="1433.571" y="1135.811">QUOTE</text>
<rect class="text-frame" x="847.559" y="839.85" width="480.675" height="297" />
<rect class="label-bg" x="1290.234" y="1122.85" width="38" height="14" />
<text class="z-index" x="1286.234" y="1132.85" text-anchor="end">z:608</text>
<text class="label label-inv" x="1324.234" y="1132.85">TEKST</text>
<rect class="text-frame" x="847.842" y="630.8380000000001" width="753.732" height="121" />
<rect class="label-bg" x="1575.574" y="737.8380000000001" width="26" height="14" />
<text class="z-index" x="1571.574" y="747.8380000000001" text-anchor="end">z:609</text>
<text class="label label-inv" x="1597.574" y="747.8380000000001">KOP</text>
<rect class="text-frame" x="847.842" y="597.8380000000001" width="753.732" height="22" />
<rect class="label-bg" x="1533.574" y="605.8380000000001" width="68" height="14" />
<text class="z-index" x="1529.574" y="615.8380000000001" text-anchor="end">z:610</text>
<text class="label label-inv" x="1597.574" y="615.8380000000001">BIJSCHRIFT</text>
<rect class="image-frame" x="847.559" y="135.85" width="754.016" height="457.988" />
<rect class="label-bg" x="1563.5749999999998" y="579.838" width="38" height="14" />
<text class="z-index" x="1559.5749999999998" y="589.838" text-anchor="end">z:611</text>
<text class="label label-inv" x="1597.5749999999998" y="589.838">image</text>
<rect class="text-frame" x="1339.5729999999999" y="949.85" width="97.998" height="55" />
<rect class="label-bg" x="1369.571" y="990.85" width="68" height="14" />
<text class="z-index" x="1365.571" y="1000.85" text-anchor="end">z:612</text>
<text class="label label-inv" x="1433.571" y="1000.85">BIJSCHRIFT</text>
<rect class="image-frame" x="1175.568" y="765.8380000000001" width="262.002" height="177.587" />
<rect class="label-bg" x="1399.57" y="929.4250000000001" width="38" height="14" />
<text class="z-index" x="1395.57" y="939.4250000000001" text-anchor="end">z:613</text>
<text class="label label-inv" x="1433.57" y="939.4250000000001">image</text>
<rect class="text-frame" x="847.559" y="102.85" width="754.016" height="15.821" />
<rect class="label-bg" x="1545.5749999999998" y="104.67099999999999" width="56" height="14" />
<text class="z-index" x="1541.5749999999998" y="114.67099999999999" text-anchor="end">z:614</text>
<text class="label label-inv" x="1597.5749999999998" y="114.67099999999999">BOVENKOP</text>
<rect class="text-frame" x="847.559" y="102.85" width="56.958" height="15.821" />
<rect class="label-bg" x="854.5169999999999" y="104.67099999999999" width="50" height="14" />
<text class="z-index" x="850.5169999999999" y="114.67099999999999" text-anchor="end">z:615</text>
<text class="label label-inv" x="900.5169999999999" y="114.67099999999999">SPECIAL</text>
<rect class="text-frame" x="1448.909" y="762.869" width="152.666" height="373.981" />
<rect class="label-bg" x="1563.575" y="1122.85" width="38" height="14" />
<text class="z-index" x="1559.575" y="1132.85" text-anchor="end">z:616</text>
<text class="label label-inv" x="1597.575" y="1132.85">TEKST</text>
<rect class="text-frame" x="848.007" y="858.85" width="152.623" height="6.696" />
<rect class="label-bg" x="956.6299999999999" y="851.546" width="44" height="14" />
<text class="z-index" x="952.6299999999999" y="861.546" text-anchor="end">z:617</text>
<text class="label label-inv" x="996.6299999999999" y="861.546">PLAATS</text>
<rect class="text-frame" x="847.842" y="839.85" width="152.788" height="18.237" />
<rect class="label-bg" x="956.63" y="844.087" width="44" height="14" />
<text class="z-index" x="952.63" y="854.087" text-anchor="end">z:618</text>
<text class="label label-inv" x="996.63" y="854.087">AUTEUR</text>
<rect class="text-frame" x="847.842" y="762.85" width="316.387" height="68.725" />
<rect class="label-bg" x="1126.229" y="817.575" width="38" height="14" />
<text class="z-index" x="1122.229" y="827.575" text-anchor="end">z:619</text>
<text class="label label-inv" x="1160.229" y="827.575">INTRO</text>
</g>
</svg>