<svg xmlns="http://www.w3.org/2000/svg" width="640.945" height="1097" viewBox="169.921 60.849999999999994 640.945 1097">
<style>
    .page { fill: #fff; stroke: #ccc; }
    .margin { fill: none; stroke: #aaa; stroke-dasharray: 4 2; }
    .column { fill: none; stroke: #ddd; }
    .grid { stroke: #eee; stroke-width: 0.5; }

    .text-frame { fill: rgba(0,0,255,0.08); stroke: #00f; }
    .image-frame { fill: rgba(255,165,0,0.15); stroke: #f90; }

    .frame-id { 
        font-size: 7px; 
        fill: #666;
    }
    
    .thread {
        fill: none;
        stroke: #888;
        stroke-dasharray: 3 3;
        stroke-width: 1;
    }

    .label {
        font-size: 9px;
        font-family: monospace;
    }

    .snippet {
        font-size: 12px;
        font-family: Inter, system-ui, -apple-system, Segoe UI, Roboto, Arial, sans-serif;
        fill: #111;
    }

    .label-bg {
        fill: #000;
        opacity: 0.75;
    }

    .label-inv {
        fill: #fff;
        text-anchor: end;
    }

    .z-index { 
        font-size: 7px; 
        fill: #333;
        text-anchor: end;
        paint-order: stroke fill;
        stroke: white;
        stroke-width: 2;
        stroke-linejoin: round;
    }

    .distance {
        stroke: red;
        stroke-width: 2.5;
        fill: none;
    }

    .edge-ghost {
        stroke: rgba(200, 0, 0, 0.4);
        stroke-width: 1.5;
        stroke-dasharray: 6 3;
        fill: none;
    }

    .arrowhead {
        fill: red;
    }
    
    .fender-zone {
        fill: url(#fender-hatch);
        stroke: none;
    }

    .fender-edge {
        stroke: #0891b2;
        stroke-width: 2;
        fill: none;
    }
</style>
<defs>
    <pattern id="baseline-grid" patternUnits="userSpaceOnUse" width="100%" height="11">
        <line x1="0" y1="0" x2="100%" y2="0" class="grid" />
    </pattern>
    <pattern id="checkerboard" patternUnits="userSpaceOnUse" width="20" height="20">
        <rect width="20" height="20" fill="#e8e8e8" stroke="none"/>
        <rect width="10" height="10" fill="#ffffff" stroke="none"/>
        <rect x="10" y="10" width="10" height="10" fill="#ffffff" stroke="none"/>
    </pattern>
    <pattern id="fender-hatch" patternUnits="userSpaceOnUse" width="8" height="8" patternTransform="rotate(45)">
        <line x1="0" y1="0" x2="0" y2="8" stroke="#0891b2" stroke-width="1.2" stroke-opacity="0.5" />
    </pattern>
</defs>


<g id="article">
<line class="thread" x1="506.591" y1="1136.85" x2="626.861" y2="718.85" />
<rect class="text-frame" x="189.921" y="102.85" width="589.606" height="22" />
<rect class="label-bg" x="723.527" y="110.85" width="56" height="14" />
<text class="z-index" x="719.527" y="120.85" text-anchor="end">z:718</text>
<text class="label label-inv" x="775.527" y="120.85">BOVENKOP</text>
<rect class="text-frame" x="189.921" y="586.85" width="589.606" height="121" />
<rect class="label-bg" x="753.527" y="693.85" width="26" height="14" />
<text class="z-index" x="749.527" y="703.85" text-anchor="end">z:719</text>
<text class="label label-inv" x="775.527" y="703.85">KOP</text>
<rect class="text-frame" x="189.921" y="553.851" width="589.606" height="22" />
<rect class="label-bg" x="711.527" y="561.851" width="68" height="14" />
<text class="z-index" x="707.527" y="571.851" text-anchor="end">z:720</text>
<text class="label label-inv" x="775.527" y="571.851">BIJSCHRIFT</text>
<rect class="image-frame" x="189.921" y="135.85" width="589.606" height="413" />
<rect class="label-bg" x="741.527" y="534.85" width="38" height="14" />
<text class="z-index" x="737.527" y="544.85" text-anchor="end">z:721</text>
<text class="label label-inv" x="775.527" y="544.85">image</text>
<rect class="text-frame" x="626.861" y="718.85" width="152.666" height="418" />
<rect class="label-bg" x="741.527" y="1122.85" width="38" height="14" />
<text class="z-index" x="737.527" y="1132.85" text-anchor="end">z:722</text>
<text class="label label-inv" x="775.527" y="1132.85">TEKST</text>
<rect class="text-frame" x="517.9300000000001" y="961.85" width="97.998" height="176" />
<rect class="label-bg" x="577.9280000000001" y="1123.85" width="38" height="14" />
<text class="z-index" x="573.9280000000001" y="1133.85" text-anchor="end">z:723</text>
<text class="label label-inv" x="611.9280000000001" y="1133.85">QUOTE</text>
<rect class="text-frame" x="189.921" y="784.85" width="316.67" height="352" />
<rect class="label-bg" x="468.591" y="1122.85" width="38" height="14" />
<text class="z-index" x="464.591" y="1132.85" text-anchor="end">z:724</text>
<text class="label label-inv" x="502.591" y="1132.85">TEKST</text>
<rect class="text-frame" x="190.07999999999998" y="803.85" width="147.242" height="6.696" />
<rect class="label-bg" x="293.322" y="796.546" width="44" height="14" />
<text class="z-index" x="289.322" y="806.546" text-anchor="end">z:725</text>
<text class="label label-inv" x="333.322" y="806.546">PLAATS</text>
<rect class="text-frame" x="189.921" y="784.85" width="147.402" height="18.237" />
<rect class="label-bg" x="293.323" y="789.087" width="44" height="14" />
<text class="z-index" x="289.323" y="799.087" text-anchor="end">z:726</text>
<text class="label label-inv" x="333.323" y="799.087">AUTEUR</text>
<rect class="text-frame" x="189.921" y="718.85" width="426.007" height="50.725" />
<rect class="label-bg" x="577.928" y="755.575" width="38" height="14" />
<text class="z-index" x="573.928" y="765.575" text-anchor="end">z:727</text>
<text class="label label-inv" x="611.928" y="765.575">INTRO</text>
</g>
</svg>