<svg xmlns="http://www.w3.org/2000/svg" width="488.423" height="1097.173" viewBox="827.559 60.849999999999994 488.423 1097.173">
<style>
    .page { fill: #fff; stroke: #ccc; }
    .margin { fill: none; stroke: #aaa; stroke-dasharray: 4 2; }
    .column { fill: none; stroke: #ddd; }
    .grid { stroke: #eee; stroke-width: 0.5; }

    .text-frame { fill: rgba(0,0,255,0.08); stroke: #00f; }
    .image-frame { fill: rgba(255,165,0,0.15); stroke: #f90; }

    .frame-id { 
        font-size: 7px; 
        fill: #666;
    }
    
    .thread {
        fill: none;
        stroke: #888;
        stroke-dasharray: 3 3;
        stroke-width: 1;
    }

    .label {
        font-size: 9px;
        font-family: monospace;
    }

    .snippet {
        font-size: 12px;
        font-family: Inter, system-ui, -apple-system, Segoe UI, Roboto, Arial, sans-serif;
        fill: #111;
    }

    .label-bg {
        fill: #000;
        opacity: 0.75;
    }

    .label-inv {
        fill: #fff;
        text-anchor: end;
    }

    .z-index { 
        font-size: 7px; 
        fill: #333;
        text-anchor: end;
        paint-order: stroke fill;
        stroke: white;
        stroke-width: 2;
        stroke-linejoin: round;
    }

    .distance {
        stroke: red;
        stroke-width: 2.5;
        fill: none;
    }

    .edge-ghost {
        stroke: rgba(200, 0, 0, 0.4);
        stroke-width: 1.5;
        stroke-dasharray: 6 3;
        fill: none;
    }

    .arrowhead {
        fill: red;
    }
    
    .fender-zone {
        fill: url(#fender-hatch);
        stroke: none;
    }

    .fender-edge {
        stroke: #0891b2;
        stroke-width: 2;
        fill: none;
    }
</style>
<defs>
    <pattern id="baseline-grid" patternUnits="userSpaceOnUse" width="100%" height="11">
        <line x1="0" y1="0" x2="100%" y2="0" class="grid" />
    </pattern>
    <pattern id="checkerboard" patternUnits="userSpaceOnUse" width="20" height="20">
        <rect width="20" height="20" fill="#e8e8e8" stroke="none"/>
        <rect width="10" height="10" fill="#ffffff" stroke="none"/>
        <rect x="10" y="10" width="10" height="10" fill="#ffffff" stroke="none"/>
    </pattern>
    <pattern id="fender-hatch" patternUnits="userSpaceOnUse" width="8" height="8" patternTransform="rotate(45)">
        <line x1="0" y1="0" x2="0" y2="8" stroke="#0891b2" stroke-width="1.2" stroke-opacity="0.5" />
    </pattern>
</defs>


<g id="article">

<rect class="text-frame" x="858.898" y="102.85" width="436.535" height="22" />
<rect class="label-bg" x="1239.433" y="110.85" width="56" height="14" />
<text class="z-index" x="1235.433" y="120.85" text-anchor="end">z:745</text>
<text class="label label-inv" x="1291.433" y="120.85">BOVENKOP</text>
<rect class="text-frame" x="858.898" y="696.462" width="436.535" height="441.562" />
<rect class="label-bg" x="1257.433" y="1124.024" width="38" height="14" />
<text class="z-index" x="1253.433" y="1134.024" text-anchor="end">z:749</text>
<text class="label label-inv" x="1291.433" y="1134.024">TEKST</text>
<rect class="text-frame" x="1007.9979999999999" y="1026.85" width="138.144" height="111.173" />
<rect class="label-bg" x="1108.1419999999998" y="1124.023" width="38" height="14" />
<text class="z-index" x="1104.1419999999998" y="1134.023" text-anchor="end">z:750</text>
<text class="label label-inv" x="1142.1419999999998" y="1134.023">QUOTE</text>
<rect class="text-frame" x="859.4459999999999" y="421.85" width="436.535" height="22" />
<rect class="label-bg" x="1227.981" y="429.85" width="68" height="14" />
<text class="z-index" x="1223.981" y="439.85" text-anchor="end">z:751</text>
<text class="label label-inv" x="1291.981" y="439.85">BIJSCHRIFT</text>
<rect class="image-frame" x="858.898" y="135.85" width="436.488" height="281.715" />
<rect class="label-bg" x="1257.386" y="403.56499999999994" width="38" height="14" />
<text class="z-index" x="1253.386" y="413.56499999999994" text-anchor="end">z:752</text>
<text class="label label-inv" x="1291.386" y="413.56499999999994">image</text>
<rect class="text-frame" x="858.898" y="454.85" width="436.535" height="110" />
<rect class="label-bg" x="1269.433" y="550.85" width="26" height="14" />
<text class="z-index" x="1265.433" y="560.85" text-anchor="end">z:753</text>
<text class="label label-inv" x="1291.433" y="560.85">KOP</text>
<rect class="text-frame" x="1008.7379999999999" y="773.85" width="287.244" height="22" />
<rect class="label-bg" x="1227.982" y="781.85" width="68" height="14" />
<text class="z-index" x="1223.982" y="791.85" text-anchor="end">z:754</text>
<text class="label label-inv" x="1291.982" y="791.85">BIJSCHRIFT</text>
<rect class="image-frame" x="1008.7379999999999" y="568.299" width="287.244" height="200.169" />
<rect class="label-bg" x="1257.982" y="754.468" width="38" height="14" />
<text class="z-index" x="1253.982" y="764.468" text-anchor="end">z:755</text>
<text class="label label-inv" x="1291.982" y="764.468">image</text>
<rect class="text-frame" x="859.047" y="679.529" width="137.804" height="31.254" />
<rect class="label-bg" x="952.851" y="696.783" width="44" height="14" />
<text class="z-index" x="948.851" y="706.783" text-anchor="end">z:756</text>
<text class="label label-inv" x="992.851" y="706.783">PLAATS</text>
<rect class="text-frame" x="858.898" y="660.529" width="137.953" height="43.558" />
<rect class="label-bg" x="952.851" y="690.087" width="44" height="14" />
<text class="z-index" x="948.851" y="700.087" text-anchor="end">z:757</text>
<text class="label label-inv" x="992.851" y="700.087">AUTEUR</text>
<rect class="text-frame" x="858.898" y="572.529" width="137.878" height="102.865" />
<rect class="label-bg" x="958.7760000000001" y="661.394" width="38" height="14" />
<text class="z-index" x="954.7760000000001" y="671.394" text-anchor="end">z:758</text>
<text class="label label-inv" x="992.7760000000001" y="671.394">INTRO</text>
</g>
</svg>