<svg xmlns="http://www.w3.org/2000/svg" width="334.803" height="799" viewBox="16.85 60.849999999999994 334.803 799">
<style>
    .page { fill: #fff; stroke: #ccc; }
    .margin { fill: none; stroke: #aaa; stroke-dasharray: 4 2; }
    .column { fill: none; stroke: #ddd; }
    .grid { stroke: #eee; stroke-width: 0.5; }

    .text-frame { fill: rgba(0,0,255,0.08); stroke: #00f; }
    .image-frame { fill: rgba(255,165,0,0.15); stroke: #f90; }

    .frame-id { 
        font-size: 7px; 
        fill: #666;
    }
    
    .thread {
        fill: none;
        stroke: #888;
        stroke-dasharray: 3 3;
        stroke-width: 1;
    }

    .label {
        font-size: 9px;
        font-family: monospace;
    }

    .snippet {
        font-size: 12px;
        font-family: Inter, system-ui, -apple-system, Segoe UI, Roboto, Arial, sans-serif;
        fill: #111;
    }

    .label-bg {
        fill: #000;
        opacity: 0.75;
    }

    .label-inv {
        fill: #fff;
        text-anchor: end;
    }

    .z-index { 
        font-size: 7px; 
        fill: #333;
        text-anchor: end;
        paint-order: stroke fill;
        stroke: white;
        stroke-width: 2;
        stroke-linejoin: round;
    }

    .distance {
        stroke: red;
        stroke-width: 2.5;
        fill: none;
    }

    .edge-ghost {
        stroke: rgba(200, 0, 0, 0.4);
        stroke-width: 1.5;
        stroke-dasharray: 6 3;
        fill: none;
    }

    .arrowhead {
        fill: red;
    }
    
    .fender-zone {
        fill: url(#fender-hatch);
        stroke: none;
    }

    .fender-edge {
        stroke: #0891b2;
        stroke-width: 2;
        fill: none;
    }
</style>
<defs>
    <pattern id="baseline-grid" patternUnits="userSpaceOnUse" width="100%" height="11">
        <line x1="0" y1="0" x2="100%" y2="0" class="grid" />
    </pattern>
    <pattern id="checkerboard" patternUnits="userSpaceOnUse" width="20" height="20">
        <rect width="20" height="20" fill="#e8e8e8" stroke="none"/>
        <rect width="10" height="10" fill="#ffffff" stroke="none"/>
        <rect x="10" y="10" width="10" height="10" fill="#ffffff" stroke="none"/>
    </pattern>
    <pattern id="fender-hatch" patternUnits="userSpaceOnUse" width="8" height="8" patternTransform="rotate(45)">
        <line x1="0" y1="0" x2="0" y2="8" stroke="#0891b2" stroke-width="1.2" stroke-opacity="0.5" />
    </pattern>
</defs>


<g id="article">
<line class="thread" x1="178.582" y1="839.85" x2="189.921" y2="245.85" />
<rect class="text-frame" x="36.85" y="333.85" width="141.732" height="506" />
<rect class="label-bg" x="140.582" y="825.85" width="38" height="14" />
<text class="z-index" x="136.582" y="835.85" text-anchor="end">z:288</text>
<text class="label label-inv" x="174.582" y="835.85">TEKST</text>
<rect class="text-frame" x="36.85" y="102.85" width="294.803" height="132" />
<rect class="label-bg" x="305.653" y="220.85" width="26" height="14" />
<text class="z-index" x="301.653" y="230.85" text-anchor="end">z:289</text>
<text class="label label-inv" x="327.653" y="230.85">KOP</text>
<rect class="image-frame" x="189.921" y="630.85" width="90.709" height="90.709" />
<rect class="label-bg" x="242.63" y="707.559" width="38" height="14" />
<text class="z-index" x="238.63" y="717.559" text-anchor="end">z:290</text>
<text class="label label-inv" x="276.63" y="717.559">image</text>
<rect class="text-frame" x="189.921" y="729.851" width="141.732" height="110" />
<rect class="label-bg" x="293.653" y="825.851" width="38" height="14" />
<text class="z-index" x="289.653" y="835.851" text-anchor="end">z:291</text>
<text class="label label-inv" x="327.653" y="835.851">QUOTE</text>
<rect class="text-frame" x="189.921" y="245.85" width="141.732" height="374" />
<rect class="label-bg" x="293.653" y="605.85" width="38" height="14" />
<text class="z-index" x="289.653" y="615.85" text-anchor="end">z:292</text>
<text class="label label-inv" x="327.653" y="615.85">TEKST</text>
<rect class="text-frame" x="37.003" y="341.85" width="141.579" height="16.933" />
<rect class="label-bg" x="134.582" y="344.783" width="44" height="14" />
<text class="z-index" x="130.582" y="354.783" text-anchor="end">z:293</text>
<text class="label label-inv" x="174.582" y="354.783">PLAATS</text>
<rect class="text-frame" x="36.85" y="322.85" width="141.732" height="29.237" />
<rect class="label-bg" x="134.582" y="338.08700000000005" width="44" height="14" />
<text class="z-index" x="130.582" y="348.08700000000005" text-anchor="end">z:294</text>
<text class="label label-inv" x="174.582" y="348.08700000000005">AUTEUR</text>
<rect class="text-frame" x="36.85" y="245.85" width="141.656" height="77" />
<rect class="label-bg" x="140.506" y="308.85" width="38" height="14" />
<text class="z-index" x="136.506" y="318.85" text-anchor="end">z:295</text>
<text class="label label-inv" x="174.506" y="318.85">INTRO</text>
</g>
</svg>