<svg xmlns="http://www.w3.org/2000/svg" width="794.016" height="1098.11" viewBox="827.559 60.849999999999994 794.016 1098.11">
<style>
    .page { fill: #fff; stroke: #ccc; }
    .margin { fill: none; stroke: #aaa; stroke-dasharray: 4 2; }
    .column { fill: none; stroke: #ddd; }
    .grid { stroke: #eee; stroke-width: 0.5; }

    .text-frame { fill: rgba(0,0,255,0.08); stroke: #00f; }
    .image-frame { fill: rgba(255,165,0,0.15); stroke: #f90; }

    .frame-id { 
        font-size: 7px; 
        fill: #666;
    }
    
    .thread {
        fill: none;
        stroke: #888;
        stroke-dasharray: 3 3;
        stroke-width: 1;
    }

    .label {
        font-size: 9px;
        font-family: monospace;
    }

    .snippet {
        font-size: 12px;
        font-family: Inter, system-ui, -apple-system, Segoe UI, Roboto, Arial, sans-serif;
        fill: #111;
    }

    .label-bg {
        fill: #000;
        opacity: 0.75;
    }

    .label-inv {
        fill: #fff;
        text-anchor: end;
    }

    .z-index { 
        font-size: 7px; 
        fill: #333;
        text-anchor: end;
        paint-order: stroke fill;
        stroke: white;
        stroke-width: 2;
        stroke-linejoin: round;
    }

    .distance {
        stroke: red;
        stroke-width: 2.5;
        fill: none;
    }

    .edge-ghost {
        stroke: rgba(200, 0, 0, 0.4);
        stroke-width: 1.5;
        stroke-dasharray: 6 3;
        fill: none;
    }

    .arrowhead {
        fill: red;
    }
    
    .fender-zone {
        fill: url(#fender-hatch);
        stroke: none;
    }

    .fender-edge {
        stroke: #0891b2;
        stroke-width: 2;
        fill: none;
    }
</style>
<defs>
    <pattern id="baseline-grid" patternUnits="userSpaceOnUse" width="100%" height="11">
        <line x1="0" y1="0" x2="100%" y2="0" class="grid" />
    </pattern>
    <pattern id="checkerboard" patternUnits="userSpaceOnUse" width="20" height="20">
        <rect width="20" height="20" fill="#e8e8e8" stroke="none"/>
        <rect width="10" height="10" fill="#ffffff" stroke="none"/>
        <rect x="10" y="10" width="10" height="10" fill="#ffffff" stroke="none"/>
    </pattern>
    <pattern id="fender-hatch" patternUnits="userSpaceOnUse" width="8" height="8" patternTransform="rotate(45)">
        <line x1="0" y1="0" x2="0" y2="8" stroke="#0891b2" stroke-width="1.2" stroke-opacity="0.5" />
    </pattern>
</defs>


<g id="article">

<rect class="text-frame" x="847.559" y="278.85" width="754.016" height="860.111" />
<rect class="label-bg" x="1563.5749999999998" y="1124.961" width="38" height="14" />
<text class="z-index" x="1559.5749999999998" y="1134.961" text-anchor="end">z:174</text>
<text class="label label-inv" x="1597.5749999999998" y="1134.961">TEKST</text>
<rect class="text-frame" x="1153.701" y="960.85" width="141.732" height="178.111" />
<rect class="label-bg" x="1257.433" y="1124.961" width="38" height="14" />
<text class="z-index" x="1253.433" y="1134.961" text-anchor="end">z:175</text>
<text class="label label-inv" x="1291.433" y="1134.961">QUOTE</text>
<rect class="image-frame" x="1000.63" y="278.85" width="447.874" height="653.134" />
<rect class="label-bg" x="1410.504" y="917.984" width="38" height="14" />
<text class="z-index" x="1406.504" y="927.984" text-anchor="end">z:176</text>
<text class="label label-inv" x="1444.504" y="927.984">image</text>
<rect class="text-frame" x="1004.882" y="938.85" width="447.874" height="15.15" />
<rect class="label-bg" x="1384.7559999999999" y="940" width="68" height="14" />
<text class="z-index" x="1380.7559999999999" y="950" text-anchor="end">z:177</text>
<text class="label label-inv" x="1448.7559999999999" y="950">BIJSCHRIFT</text>
<rect class="text-frame" x="847.559" y="138.85" width="754.016" height="129" />
<rect class="label-bg" x="1575.5749999999998" y="253.85000000000002" width="26" height="14" />
<text class="z-index" x="1571.5749999999998" y="263.85" text-anchor="end">z:178</text>
<text class="label label-inv" x="1597.5749999999998" y="263.85">KOP</text>
<rect class="text-frame" x="847.559" y="102.85" width="754.016" height="15.821" />
<rect class="label-bg" x="1545.5749999999998" y="104.67099999999999" width="56" height="14" />
<text class="z-index" x="1541.5749999999998" y="114.67099999999999" text-anchor="end">z:179</text>
<text class="label label-inv" x="1597.5749999999998" y="114.67099999999999">BOVENKOP</text>
<rect class="text-frame" x="847.559" y="102.85" width="56.958" height="15.821" />
<rect class="label-bg" x="854.5169999999999" y="104.67099999999999" width="50" height="14" />
<text class="z-index" x="850.5169999999999" y="114.67099999999999" text-anchor="end">z:180</text>
<text class="label label-inv" x="900.5169999999999" y="114.67099999999999">SPECIAL</text>
<rect class="text-frame" x="1459.8429999999998" y="487.85" width="141.732" height="33" />
<rect class="label-bg" x="1533.5749999999998" y="506.85" width="68" height="14" />
<text class="z-index" x="1529.5749999999998" y="516.85" text-anchor="end">z:181</text>
<text class="label label-inv" x="1597.5749999999998" y="516.85">BIJSCHRIFT</text>
<rect class="image-frame" x="1459.8429999999998" y="278.85" width="141.732" height="202.384" />
<rect class="label-bg" x="1563.5749999999998" y="467.23400000000004" width="38" height="14" />
<text class="z-index" x="1559.5749999999998" y="477.23400000000004" text-anchor="end">z:182</text>
<text class="label label-inv" x="1597.5749999999998" y="477.23400000000004">image</text>
<rect class="text-frame" x="847.712" y="484.879" width="141.579" height="60.904" />
<rect class="label-bg" x="945.2909999999999" y="531.783" width="44" height="14" />
<text class="z-index" x="941.2909999999999" y="541.783" text-anchor="end">z:183</text>
<text class="label label-inv" x="985.2909999999999" y="541.783">PLAATS</text>
<rect class="text-frame" x="847.559" y="465.879" width="141.732" height="73.208" />
<rect class="label-bg" x="945.2909999999999" y="525.087" width="44" height="14" />
<text class="z-index" x="941.2909999999999" y="535.087" text-anchor="end">z:184</text>
<text class="label label-inv" x="985.2909999999999" y="535.087">AUTEUR</text>
<rect class="text-frame" x="847.559" y="278.85" width="141.732" height="230.725" />
<rect class="label-bg" x="951.2909999999999" y="495.57500000000005" width="38" height="14" />
<text class="z-index" x="947.2909999999999" y="505.57500000000005" text-anchor="end">z:185</text>
<text class="label label-inv" x="985.2909999999999" y="505.57500000000005">INTRO</text>
</g>
</svg>