<svg xmlns="http://www.w3.org/2000/svg" width="640.945" height="537.701" viewBox="16.85 60.849999999999994 640.945 537.701">
<style>
    .page { fill: #fff; stroke: #ccc; }
    .margin { fill: none; stroke: #aaa; stroke-dasharray: 4 2; }
    .column { fill: none; stroke: #ddd; }
    .grid { stroke: #eee; stroke-width: 0.5; }

    .text-frame { fill: rgba(0,0,255,0.08); stroke: #00f; }
    .image-frame { fill: rgba(255,165,0,0.15); stroke: #f90; }

    .frame-id { 
        font-size: 7px; 
        fill: #666;
    }
    
    .thread {
        fill: none;
        stroke: #888;
        stroke-dasharray: 3 3;
        stroke-width: 1;
    }

    .label {
        font-size: 9px;
        font-family: monospace;
    }

    .snippet {
        font-size: 12px;
        font-family: Inter, system-ui, -apple-system, Segoe UI, Roboto, Arial, sans-serif;
        fill: #111;
    }

    .label-bg {
        fill: #000;
        opacity: 0.75;
    }

    .label-inv {
        fill: #fff;
        text-anchor: end;
    }

    .z-index { 
        font-size: 7px; 
        fill: #333;
        text-anchor: end;
        paint-order: stroke fill;
        stroke: white;
        stroke-width: 2;
        stroke-linejoin: round;
    }

    .distance {
        stroke: red;
        stroke-width: 2.5;
        fill: none;
    }

    .edge-ghost {
        stroke: rgba(200, 0, 0, 0.4);
        stroke-width: 1.5;
        stroke-dasharray: 6 3;
        fill: none;
    }

    .arrowhead {
        fill: red;
    }
    
    .fender-zone {
        fill: url(#fender-hatch);
        stroke: none;
    }

    .fender-edge {
        stroke: #0891b2;
        stroke-width: 2;
        fill: none;
    }
</style>
<defs>
    <pattern id="baseline-grid" patternUnits="userSpaceOnUse" width="100%" height="11">
        <line x1="0" y1="0" x2="100%" y2="0" class="grid" />
    </pattern>
    <pattern id="checkerboard" patternUnits="userSpaceOnUse" width="20" height="20">
        <rect width="20" height="20" fill="#e8e8e8" stroke="none"/>
        <rect width="10" height="10" fill="#ffffff" stroke="none"/>
        <rect x="10" y="10" width="10" height="10" fill="#ffffff" stroke="none"/>
    </pattern>
    <pattern id="fender-hatch" patternUnits="userSpaceOnUse" width="8" height="8" patternTransform="rotate(45)">
        <line x1="0" y1="0" x2="0" y2="8" stroke="#0891b2" stroke-width="1.2" stroke-opacity="0.5" />
    </pattern>
</defs>


<g id="article">

<rect class="text-frame" x="36.85" y="245.85" width="589.606" height="332.701" />
<rect class="label-bg" x="588.456" y="564.551" width="38" height="14" />
<text class="z-index" x="584.456" y="574.551" text-anchor="end">z:53</text>
<text class="label label-inv" x="622.456" y="574.551">TEKST</text>
<rect class="text-frame" x="187.033" y="465.85" width="289.241" height="22" />
<rect class="label-bg" x="408.274" y="473.85" width="68" height="14" />
<text class="z-index" x="404.274" y="483.85" text-anchor="end">z:54</text>
<text class="label label-inv" x="472.274" y="483.85">BIJSCHRIFT</text>
<rect class="image-frame" x="187.033" y="248.882" width="289.241" height="212.598" />
<rect class="label-bg" x="438.274" y="447.48" width="38" height="14" />
<text class="z-index" x="434.274" y="457.48" text-anchor="end">z:55</text>
<text class="label label-inv" x="472.274" y="457.48">image</text>
<rect class="text-frame" x="36.85" y="135.85" width="589.606" height="99" />
<rect class="label-bg" x="600.456" y="220.85" width="26" height="14" />
<text class="z-index" x="596.456" y="230.85" text-anchor="end">z:56</text>
<text class="label label-inv" x="622.456" y="230.85">KOP</text>
<rect class="text-frame" x="487.559" y="376.94899999999996" width="138.898" height="77.901" />
<rect class="label-bg" x="588.457" y="440.84999999999997" width="38" height="14" />
<text class="z-index" x="584.457" y="450.84999999999997" text-anchor="end">z:57</text>
<text class="label label-inv" x="622.457" y="450.84999999999997">QUOTE</text>
<rect class="text-frame" x="36.85" y="102.85" width="589.606" height="15.821" />
<rect class="label-bg" x="570.456" y="104.67099999999999" width="56" height="14" />
<text class="z-index" x="566.456" y="114.67099999999999" text-anchor="end">z:61</text>
<text class="label label-inv" x="622.456" y="114.67099999999999">BOVENKOP</text>
<rect class="text-frame" x="36.85" y="102.85" width="57.221" height="15.821" />
<rect class="label-bg" x="44.071" y="104.67099999999999" width="50" height="14" />
<text class="z-index" x="40.071" y="114.67099999999999" text-anchor="end">z:63</text>
<text class="label label-inv" x="90.071" y="114.67099999999999">SPECIAL</text>
<rect class="text-frame" x="36.85" y="352.85" width="141.579" height="27.933" />
<rect class="label-bg" x="134.429" y="366.783" width="44" height="14" />
<text class="z-index" x="130.429" y="376.783" text-anchor="end">z:64</text>
<text class="label label-inv" x="174.429" y="376.783">PLAATS</text>
<rect class="text-frame" x="36.85" y="333.85" width="141.732" height="40.237" />
<rect class="label-bg" x="134.582" y="360.08700000000005" width="44" height="14" />
<text class="z-index" x="130.582" y="370.08700000000005" text-anchor="end">z:65</text>
<text class="label label-inv" x="174.582" y="370.08700000000005">AUTEUR</text>
<rect class="text-frame" x="36.85" y="245.85" width="141.656" height="102.865" />
<rect class="label-bg" x="140.506" y="334.715" width="38" height="14" />
<text class="z-index" x="136.506" y="344.715" text-anchor="end">z:66</text>
<text class="label label-inv" x="174.506" y="344.715">INTRO</text>
</g>
</svg>