<svg xmlns="http://www.w3.org/2000/svg" width="640.945" height="1096" viewBox="827.559 60.849999999999994 640.945 1096">
<style>
    .page { fill: #fff; stroke: #ccc; }
    .margin { fill: none; stroke: #aaa; stroke-dasharray: 4 2; }
    .column { fill: none; stroke: #ddd; }
    .grid { stroke: #eee; stroke-width: 0.5; }

    .text-frame { fill: rgba(0,0,255,0.08); stroke: #00f; }
    .image-frame { fill: rgba(255,165,0,0.15); stroke: #f90; }

    .frame-id { 
        font-size: 7px; 
        fill: #666;
    }
    
    .thread {
        fill: none;
        stroke: #888;
        stroke-dasharray: 3 3;
        stroke-width: 1;
    }

    .label {
        font-size: 9px;
        font-family: monospace;
    }

    .snippet {
        font-size: 12px;
        font-family: Inter, system-ui, -apple-system, Segoe UI, Roboto, Arial, sans-serif;
        fill: #111;
    }

    .label-bg {
        fill: #000;
        opacity: 0.75;
    }

    .label-inv {
        fill: #fff;
        text-anchor: end;
    }

    .z-index { 
        font-size: 7px; 
        fill: #333;
        text-anchor: end;
        paint-order: stroke fill;
        stroke: white;
        stroke-width: 2;
        stroke-linejoin: round;
    }

    .distance {
        stroke: red;
        stroke-width: 2.5;
        fill: none;
    }

    .edge-ghost {
        stroke: rgba(200, 0, 0, 0.4);
        stroke-width: 1.5;
        stroke-dasharray: 6 3;
        fill: none;
    }

    .arrowhead {
        fill: red;
    }
    
    .fender-zone {
        fill: url(#fender-hatch);
        stroke: none;
    }

    .fender-edge {
        stroke: #0891b2;
        stroke-width: 2;
        fill: none;
    }
</style>
<defs>
    <pattern id="baseline-grid" patternUnits="userSpaceOnUse" width="100%" height="11">
        <line x1="0" y1="0" x2="100%" y2="0" class="grid" />
    </pattern>
    <pattern id="checkerboard" patternUnits="userSpaceOnUse" width="20" height="20">
        <rect width="20" height="20" fill="#e8e8e8" stroke="none"/>
        <rect width="10" height="10" fill="#ffffff" stroke="none"/>
        <rect x="10" y="10" width="10" height="10" fill="#ffffff" stroke="none"/>
    </pattern>
    <pattern id="fender-hatch" patternUnits="userSpaceOnUse" width="8" height="8" patternTransform="rotate(45)">
        <line x1="0" y1="0" x2="0" y2="8" stroke="#0891b2" stroke-width="1.2" stroke-opacity="0.5" />
    </pattern>
</defs>


<g id="article">

<rect class="text-frame" x="847.559" y="102.85" width="589.606" height="22" />
<rect class="label-bg" x="1381.165" y="110.85" width="56" height="14" />
<text class="z-index" x="1377.165" y="120.85" text-anchor="end">z:633</text>
<text class="label label-inv" x="1433.165" y="120.85">BOVENKOP</text>
<rect class="text-frame" x="847.559" y="520.855" width="589.606" height="120.995" />
<rect class="label-bg" x="1411.165" y="627.85" width="26" height="14" />
<text class="z-index" x="1407.165" y="637.85" text-anchor="end">z:634</text>
<text class="label label-inv" x="1433.165" y="637.85">KOP</text>
<rect class="text-frame" x="847.559" y="663.85" width="589.606" height="473" />
<rect class="label-bg" x="1399.165" y="1122.85" width="38" height="14" />
<text class="z-index" x="1395.165" y="1132.85" text-anchor="end">z:640</text>
<text class="label label-inv" x="1433.165" y="1132.85">TEKST</text>
<rect class="text-frame" x="847.559" y="487.85" width="589.606" height="22" />
<rect class="label-bg" x="1369.165" y="495.85" width="68" height="14" />
<text class="z-index" x="1365.165" y="505.85" text-anchor="end">z:641</text>
<text class="label label-inv" x="1433.165" y="505.85">BIJSCHRIFT</text>
<rect class="image-frame" x="847.559" y="135.522" width="589.606" height="347.328" />
<rect class="label-bg" x="1399.165" y="468.84999999999997" width="38" height="14" />
<text class="z-index" x="1395.165" y="478.84999999999997" text-anchor="end">z:642</text>
<text class="label label-inv" x="1433.165" y="478.84999999999997">image</text>
<rect class="text-frame" x="1148.031" y="1026.819" width="138.898" height="110.031" />
<rect class="label-bg" x="1248.9289999999999" y="1122.85" width="38" height="14" />
<text class="z-index" x="1244.9289999999999" y="1132.85" text-anchor="end">z:643</text>
<text class="label label-inv" x="1282.9289999999999" y="1132.85">QUOTE</text>
<rect class="text-frame" x="1148.031" y="839.85" width="138.898" height="22" />
<rect class="label-bg" x="1218.9289999999999" y="847.85" width="68" height="14" />
<text class="z-index" x="1214.9289999999999" y="857.85" text-anchor="end">z:644</text>
<text class="label label-inv" x="1282.9289999999999" y="857.85">BIJSCHRIFT</text>
<rect class="image-frame" x="1148.031" y="660.934" width="289.134" height="173.988" />
<rect class="label-bg" x="1399.165" y="820.922" width="38" height="14" />
<text class="z-index" x="1395.165" y="830.922" text-anchor="end">z:645</text>
<text class="label label-inv" x="1433.165" y="830.922">image</text>
<rect class="text-frame" x="847.709" y="759.85" width="138.819" height="6.696" />
<rect class="label-bg" x="942.5279999999999" y="752.546" width="44" height="14" />
<text class="z-index" x="938.5279999999999" y="762.546" text-anchor="end">z:646</text>
<text class="label label-inv" x="982.5279999999999" y="762.546">PLAATS</text>
<rect class="text-frame" x="847.559" y="740.85" width="138.969" height="18.237" />
<rect class="label-bg" x="942.528" y="745.087" width="44" height="14" />
<text class="z-index" x="938.528" y="755.087" text-anchor="end">z:647</text>
<text class="label label-inv" x="982.528" y="755.087">AUTEUR</text>
<rect class="text-frame" x="847.559" y="663.85" width="288.906" height="68.725" />
<rect class="label-bg" x="1098.465" y="718.575" width="38" height="14" />
<text class="z-index" x="1094.465" y="728.575" text-anchor="end">z:648</text>
<text class="label label-inv" x="1132.465" y="728.575">INTRO</text>
</g>
</svg>