<svg xmlns="http://www.w3.org/2000/svg" width="794.051" height="1101.512" viewBox="16.85 60.849999999999994 794.051 1101.512">
<style>
    .page { fill: #fff; stroke: #ccc; }
    .margin { fill: none; stroke: #aaa; stroke-dasharray: 4 2; }
    .column { fill: none; stroke: #ddd; }
    .grid { stroke: #eee; stroke-width: 0.5; }

    .text-frame { fill: rgba(0,0,255,0.08); stroke: #00f; }
    .image-frame { fill: rgba(255,165,0,0.15); stroke: #f90; }

    .frame-id { 
        font-size: 7px; 
        fill: #666;
    }
    
    .thread {
        fill: none;
        stroke: #888;
        stroke-dasharray: 3 3;
        stroke-width: 1;
    }

    .label {
        font-size: 9px;
        font-family: monospace;
    }

    .snippet {
        font-size: 12px;
        font-family: Inter, system-ui, -apple-system, Segoe UI, Roboto, Arial, sans-serif;
        fill: #111;
    }

    .label-bg {
        fill: #000;
        opacity: 0.75;
    }

    .label-inv {
        fill: #fff;
        text-anchor: end;
    }

    .z-index { 
        font-size: 7px; 
        fill: #333;
        text-anchor: end;
        paint-order: stroke fill;
        stroke: white;
        stroke-width: 2;
        stroke-linejoin: round;
    }

    .distance {
        stroke: red;
        stroke-width: 2.5;
        fill: none;
    }

    .edge-ghost {
        stroke: rgba(200, 0, 0, 0.4);
        stroke-width: 1.5;
        stroke-dasharray: 6 3;
        fill: none;
    }

    .arrowhead {
        fill: red;
    }
    
    .fender-zone {
        fill: url(#fender-hatch);
        stroke: none;
    }

    .fender-edge {
        stroke: #0891b2;
        stroke-width: 2;
        fill: none;
    }
</style>
<defs>
    <pattern id="baseline-grid" patternUnits="userSpaceOnUse" width="100%" height="11">
        <line x1="0" y1="0" x2="100%" y2="0" class="grid" />
    </pattern>
    <pattern id="checkerboard" patternUnits="userSpaceOnUse" width="20" height="20">
        <rect width="20" height="20" fill="#e8e8e8" stroke="none"/>
        <rect width="10" height="10" fill="#ffffff" stroke="none"/>
        <rect x="10" y="10" width="10" height="10" fill="#ffffff" stroke="none"/>
    </pattern>
    <pattern id="fender-hatch" patternUnits="userSpaceOnUse" width="8" height="8" patternTransform="rotate(45)">
        <line x1="0" y1="0" x2="0" y2="8" stroke="#0891b2" stroke-width="1.2" stroke-opacity="0.5" />
    </pattern>
</defs>


<g id="article">

<rect class="text-frame" x="36.85" y="474.98299999999995" width="754.016" height="664.545" />
<rect class="label-bg" x="752.866" y="1125.5279999999998" width="38" height="14" />
<text class="z-index" x="748.866" y="1135.5279999999998" text-anchor="end">z:373</text>
<text class="label label-inv" x="786.866" y="1135.5279999999998">TEKST</text>
<rect class="image-frame" x="36.954" y="949.85" width="294.7" height="172" />
<rect class="label-bg" x="293.654" y="1107.85" width="38" height="14" />
<text class="z-index" x="289.654" y="1117.85" text-anchor="end">z:374</text>
<text class="label label-inv" x="327.654" y="1117.85">image</text>
<rect class="image-frame" x="342.992" y="949.85" width="294.803" height="172" />
<rect class="label-bg" x="599.7950000000001" y="1107.85" width="38" height="14" />
<text class="z-index" x="595.7950000000001" y="1117.85" text-anchor="end">z:375</text>
<text class="label label-inv" x="633.7950000000001" y="1117.85">image</text>
<rect class="text-frame" x="189.921" y="663.85" width="600.945" height="18.826" />
<rect class="label-bg" x="722.866" y="668.676" width="68" height="14" />
<text class="z-index" x="718.866" y="678.676" text-anchor="end">z:376</text>
<text class="label label-inv" x="786.866" y="678.676">BIJSCHRIFT</text>
<rect class="text-frame" x="36.85" y="1125.85" width="294.803" height="13.677" />
<rect class="label-bg" x="263.653" y="1125.5269999999998" width="68" height="14" />
<text class="z-index" x="259.653" y="1135.5269999999998" text-anchor="end">z:377</text>
<text class="label label-inv" x="327.653" y="1135.5269999999998">BIJSCHRIFT</text>
<rect class="text-frame" x="342.992" y="1125.85" width="294.835" height="16.512" />
<rect class="label-bg" x="569.827" y="1128.3619999999999" width="68" height="14" />
<text class="z-index" x="565.827" y="1138.3619999999999" text-anchor="end">z:378</text>
<text class="label label-inv" x="633.827" y="1138.3619999999999">BIJSCHRIFT</text>
<rect class="image-frame" x="189.921" y="284.543" width="600.945" height="373.307" />
<rect class="label-bg" x="752.866" y="643.85" width="38" height="14" />
<text class="z-index" x="748.866" y="653.85" text-anchor="end">z:379</text>
<text class="label label-inv" x="786.866" y="653.85">image</text>
<rect class="text-frame" x="36.85" y="135.85" width="754.016" height="132" />
<rect class="label-bg" x="764.866" y="253.85000000000002" width="26" height="14" />
<text class="z-index" x="760.866" y="263.85" text-anchor="end">z:380</text>
<text class="label label-inv" x="786.866" y="263.85">KOP</text>
<rect class="text-frame" x="189.94299999999998" y="817.85" width="141.736" height="121" />
<rect class="label-bg" x="293.679" y="924.85" width="38" height="14" />
<text class="z-index" x="289.679" y="934.85" text-anchor="end">z:381</text>
<text class="label label-inv" x="327.679" y="934.85">QUOTE</text>
<rect class="text-frame" x="36.85" y="102.85" width="754.051" height="22" />
<rect class="label-bg" x="734.9010000000001" y="110.85" width="56" height="14" />
<text class="z-index" x="730.9010000000001" y="120.85" text-anchor="end">z:382</text>
<text class="label label-inv" x="786.9010000000001" y="120.85">BOVENKOP</text>
<rect class="text-frame" x="37.003" y="484.879" width="141.579" height="27.904" />
<rect class="label-bg" x="134.582" y="498.783" width="44" height="14" />
<text class="z-index" x="130.582" y="508.783" text-anchor="end">z:383</text>
<text class="label label-inv" x="174.582" y="508.783">PLAATS</text>
<rect class="text-frame" x="36.85" y="465.879" width="141.732" height="40.208" />
<rect class="label-bg" x="134.582" y="492.087" width="44" height="14" />
<text class="z-index" x="130.582" y="502.087" text-anchor="end">z:384</text>
<text class="label label-inv" x="174.582" y="502.087">AUTEUR</text>
<rect class="text-frame" x="36.85" y="278.85" width="141.732" height="194.725" />
<rect class="label-bg" x="140.582" y="459.57500000000005" width="38" height="14" />
<text class="z-index" x="136.582" y="469.57500000000005" text-anchor="end">z:385</text>
<text class="label label-inv" x="174.582" y="469.57500000000005">INTRO</text>
</g>
</svg>