<svg xmlns="http://www.w3.org/2000/svg" width="334.803" height="799" viewBox="827.559 60.849999999999994 334.803 799">
<style>
    .page { fill: #fff; stroke: #ccc; }
    .margin { fill: none; stroke: #aaa; stroke-dasharray: 4 2; }
    .column { fill: none; stroke: #ddd; }
    .grid { stroke: #eee; stroke-width: 0.5; }

    .text-frame { fill: rgba(0,0,255,0.08); stroke: #00f; }
    .image-frame { fill: rgba(255,165,0,0.15); stroke: #f90; }

    .frame-id { 
        font-size: 7px; 
        fill: #666;
    }
    
    .thread {
        fill: none;
        stroke: #888;
        stroke-dasharray: 3 3;
        stroke-width: 1;
    }

    .label {
        font-size: 9px;
        font-family: monospace;
    }

    .snippet {
        font-size: 12px;
        font-family: Inter, system-ui, -apple-system, Segoe UI, Roboto, Arial, sans-serif;
        fill: #111;
    }

    .label-bg {
        fill: #000;
        opacity: 0.75;
    }

    .label-inv {
        fill: #fff;
        text-anchor: end;
    }

    .z-index { 
        font-size: 7px; 
        fill: #333;
        text-anchor: end;
        paint-order: stroke fill;
        stroke: white;
        stroke-width: 2;
        stroke-linejoin: round;
    }

    .distance {
        stroke: red;
        stroke-width: 2.5;
        fill: none;
    }

    .edge-ghost {
        stroke: rgba(200, 0, 0, 0.4);
        stroke-width: 1.5;
        stroke-dasharray: 6 3;
        fill: none;
    }

    .arrowhead {
        fill: red;
    }
    
    .fender-zone {
        fill: url(#fender-hatch);
        stroke: none;
    }

    .fender-edge {
        stroke: #0891b2;
        stroke-width: 2;
        fill: none;
    }
</style>
<defs>
    <pattern id="baseline-grid" patternUnits="userSpaceOnUse" width="100%" height="11">
        <line x1="0" y1="0" x2="100%" y2="0" class="grid" />
    </pattern>
    <pattern id="checkerboard" patternUnits="userSpaceOnUse" width="20" height="20">
        <rect width="20" height="20" fill="#e8e8e8" stroke="none"/>
        <rect width="10" height="10" fill="#ffffff" stroke="none"/>
        <rect x="10" y="10" width="10" height="10" fill="#ffffff" stroke="none"/>
    </pattern>
    <pattern id="fender-hatch" patternUnits="userSpaceOnUse" width="8" height="8" patternTransform="rotate(45)">
        <line x1="0" y1="0" x2="0" y2="8" stroke="#0891b2" stroke-width="1.2" stroke-opacity="0.5" />
    </pattern>
</defs>


<g id="article">
<line class="thread" x1="989.2909999999999" y1="597.85" x2="1000.63" y2="201.85" />
<rect class="text-frame" x="847.559" y="817.85" width="294.803" height="22" />
<rect class="label-bg" x="1074.362" y="825.85" width="68" height="14" />
<text class="z-index" x="1070.362" y="835.85" text-anchor="end">z:380</text>
<text class="label label-inv" x="1138.362" y="835.85">BIJSCHRIFT</text>
<rect class="image-frame" x="847.559" y="608.85" width="294.803" height="203.559" />
<rect class="label-bg" x="1104.362" y="798.409" width="38" height="14" />
<text class="z-index" x="1100.362" y="808.409" text-anchor="end">z:381</text>
<text class="label label-inv" x="1138.362" y="808.409">image</text>
<rect class="text-frame" x="847.559" y="102.85" width="294.803" height="99" />
<rect class="label-bg" x="1116.362" y="187.85" width="26" height="14" />
<text class="z-index" x="1112.362" y="197.85" text-anchor="end">z:382</text>
<text class="label label-inv" x="1138.362" y="197.85">KOP</text>
<rect class="text-frame" x="847.559" y="322.85" width="141.732" height="275" />
<rect class="label-bg" x="951.2909999999999" y="583.85" width="38" height="14" />
<text class="z-index" x="947.2909999999999" y="593.85" text-anchor="end">z:383</text>
<text class="label label-inv" x="985.2909999999999" y="593.85">TEKST</text>
<rect class="text-frame" x="1000.63" y="201.85" width="141.732" height="396" />
<rect class="label-bg" x="1104.362" y="583.85" width="38" height="14" />
<text class="z-index" x="1100.362" y="593.85" text-anchor="end">z:384</text>
<text class="label label-inv" x="1138.362" y="593.85">TEKST</text>
<rect class="text-frame" x="1000.63" y="344.85" width="141.732" height="110" />
<rect class="label-bg" x="1104.362" y="440.85" width="38" height="14" />
<text class="z-index" x="1100.362" y="450.85" text-anchor="end">z:385</text>
<text class="label label-inv" x="1138.362" y="450.85">QUOTE</text>
<rect class="text-frame" x="847.712" y="297.741" width="141.579" height="17.042" />
<rect class="label-bg" x="945.2909999999999" y="300.783" width="44" height="14" />
<text class="z-index" x="941.2909999999999" y="310.783" text-anchor="end">z:386</text>
<text class="label label-inv" x="985.2909999999999" y="310.783">PLAATS</text>
<rect class="text-frame" x="847.559" y="278.741" width="141.732" height="29.346" />
<rect class="label-bg" x="945.2909999999999" y="294.087" width="44" height="14" />
<text class="z-index" x="941.2909999999999" y="304.087" text-anchor="end">z:387</text>
<text class="label label-inv" x="985.2909999999999" y="304.087">AUTEUR</text>
<rect class="text-frame" x="847.559" y="201.74099999999999" width="141.656" height="77.109" />
<rect class="label-bg" x="951.2149999999999" y="264.84999999999997" width="38" height="14" />
<text class="z-index" x="947.2149999999999" y="274.84999999999997" text-anchor="end">z:388</text>
<text class="label label-inv" x="985.2149999999999" y="274.84999999999997">INTRO</text>
</g>
</svg>