<svg xmlns="http://www.w3.org/2000/svg" width="794.051" height="1098.677" viewBox="16.85 60.849999999999994 794.051 1098.677">
<style>
    .page { fill: #fff; stroke: #ccc; }
    .margin { fill: none; stroke: #aaa; stroke-dasharray: 4 2; }
    .column { fill: none; stroke: #ddd; }
    .grid { stroke: #eee; stroke-width: 0.5; }

    .text-frame { fill: rgba(0,0,255,0.08); stroke: #00f; }
    .image-frame { fill: rgba(255,165,0,0.15); stroke: #f90; }

    .frame-id { 
        font-size: 7px; 
        fill: #666;
    }
    
    .thread {
        fill: none;
        stroke: #888;
        stroke-dasharray: 3 3;
        stroke-width: 1;
    }

    .label {
        font-size: 9px;
        font-family: monospace;
    }

    .snippet {
        font-size: 12px;
        font-family: Inter, system-ui, -apple-system, Segoe UI, Roboto, Arial, sans-serif;
        fill: #111;
    }

    .label-bg {
        fill: #000;
        opacity: 0.75;
    }

    .label-inv {
        fill: #fff;
        text-anchor: end;
    }

    .z-index { 
        font-size: 7px; 
        fill: #333;
        text-anchor: end;
        paint-order: stroke fill;
        stroke: white;
        stroke-width: 2;
        stroke-linejoin: round;
    }

    .distance {
        stroke: red;
        stroke-width: 2.5;
        fill: none;
    }

    .edge-ghost {
        stroke: rgba(200, 0, 0, 0.4);
        stroke-width: 1.5;
        stroke-dasharray: 6 3;
        fill: none;
    }

    .arrowhead {
        fill: red;
    }
    
    .fender-zone {
        fill: url(#fender-hatch);
        stroke: none;
    }

    .fender-edge {
        stroke: #0891b2;
        stroke-width: 2;
        fill: none;
    }
</style>
<defs>
    <pattern id="baseline-grid" patternUnits="userSpaceOnUse" width="100%" height="11">
        <line x1="0" y1="0" x2="100%" y2="0" class="grid" />
    </pattern>
    <pattern id="checkerboard" patternUnits="userSpaceOnUse" width="20" height="20">
        <rect width="20" height="20" fill="#e8e8e8" stroke="none"/>
        <rect width="10" height="10" fill="#ffffff" stroke="none"/>
        <rect x="10" y="10" width="10" height="10" fill="#ffffff" stroke="none"/>
    </pattern>
    <pattern id="fender-hatch" patternUnits="userSpaceOnUse" width="8" height="8" patternTransform="rotate(45)">
        <line x1="0" y1="0" x2="0" y2="8" stroke="#0891b2" stroke-width="1.2" stroke-opacity="0.5" />
    </pattern>
</defs>


<g id="article">
<line class="thread" x1="189.517" y1="960.85" x2="310.42900000000003" y2="476.85" />
<rect class="text-frame" x="36.886" y="135.85" width="754.016" height="132" />
<rect class="label-bg" x="764.9019999999999" y="253.85000000000002" width="26" height="14" />
<text class="z-index" x="760.9019999999999" y="263.85" text-anchor="end">z:337</text>
<text class="label label-inv" x="786.9019999999999" y="263.85">KOP</text>
<rect class="text-frame" x="36.85" y="102.85" width="754.051" height="22" />
<rect class="label-bg" x="734.9010000000001" y="110.85" width="56" height="14" />
<text class="z-index" x="730.9010000000001" y="120.85" text-anchor="end">z:338</text>
<text class="label label-inv" x="786.9010000000001" y="120.85">BOVENKOP</text>
<rect class="text-frame" x="310.42900000000003" y="476.85" width="480.472" height="662.677" />
<rect class="label-bg" x="752.9010000000001" y="1125.527" width="38" height="14" />
<text class="z-index" x="748.9010000000001" y="1135.527" text-anchor="end">z:339</text>
<text class="label label-inv" x="786.9010000000001" y="1135.527">TEKST</text>
<rect class="text-frame" x="36.886" y="476.85" width="152.631" height="484" />
<rect class="label-bg" x="151.517" y="946.85" width="38" height="14" />
<text class="z-index" x="147.517" y="956.85" text-anchor="end">z:340</text>
<text class="label label-inv" x="185.517" y="956.85">TEKST</text>
<rect class="image-frame" x="36.987" y="960.85" width="289.213" height="161" />
<rect class="label-bg" x="288.20000000000005" y="1107.85" width="38" height="14" />
<text class="z-index" x="284.20000000000005" y="1117.85" text-anchor="end">z:341</text>
<text class="label label-inv" x="322.20000000000005" y="1117.85">image</text>
<rect class="image-frame" x="336.584" y="960.85" width="289.213" height="161" />
<rect class="label-bg" x="587.797" y="1107.85" width="38" height="14" />
<text class="z-index" x="583.797" y="1117.85" text-anchor="end">z:342</text>
<text class="label label-inv" x="621.797" y="1117.85">image</text>
<rect class="text-frame" x="200.89" y="641.85" width="97.962" height="133" />
<rect class="label-bg" x="230.85199999999998" y="760.85" width="68" height="14" />
<text class="z-index" x="226.85199999999998" y="770.85" text-anchor="end">z:343</text>
<text class="label label-inv" x="294.852" y="770.85">BIJSCHRIFT</text>
<rect class="text-frame" x="36.886" y="1125.85" width="289.314" height="13.677" />
<rect class="label-bg" x="258.20000000000005" y="1125.5269999999998" width="68" height="14" />
<text class="z-index" x="254.20000000000005" y="1135.5269999999998" text-anchor="end">z:344</text>
<text class="label label-inv" x="322.20000000000005" y="1135.5269999999998">BIJSCHRIFT</text>
<rect class="text-frame" x="336.584" y="1125.85" width="289.213" height="13.677" />
<rect class="label-bg" x="557.797" y="1125.5269999999998" width="68" height="14" />
<text class="z-index" x="553.797" y="1135.5269999999998" text-anchor="end">z:345</text>
<text class="label label-inv" x="621.797" y="1135.5269999999998">BIJSCHRIFT</text>
<rect class="image-frame" x="200.855" y="271.15" width="590.047" height="365.7" />
<rect class="label-bg" x="752.902" y="622.8499999999999" width="38" height="14" />
<text class="z-index" x="748.902" y="632.8499999999999" text-anchor="end">z:346</text>
<text class="label label-inv" x="786.902" y="632.8499999999999">image</text>
<rect class="text-frame" x="474.636" y="823.35" width="152.261" height="128.699" />
<rect class="label-bg" x="588.897" y="938.049" width="38" height="14" />
<text class="z-index" x="584.897" y="948.049" text-anchor="end">z:347</text>
<text class="label label-inv" x="622.897" y="948.049">QUOTE</text>
<rect class="text-frame" x="37.015" y="473.879" width="152.501" height="27.904" />
<rect class="label-bg" x="145.51600000000002" y="487.783" width="44" height="14" />
<text class="z-index" x="141.51600000000002" y="497.783" text-anchor="end">z:348</text>
<text class="label label-inv" x="185.51600000000002" y="497.783">PLAATS</text>
<rect class="text-frame" x="36.85" y="454.879" width="152.666" height="40.208" />
<rect class="label-bg" x="145.516" y="481.087" width="44" height="14" />
<text class="z-index" x="141.516" y="491.087" text-anchor="end">z:349</text>
<text class="label label-inv" x="185.516" y="491.087">AUTEUR</text>
<rect class="text-frame" x="36.85" y="267.85" width="152.666" height="194.725" />
<rect class="label-bg" x="151.516" y="448.57500000000005" width="38" height="14" />
<text class="z-index" x="147.516" y="458.57500000000005" text-anchor="end">z:350</text>
<text class="label label-inv" x="185.516" y="458.57500000000005">INTRO</text>
</g>
</svg>