<svg xmlns="http://www.w3.org/2000/svg" width="794.069" height="1101.512" viewBox="16.85 60.849999999999994 794.069 1101.512">
<style>
    .page { fill: #fff; stroke: #ccc; }
    .margin { fill: none; stroke: #aaa; stroke-dasharray: 4 2; }
    .column { fill: none; stroke: #ddd; }
    .grid { stroke: #eee; stroke-width: 0.5; }

    .text-frame { fill: rgba(0,0,255,0.08); stroke: #00f; }
    .image-frame { fill: rgba(255,165,0,0.15); stroke: #f90; }

    .frame-id { 
        font-size: 7px; 
        fill: #666;
    }
    
    .thread {
        fill: none;
        stroke: #888;
        stroke-dasharray: 3 3;
        stroke-width: 1;
    }

    .label {
        font-size: 9px;
        font-family: monospace;
    }

    .snippet {
        font-size: 12px;
        font-family: Inter, system-ui, -apple-system, Segoe UI, Roboto, Arial, sans-serif;
        fill: #111;
    }

    .label-bg {
        fill: #000;
        opacity: 0.75;
    }

    .label-inv {
        fill: #fff;
        text-anchor: end;
    }

    .z-index { 
        font-size: 7px; 
        fill: #333;
        text-anchor: end;
        paint-order: stroke fill;
        stroke: white;
        stroke-width: 2;
        stroke-linejoin: round;
    }

    .distance {
        stroke: red;
        stroke-width: 2.5;
        fill: none;
    }

    .edge-ghost {
        stroke: rgba(200, 0, 0, 0.4);
        stroke-width: 1.5;
        stroke-dasharray: 6 3;
        fill: none;
    }

    .arrowhead {
        fill: red;
    }
    
    .fender-zone {
        fill: url(#fender-hatch);
        stroke: none;
    }

    .fender-edge {
        stroke: #0891b2;
        stroke-width: 2;
        fill: none;
    }
</style>
<defs>
    <pattern id="baseline-grid" patternUnits="userSpaceOnUse" width="100%" height="11">
        <line x1="0" y1="0" x2="100%" y2="0" class="grid" />
    </pattern>
    <pattern id="checkerboard" patternUnits="userSpaceOnUse" width="20" height="20">
        <rect width="20" height="20" fill="#e8e8e8" stroke="none"/>
        <rect width="10" height="10" fill="#ffffff" stroke="none"/>
        <rect x="10" y="10" width="10" height="10" fill="#ffffff" stroke="none"/>
    </pattern>
    <pattern id="fender-hatch" patternUnits="userSpaceOnUse" width="8" height="8" patternTransform="rotate(45)">
        <line x1="0" y1="0" x2="0" y2="8" stroke="#0891b2" stroke-width="1.2" stroke-opacity="0.5" />
    </pattern>
</defs>


<g id="article">
<line class="thread" x1="178.583" y1="949.85" x2="189.921" y2="652.85" />
<rect class="text-frame" x="189.921" y="652.85" width="600.945" height="301.008" />
<rect class="label-bg" x="752.866" y="939.858" width="38" height="14" />
<text class="z-index" x="748.866" y="949.858" text-anchor="end">z:22</text>
<text class="label label-inv" x="786.866" y="949.858">TEKST</text>
<rect class="text-frame" x="36.868" y="488.13300000000004" width="141.715" height="461.717" />
<rect class="label-bg" x="140.583" y="935.85" width="38" height="14" />
<text class="z-index" x="136.583" y="945.85" text-anchor="end">z:24</text>
<text class="label label-inv" x="174.583" y="945.85">TEKST</text>
<rect class="text-frame" x="720.053" y="619.85" width="70.866" height="22" />
<rect class="label-bg" x="722.919" y="627.85" width="68" height="14" />
<text class="z-index" x="718.919" y="637.85" text-anchor="end">z:25</text>
<text class="label label-inv" x="786.919" y="637.85">BIJSCHRIFT</text>
<rect class="text-frame" x="36.903" y="135.85" width="754.016" height="132" />
<rect class="label-bg" x="764.919" y="253.85000000000002" width="26" height="14" />
<text class="z-index" x="760.919" y="263.85" text-anchor="end">z:26</text>
<text class="label label-inv" x="786.919" y="263.85">KOP</text>
<rect class="text-frame" x="189.921" y="828.85" width="141.732" height="121" />
<rect class="label-bg" x="293.653" y="935.85" width="38" height="14" />
<text class="z-index" x="289.653" y="945.85" text-anchor="end">z:27</text>
<text class="label label-inv" x="327.653" y="945.85">QUOTE</text>
<rect class="text-frame" x="36.868" y="102.85" width="754.051" height="22" />
<rect class="label-bg" x="734.9190000000001" y="110.85" width="56" height="14" />
<text class="z-index" x="730.9190000000001" y="120.85" text-anchor="end">z:28</text>
<text class="label label-inv" x="786.9190000000001" y="120.85">BOVENKOP</text>
<rect class="image-frame" x="36.85" y="960.85" width="243.78" height="159" />
<rect class="label-bg" x="242.63" y="1105.85" width="38" height="14" />
<text class="z-index" x="238.63" y="1115.85" text-anchor="end">z:29</text>
<text class="label label-inv" x="276.63" y="1115.85">image</text>
<rect class="image-frame" x="290.73900000000003" y="960.85" width="243.78" height="159" />
<rect class="label-bg" x="496.519" y="1105.85" width="38" height="14" />
<text class="z-index" x="492.519" y="1115.85" text-anchor="end">z:30</text>
<text class="label label-inv" x="530.519" y="1115.85">image</text>
<rect class="image-frame" x="547.087" y="960.85" width="243.78" height="159" />
<rect class="label-bg" x="752.867" y="1105.85" width="38" height="14" />
<text class="z-index" x="748.867" y="1115.85" text-anchor="end">z:31</text>
<text class="label label-inv" x="786.867" y="1115.85">image</text>
<rect class="text-frame" x="36.886" y="1125.85" width="243.744" height="16.512" />
<rect class="label-bg" x="212.63" y="1128.3619999999999" width="68" height="14" />
<text class="z-index" x="208.63" y="1138.3619999999999" text-anchor="end">z:32</text>
<text class="label label-inv" x="276.63" y="1138.3619999999999">BIJSCHRIFT</text>
<rect class="text-frame" x="290.73900000000003" y="1125.85" width="243.78" height="16.512" />
<rect class="label-bg" x="466.519" y="1128.3619999999999" width="68" height="14" />
<text class="z-index" x="462.519" y="1138.3619999999999" text-anchor="end">z:33</text>
<text class="label label-inv" x="530.519" y="1138.3619999999999">BIJSCHRIFT</text>
<rect class="text-frame" x="547.087" y="1125.85" width="243.78" height="16.512" />
<rect class="label-bg" x="722.867" y="1128.3619999999999" width="68" height="14" />
<text class="z-index" x="718.867" y="1138.3619999999999" text-anchor="end">z:34</text>
<text class="label label-inv" x="786.867" y="1138.3619999999999">BIJSCHRIFT</text>
<rect class="image-frame" x="189.921" y="272.15" width="518.74" height="369.7" />
<rect class="label-bg" x="670.6610000000001" y="627.8499999999999" width="38" height="14" />
<text class="z-index" x="666.6610000000001" y="637.8499999999999" text-anchor="end">z:35</text>
<text class="label label-inv" x="704.6610000000001" y="637.8499999999999">image</text>
<rect class="text-frame" x="37.057" y="478.179" width="141.579" height="45.604" />
<rect class="label-bg" x="134.63600000000002" y="509.783" width="44" height="14" />
<text class="z-index" x="130.63600000000002" y="519.783" text-anchor="end">z:36</text>
<text class="label label-inv" x="174.63600000000002" y="519.783">PLAATS</text>
<rect class="text-frame" x="36.903" y="459.179" width="141.732" height="57.908" />
<rect class="label-bg" x="134.635" y="503.087" width="44" height="14" />
<text class="z-index" x="130.635" y="513.087" text-anchor="end">z:37</text>
<text class="label label-inv" x="174.635" y="513.087">AUTEUR</text>
<rect class="text-frame" x="36.903" y="272.15" width="141.732" height="212.725" />
<rect class="label-bg" x="140.635" y="470.875" width="38" height="14" />
<text class="z-index" x="136.635" y="480.875" text-anchor="end">z:38</text>
<text class="label label-inv" x="174.635" y="480.875">INTRO</text>
</g>
</svg>