<svg xmlns="http://www.w3.org/2000/svg" width="640.945" height="831.999" viewBox="8.346 60.849999999999994 640.945 831.999">
<style>
    .page { fill: #fff; stroke: #ccc; }
    .margin { fill: none; stroke: #aaa; stroke-dasharray: 4 2; }
    .column { fill: none; stroke: #ddd; }
    .grid { stroke: #eee; stroke-width: 0.5; }

    .text-frame { fill: rgba(0,0,255,0.08); stroke: #00f; }
    .image-frame { fill: rgba(255,165,0,0.15); stroke: #f90; }

    .frame-id { 
        font-size: 7px; 
        fill: #666;
    }
    
    .thread {
        fill: none;
        stroke: #888;
        stroke-dasharray: 3 3;
        stroke-width: 1;
    }

    .label {
        font-size: 9px;
        font-family: monospace;
    }

    .snippet {
        font-size: 12px;
        font-family: Inter, system-ui, -apple-system, Segoe UI, Roboto, Arial, sans-serif;
        fill: #111;
    }

    .label-bg {
        fill: #000;
        opacity: 0.75;
    }

    .label-inv {
        fill: #fff;
        text-anchor: end;
    }

    .z-index { 
        font-size: 7px; 
        fill: #333;
        text-anchor: end;
        paint-order: stroke fill;
        stroke: white;
        stroke-width: 2;
        stroke-linejoin: round;
    }

    .distance {
        stroke: red;
        stroke-width: 2.5;
        fill: none;
    }

    .edge-ghost {
        stroke: rgba(200, 0, 0, 0.4);
        stroke-width: 1.5;
        stroke-dasharray: 6 3;
        fill: none;
    }

    .arrowhead {
        fill: red;
    }
    
    .fender-zone {
        fill: url(#fender-hatch);
        stroke: none;
    }

    .fender-edge {
        stroke: #0891b2;
        stroke-width: 2;
        fill: none;
    }
</style>
<defs>
    <pattern id="baseline-grid" patternUnits="userSpaceOnUse" width="100%" height="11">
        <line x1="0" y1="0" x2="100%" y2="0" class="grid" />
    </pattern>
    <pattern id="checkerboard" patternUnits="userSpaceOnUse" width="20" height="20">
        <rect width="20" height="20" fill="#e8e8e8" stroke="none"/>
        <rect width="10" height="10" fill="#ffffff" stroke="none"/>
        <rect x="10" y="10" width="10" height="10" fill="#ffffff" stroke="none"/>
    </pattern>
    <pattern id="fender-hatch" patternUnits="userSpaceOnUse" width="8" height="8" patternTransform="rotate(45)">
        <line x1="0" y1="0" x2="0" y2="8" stroke="#0891b2" stroke-width="1.2" stroke-opacity="0.5" />
    </pattern>
</defs>


<g id="article">

<rect class="text-frame" x="28.346" y="355.85" width="589.606" height="486.843" />
<rect class="label-bg" x="579.952" y="828.693" width="38" height="14" />
<text class="z-index" x="575.952" y="838.693" text-anchor="end">z:291</text>
<text class="label label-inv" x="613.952" y="838.693">TEKST</text>
<rect class="text-frame" x="178.529" y="531.85" width="439.424" height="11" />
<rect class="label-bg" x="549.953" y="528.85" width="68" height="14" />
<text class="z-index" x="545.953" y="538.85" text-anchor="end">z:292</text>
<text class="label label-inv" x="613.953" y="538.85">BIJSCHRIFT</text>
<rect class="image-frame" x="178.529" y="245.85" width="439.424" height="279.693" />
<rect class="label-bg" x="579.953" y="511.543" width="38" height="14" />
<text class="z-index" x="575.953" y="521.543" text-anchor="end">z:293</text>
<text class="label label-inv" x="613.953" y="521.543">image</text>
<rect class="text-frame" x="28.346" y="102.85" width="589.606" height="22" />
<rect class="label-bg" x="561.952" y="110.85" width="56" height="14" />
<text class="z-index" x="557.952" y="120.85" text-anchor="end">z:294</text>
<text class="label label-inv" x="613.952" y="120.85">BOVENKOP</text>
<rect class="text-frame" x="28.346" y="135.85" width="589.606" height="99" />
<rect class="label-bg" x="591.952" y="220.85" width="26" height="14" />
<text class="z-index" x="587.952" y="230.85" text-anchor="end">z:295</text>
<text class="label label-inv" x="613.952" y="230.85">KOP</text>
<rect class="text-frame" x="328.658" y="740.85" width="139.058" height="99" />
<rect class="label-bg" x="429.716" y="825.85" width="38" height="14" />
<text class="z-index" x="425.716" y="835.85" text-anchor="end">z:296</text>
<text class="label label-inv" x="463.716" y="835.85">QUOTE</text>
<rect class="text-frame" x="28.496" y="352.85" width="138.748" height="27.933" />
<rect class="label-bg" x="123.244" y="366.783" width="44" height="14" />
<text class="z-index" x="119.244" y="376.783" text-anchor="end">z:297</text>
<text class="label label-inv" x="163.244" y="376.783">PLAATS</text>
<rect class="text-frame" x="28.346" y="333.85" width="138.898" height="40.237" />
<rect class="label-bg" x="123.244" y="360.08700000000005" width="44" height="14" />
<text class="z-index" x="119.244" y="370.08700000000005" text-anchor="end">z:298</text>
<text class="label label-inv" x="163.244" y="370.08700000000005">AUTEUR</text>
<rect class="text-frame" x="28.346" y="245.85" width="138.823" height="102.865" />
<rect class="label-bg" x="129.169" y="334.715" width="38" height="14" />
<text class="z-index" x="125.16900000000001" y="344.715" text-anchor="end">z:299</text>
<text class="label label-inv" x="163.169" y="344.715">INTRO</text>
</g>
</svg>