<svg xmlns="http://www.w3.org/2000/svg" width="794.016" height="801.843" viewBox="8.346 60.849999999999994 794.016 801.843">
<style>
    .page { fill: #fff; stroke: #ccc; }
    .margin { fill: none; stroke: #aaa; stroke-dasharray: 4 2; }
    .column { fill: none; stroke: #ddd; }
    .grid { stroke: #eee; stroke-width: 0.5; }

    .text-frame { fill: rgba(0,0,255,0.08); stroke: #00f; }
    .image-frame { fill: rgba(255,165,0,0.15); stroke: #f90; }

    .frame-id { 
        font-size: 7px; 
        fill: #666;
    }
    
    .thread {
        fill: none;
        stroke: #888;
        stroke-dasharray: 3 3;
        stroke-width: 1;
    }

    .label {
        font-size: 9px;
        font-family: monospace;
    }

    .snippet {
        font-size: 12px;
        font-family: Inter, system-ui, -apple-system, Segoe UI, Roboto, Arial, sans-serif;
        fill: #111;
    }

    .label-bg {
        fill: #000;
        opacity: 0.75;
    }

    .label-inv {
        fill: #fff;
        text-anchor: end;
    }

    .z-index { 
        font-size: 7px; 
        fill: #333;
        text-anchor: end;
        paint-order: stroke fill;
        stroke: white;
        stroke-width: 2;
        stroke-linejoin: round;
    }

    .distance {
        stroke: red;
        stroke-width: 2.5;
        fill: none;
    }

    .edge-ghost {
        stroke: rgba(200, 0, 0, 0.4);
        stroke-width: 1.5;
        stroke-dasharray: 6 3;
        fill: none;
    }

    .arrowhead {
        fill: red;
    }
    
    .fender-zone {
        fill: url(#fender-hatch);
        stroke: none;
    }

    .fender-edge {
        stroke: #0891b2;
        stroke-width: 2;
        fill: none;
    }
</style>
<defs>
    <pattern id="baseline-grid" patternUnits="userSpaceOnUse" width="100%" height="11">
        <line x1="0" y1="0" x2="100%" y2="0" class="grid" />
    </pattern>
    <pattern id="checkerboard" patternUnits="userSpaceOnUse" width="20" height="20">
        <rect width="20" height="20" fill="#e8e8e8" stroke="none"/>
        <rect width="10" height="10" fill="#ffffff" stroke="none"/>
        <rect x="10" y="10" width="10" height="10" fill="#ffffff" stroke="none"/>
    </pattern>
    <pattern id="fender-hatch" patternUnits="userSpaceOnUse" width="8" height="8" patternTransform="rotate(45)">
        <line x1="0" y1="0" x2="0" y2="8" stroke="#0891b2" stroke-width="1.2" stroke-opacity="0.5" />
    </pattern>
</defs>


<g id="article">
<line class="thread" x1="509.021" y1="842.693" x2="629.696" y2="608.85" />
<rect class="text-frame" x="28.346" y="410.85" width="480.675" height="431.843" />
<rect class="label-bg" x="471.021" y="828.693" width="38" height="14" />
<text class="z-index" x="467.021" y="838.693" text-anchor="end">z:327</text>
<text class="label label-inv" x="505.021" y="838.693">TEKST</text>
<rect class="text-frame" x="520.36" y="608.85" width="97.998" height="77" />
<rect class="label-bg" x="550.3580000000001" y="671.85" width="68" height="14" />
<text class="z-index" x="546.3580000000001" y="681.85" text-anchor="end">z:332</text>
<text class="label label-inv" x="614.3580000000001" y="681.85">BIJSCHRIFT</text>
<rect class="text-frame" x="629.696" y="608.85" width="152.666" height="233.843" />
<rect class="label-bg" x="744.3620000000001" y="828.693" width="38" height="14" />
<text class="z-index" x="740.3620000000001" y="838.693" text-anchor="end">z:333</text>
<text class="label label-inv" x="778.3620000000001" y="838.693">TEKST</text>
<rect class="text-frame" x="520.36" y="734.825" width="97.998" height="107.867" />
<rect class="label-bg" x="580.3580000000001" y="828.692" width="38" height="14" />
<text class="z-index" x="576.3580000000001" y="838.692" text-anchor="end">z:334</text>
<text class="label label-inv" x="614.3580000000001" y="838.692">QUOTE</text>
<rect class="image-frame" x="192.34" y="205.98399999999998" width="590.022" height="396.866" />
<rect class="label-bg" x="744.3620000000001" y="588.8499999999999" width="38" height="14" />
<text class="z-index" x="740.3620000000001" y="598.8499999999999" text-anchor="end">z:335</text>
<text class="label label-inv" x="778.3620000000001" y="598.8499999999999">image</text>
<rect class="text-frame" x="28.346" y="135.85" width="754.016" height="55" />
<rect class="label-bg" x="756.362" y="176.85" width="26" height="14" />
<text class="z-index" x="752.362" y="186.85" text-anchor="end">z:336</text>
<text class="label label-inv" x="778.362" y="186.85">KOP</text>
<rect class="text-frame" x="28.346" y="102.85" width="754.016" height="15.821" />
<rect class="label-bg" x="726.362" y="104.67099999999999" width="56" height="14" />
<text class="z-index" x="722.362" y="114.67099999999999" text-anchor="end">z:337</text>
<text class="label label-inv" x="778.362" y="114.67099999999999">BOVENKOP</text>
<rect class="text-frame" x="28.346" y="102.85" width="56.958" height="15.821" />
<rect class="label-bg" x="35.304" y="104.67099999999999" width="50" height="14" />
<text class="z-index" x="31.304000000000002" y="114.67099999999999" text-anchor="end">z:338</text>
<text class="label label-inv" x="81.304" y="114.67099999999999">SPECIAL</text>
<rect class="text-frame" x="28.511" y="407.879" width="152.501" height="27.904" />
<rect class="label-bg" x="137.012" y="421.783" width="44" height="14" />
<text class="z-index" x="133.012" y="431.783" text-anchor="end">z:339</text>
<text class="label label-inv" x="177.012" y="431.783">PLAATS</text>
<rect class="text-frame" x="28.346" y="388.879" width="152.666" height="40.208" />
<rect class="label-bg" x="137.012" y="415.087" width="44" height="14" />
<text class="z-index" x="133.012" y="425.087" text-anchor="end">z:340</text>
<text class="label label-inv" x="177.012" y="425.087">AUTEUR</text>
<rect class="text-frame" x="28.346" y="201.85" width="152.666" height="194.725" />
<rect class="label-bg" x="143.012" y="382.575" width="38" height="14" />
<text class="z-index" x="139.012" y="392.575" text-anchor="end">z:341</text>
<text class="label label-inv" x="177.012" y="392.575">INTRO</text>
</g>
</svg>