<svg xmlns="http://www.w3.org/2000/svg" width="334.953" height="801.748" viewBox="16.85 60.849999999999994 334.953 801.748">
<style>
    .page { fill: #fff; stroke: #ccc; }
    .margin { fill: none; stroke: #aaa; stroke-dasharray: 4 2; }
    .column { fill: none; stroke: #ddd; }
    .grid { stroke: #eee; stroke-width: 0.5; }

    .text-frame { fill: rgba(0,0,255,0.08); stroke: #00f; }
    .image-frame { fill: rgba(255,165,0,0.15); stroke: #f90; }

    .frame-id { 
        font-size: 7px; 
        fill: #666;
    }
    
    .thread {
        fill: none;
        stroke: #888;
        stroke-dasharray: 3 3;
        stroke-width: 1;
    }

    .label {
        font-size: 9px;
        font-family: monospace;
    }

    .snippet {
        font-size: 12px;
        font-family: Inter, system-ui, -apple-system, Segoe UI, Roboto, Arial, sans-serif;
        fill: #111;
    }

    .label-bg {
        fill: #000;
        opacity: 0.75;
    }

    .label-inv {
        fill: #fff;
        text-anchor: end;
    }

    .z-index { 
        font-size: 7px; 
        fill: #333;
        text-anchor: end;
        paint-order: stroke fill;
        stroke: white;
        stroke-width: 2;
        stroke-linejoin: round;
    }

    .distance {
        stroke: red;
        stroke-width: 2.5;
        fill: none;
    }

    .edge-ghost {
        stroke: rgba(200, 0, 0, 0.4);
        stroke-width: 1.5;
        stroke-dasharray: 6 3;
        fill: none;
    }

    .arrowhead {
        fill: red;
    }
    
    .fender-zone {
        fill: url(#fender-hatch);
        stroke: none;
    }

    .fender-edge {
        stroke: #0891b2;
        stroke-width: 2;
        fill: none;
    }
</style>
<defs>
    <pattern id="baseline-grid" patternUnits="userSpaceOnUse" width="100%" height="11">
        <line x1="0" y1="0" x2="100%" y2="0" class="grid" />
    </pattern>
    <pattern id="checkerboard" patternUnits="userSpaceOnUse" width="20" height="20">
        <rect width="20" height="20" fill="#e8e8e8" stroke="none"/>
        <rect width="10" height="10" fill="#ffffff" stroke="none"/>
        <rect x="10" y="10" width="10" height="10" fill="#ffffff" stroke="none"/>
    </pattern>
    <pattern id="fender-hatch" patternUnits="userSpaceOnUse" width="8" height="8" patternTransform="rotate(45)">
        <line x1="0" y1="0" x2="0" y2="8" stroke="#0891b2" stroke-width="1.2" stroke-opacity="0.5" />
    </pattern>
</defs>


<g id="article">
<line class="thread" x1="178.582" y1="842.598" x2="189.921" y2="454.85" />
<rect class="text-frame" x="37" y="355.85" width="294.803" height="99" />
<rect class="label-bg" x="305.803" y="440.85" width="26" height="14" />
<text class="z-index" x="301.803" y="450.85" text-anchor="end">z:429</text>
<text class="label label-inv" x="327.803" y="450.85">KOP</text>
<rect class="text-frame" x="36.85" y="322.85" width="294.803" height="22" />
<rect class="label-bg" x="263.653" y="330.85" width="68" height="14" />
<text class="z-index" x="259.653" y="340.85" text-anchor="end">z:430</text>
<text class="label label-inv" x="327.653" y="340.85">BIJSCHRIFT</text>
<rect class="image-frame" x="36.85" y="102.85" width="294.803" height="214.402" />
<rect class="label-bg" x="293.653" y="303.25199999999995" width="38" height="14" />
<text class="z-index" x="289.653" y="313.25199999999995" text-anchor="end">z:431</text>
<text class="label label-inv" x="327.653" y="313.25199999999995">image</text>
<rect class="text-frame" x="36.85" y="575.85" width="141.732" height="266.748" />
<rect class="label-bg" x="140.582" y="828.598" width="38" height="14" />
<text class="z-index" x="136.582" y="838.598" text-anchor="end">z:432</text>
<text class="label label-inv" x="174.582" y="838.598">TEKST</text>
<rect class="text-frame" x="189.921" y="454.85" width="141.732" height="387.748" />
<rect class="label-bg" x="293.653" y="828.598" width="38" height="14" />
<text class="z-index" x="289.653" y="838.598" text-anchor="end">z:433</text>
<text class="label label-inv" x="327.653" y="838.598">TEKST</text>
<rect class="text-frame" x="189.921" y="575.85" width="141.732" height="110" />
<rect class="label-bg" x="293.653" y="671.85" width="38" height="14" />
<text class="z-index" x="289.653" y="681.85" text-anchor="end">z:434</text>
<text class="label label-inv" x="327.653" y="681.85">QUOTE</text>
<rect class="text-frame" x="37.003" y="551.536" width="141.579" height="16.247" />
<rect class="label-bg" x="134.582" y="553.7829999999999" width="44" height="14" />
<text class="z-index" x="130.582" y="563.7829999999999" text-anchor="end">z:435</text>
<text class="label label-inv" x="174.582" y="563.7829999999999">PLAATS</text>
<rect class="text-frame" x="36.85" y="532.536" width="141.732" height="28.551" />
<rect class="label-bg" x="134.582" y="547.087" width="44" height="14" />
<text class="z-index" x="130.582" y="557.087" text-anchor="end">z:436</text>
<text class="label label-inv" x="174.582" y="557.087">AUTEUR</text>
<rect class="text-frame" x="36.85" y="455.53599999999994" width="141.656" height="76.314" />
<rect class="label-bg" x="140.506" y="517.8499999999999" width="38" height="14" />
<text class="z-index" x="136.506" y="527.8499999999999" text-anchor="end">z:437</text>
<text class="label label-inv" x="174.506" y="527.8499999999999">INTRO</text>
</g>
</svg>