<svg xmlns="http://www.w3.org/2000/svg" width="794.016" height="1098.677" viewBox="16.85 60.849999999999994 794.016 1098.677">
<style>
    .page { fill: #fff; stroke: #ccc; }
    .margin { fill: none; stroke: #aaa; stroke-dasharray: 4 2; }
    .column { fill: none; stroke: #ddd; }
    .grid { stroke: #eee; stroke-width: 0.5; }

    .text-frame { fill: rgba(0,0,255,0.08); stroke: #00f; }
    .image-frame { fill: rgba(255,165,0,0.15); stroke: #f90; }

    .frame-id { 
        font-size: 7px; 
        fill: #666;
    }
    
    .thread {
        fill: none;
        stroke: #888;
        stroke-dasharray: 3 3;
        stroke-width: 1;
    }

    .label {
        font-size: 9px;
        font-family: monospace;
    }

    .snippet {
        font-size: 12px;
        font-family: Inter, system-ui, -apple-system, Segoe UI, Roboto, Arial, sans-serif;
        fill: #111;
    }

    .label-bg {
        fill: #000;
        opacity: 0.75;
    }

    .label-inv {
        fill: #fff;
        text-anchor: end;
    }

    .z-index { 
        font-size: 7px; 
        fill: #333;
        text-anchor: end;
        paint-order: stroke fill;
        stroke: white;
        stroke-width: 2;
        stroke-linejoin: round;
    }

    .distance {
        stroke: red;
        stroke-width: 2.5;
        fill: none;
    }

    .edge-ghost {
        stroke: rgba(200, 0, 0, 0.4);
        stroke-width: 1.5;
        stroke-dasharray: 6 3;
        fill: none;
    }

    .arrowhead {
        fill: red;
    }
    
    .fender-zone {
        fill: url(#fender-hatch);
        stroke: none;
    }

    .fender-edge {
        stroke: #0891b2;
        stroke-width: 2;
        fill: none;
    }
</style>
<defs>
    <pattern id="baseline-grid" patternUnits="userSpaceOnUse" width="100%" height="11">
        <line x1="0" y1="0" x2="100%" y2="0" class="grid" />
    </pattern>
    <pattern id="checkerboard" patternUnits="userSpaceOnUse" width="20" height="20">
        <rect width="20" height="20" fill="#e8e8e8" stroke="none"/>
        <rect width="10" height="10" fill="#ffffff" stroke="none"/>
        <rect x="10" y="10" width="10" height="10" fill="#ffffff" stroke="none"/>
    </pattern>
    <pattern id="fender-hatch" patternUnits="userSpaceOnUse" width="8" height="8" patternTransform="rotate(45)">
        <line x1="0" y1="0" x2="0" y2="8" stroke="#0891b2" stroke-width="1.2" stroke-opacity="0.5" />
    </pattern>
</defs>


<g id="article">
<line class="thread" x1="517.525" y1="1139.528" x2="637.9" y2="586.85" />
<rect class="text-frame" x="637.9" y="586.85" width="152.666" height="552.677" />
<rect class="label-bg" x="752.566" y="1125.527" width="38" height="14" />
<text class="z-index" x="748.566" y="1135.527" text-anchor="end">z:115</text>
<text class="label label-inv" x="786.566" y="1135.527">TEKST</text>
<rect class="text-frame" x="36.85" y="575.85" width="480.675" height="563.678" />
<rect class="label-bg" x="479.525" y="1125.528" width="38" height="14" />
<text class="z-index" x="475.525" y="1135.528" text-anchor="end">z:116</text>
<text class="label label-inv" x="513.525" y="1135.528">TEKST</text>
<rect class="image-frame" x="364.85900000000004" y="135.85" width="426.007" height="610" />
<rect class="label-bg" x="752.866" y="731.85" width="38" height="14" />
<text class="z-index" x="748.866" y="741.85" text-anchor="end">z:117</text>
<text class="label label-inv" x="786.866" y="741.85">image</text>
<rect class="text-frame" x="528.864" y="1020.5360000000001" width="97.998" height="118.991" />
<rect class="label-bg" x="588.8620000000001" y="1125.527" width="38" height="14" />
<text class="z-index" x="584.8620000000001" y="1135.527" text-anchor="end">z:118</text>
<text class="label label-inv" x="622.8620000000001" y="1135.527">QUOTE</text>
<rect class="text-frame" x="530.079" y="751.85" width="97.998" height="11" />
<rect class="label-bg" x="560.077" y="748.85" width="68" height="14" />
<text class="z-index" x="556.077" y="758.85" text-anchor="end">z:119</text>
<text class="label label-inv" x="624.077" y="758.85">BIJSCHRIFT</text>
<rect class="text-frame" x="36.85" y="102.85" width="754.016" height="22" />
<rect class="label-bg" x="734.866" y="110.85" width="56" height="14" />
<text class="z-index" x="730.866" y="120.85" text-anchor="end">z:120</text>
<text class="label label-inv" x="786.866" y="120.85">BOVENKOP</text>
<rect class="text-frame" x="36.85" y="135.85" width="314.291" height="330" />
<rect class="label-bg" x="325.141" y="451.85" width="26" height="14" />
<text class="z-index" x="321.141" y="461.85" text-anchor="end">z:121</text>
<text class="label label-inv" x="347.141" y="461.85">KOP</text>
<rect class="text-frame" x="37.168" y="572.85" width="152.086" height="27.933" />
<rect class="label-bg" x="145.25400000000002" y="586.783" width="44" height="14" />
<text class="z-index" x="141.25400000000002" y="596.783" text-anchor="end">z:122</text>
<text class="label label-inv" x="185.25400000000002" y="596.783">PLAATS</text>
<rect class="text-frame" x="37.003" y="553.85" width="152.251" height="40.237" />
<rect class="label-bg" x="145.25400000000002" y="580.087" width="44" height="14" />
<text class="z-index" x="141.25400000000002" y="590.087" text-anchor="end">z:123</text>
<text class="label label-inv" x="185.25400000000002" y="590.087">AUTEUR</text>
<rect class="text-frame" x="37.003" y="476.85" width="316.517" height="86.725" />
<rect class="label-bg" x="315.52" y="549.575" width="38" height="14" />
<text class="z-index" x="311.52" y="559.575" text-anchor="end">z:124</text>
<text class="label label-inv" x="349.52" y="559.575">INTRO</text>
</g>
</svg>