<svg xmlns="http://www.w3.org/2000/svg" width="992.441" height="832" viewBox="322.992 60.849999999999994 992.441 832">
<style>
    .page { fill: #fff; stroke: #ccc; }
    .margin { fill: none; stroke: #aaa; stroke-dasharray: 4 2; }
    .column { fill: none; stroke: #ddd; }
    .grid { stroke: #eee; stroke-width: 0.5; }

    .text-frame { fill: rgba(0,0,255,0.08); stroke: #00f; }
    .image-frame { fill: rgba(255,165,0,0.15); stroke: #f90; }

    .frame-id { 
        font-size: 7px; 
        fill: #666;
    }
    
    .thread {
        fill: none;
        stroke: #888;
        stroke-dasharray: 3 3;
        stroke-width: 1;
    }

    .label {
        font-size: 9px;
        font-family: monospace;
    }

    .snippet {
        font-size: 12px;
        font-family: Inter, system-ui, -apple-system, Segoe UI, Roboto, Arial, sans-serif;
        fill: #111;
    }

    .label-bg {
        fill: #000;
        opacity: 0.75;
    }

    .label-inv {
        fill: #fff;
        text-anchor: end;
    }

    .z-index { 
        font-size: 7px; 
        fill: #333;
        text-anchor: end;
        paint-order: stroke fill;
        stroke: white;
        stroke-width: 2;
        stroke-linejoin: round;
    }

    .distance {
        stroke: red;
        stroke-width: 2.5;
        fill: none;
    }

    .edge-ghost {
        stroke: rgba(200, 0, 0, 0.4);
        stroke-width: 1.5;
        stroke-dasharray: 6 3;
        fill: none;
    }

    .arrowhead {
        fill: red;
    }
    
    .fender-zone {
        fill: url(#fender-hatch);
        stroke: none;
    }

    .fender-edge {
        stroke: #0891b2;
        stroke-width: 2;
        fill: none;
    }
</style>
<defs>
    <pattern id="baseline-grid" patternUnits="userSpaceOnUse" width="100%" height="11">
        <line x1="0" y1="0" x2="100%" y2="0" class="grid" />
    </pattern>
    <pattern id="checkerboard" patternUnits="userSpaceOnUse" width="20" height="20">
        <rect width="20" height="20" fill="#e8e8e8" stroke="none"/>
        <rect width="10" height="10" fill="#ffffff" stroke="none"/>
        <rect x="10" y="10" width="10" height="10" fill="#ffffff" stroke="none"/>
    </pattern>
    <pattern id="fender-hatch" patternUnits="userSpaceOnUse" width="8" height="8" patternTransform="rotate(45)">
        <line x1="0" y1="0" x2="0" y2="8" stroke="#0891b2" stroke-width="1.2" stroke-opacity="0.5" />
    </pattern>
</defs>


<g id="article">

<rect class="text-frame" x="354.331" y="333.85" width="436.535" height="508.193" />
<rect class="label-bg" x="752.866" y="828.043" width="38" height="14" />
<text class="z-index" x="748.866" y="838.043" text-anchor="end">z:417</text>
<text class="label label-inv" x="786.866" y="838.043">TEKST</text>
<rect class="text-frame" x="847.559" y="828.85" width="436.535" height="11" />
<rect class="label-bg" x="1216.094" y="825.85" width="68" height="14" />
<text class="z-index" x="1212.094" y="835.85" text-anchor="end">z:418</text>
<text class="label label-inv" x="1280.094" y="835.85">BIJSCHRIFT</text>
<rect class="image-frame" x="847.559" y="135.85" width="436.535" height="688.087" />
<rect class="label-bg" x="1246.094" y="809.937" width="38" height="14" />
<text class="z-index" x="1242.094" y="819.937" text-anchor="end">z:419</text>
<text class="label label-inv" x="1280.094" y="819.937">image</text>
<rect class="text-frame" x="354.331" y="102.37799999999999" width="929.764" height="22" />
<rect class="label-bg" x="1228.095" y="110.37799999999999" width="56" height="14" />
<text class="z-index" x="1224.095" y="120.37799999999999" text-anchor="end">z:420</text>
<text class="label label-inv" x="1280.095" y="120.37799999999999">BOVENKOP</text>
<rect class="text-frame" x="354.331" y="135.453" width="436.535" height="176.397" />
<rect class="label-bg" x="764.866" y="297.85" width="26" height="14" />
<text class="z-index" x="760.866" y="307.85" text-anchor="end">z:421</text>
<text class="label label-inv" x="786.866" y="307.85">KOP</text>
<rect class="text-frame" x="503.646" y="718.85" width="137.953" height="121" />
<rect class="label-bg" x="603.599" y="825.85" width="38" height="14" />
<text class="z-index" x="599.599" y="835.85" text-anchor="end">z:422</text>
<text class="label label-inv" x="637.599" y="835.85">QUOTE</text>
<rect class="text-frame" x="354.48" y="440.85" width="137.804" height="27.933" />
<rect class="label-bg" x="448.284" y="454.783" width="44" height="14" />
<text class="z-index" x="444.284" y="464.783" text-anchor="end">z:423</text>
<text class="label label-inv" x="488.284" y="464.783">PLAATS</text>
<rect class="text-frame" x="354.331" y="421.85" width="137.953" height="40.237" />
<rect class="label-bg" x="448.284" y="448.08700000000005" width="44" height="14" />
<text class="z-index" x="444.284" y="458.08700000000005" text-anchor="end">z:424</text>
<text class="label label-inv" x="488.284" y="458.08700000000005">AUTEUR</text>
<rect class="text-frame" x="354.331" y="333.85" width="137.878" height="102.865" />
<rect class="label-bg" x="454.209" y="422.71500000000003" width="38" height="14" />
<text class="z-index" x="450.209" y="432.71500000000003" text-anchor="end">z:425</text>
<text class="label label-inv" x="488.209" y="432.71500000000003">INTRO</text>
</g>
</svg>