<svg xmlns="http://www.w3.org/2000/svg" width="794.016" height="1098.394" viewBox="16.85 60.849999999999994 794.016 1098.394">
<style>
    .page { fill: #fff; stroke: #ccc; }
    .margin { fill: none; stroke: #aaa; stroke-dasharray: 4 2; }
    .column { fill: none; stroke: #ddd; }
    .grid { stroke: #eee; stroke-width: 0.5; }

    .text-frame { fill: rgba(0,0,255,0.08); stroke: #00f; }
    .image-frame { fill: rgba(255,165,0,0.15); stroke: #f90; }

    .frame-id { 
        font-size: 7px; 
        fill: #666;
    }
    
    .thread {
        fill: none;
        stroke: #888;
        stroke-dasharray: 3 3;
        stroke-width: 1;
    }

    .label {
        font-size: 9px;
        font-family: monospace;
    }

    .snippet {
        font-size: 12px;
        font-family: Inter, system-ui, -apple-system, Segoe UI, Roboto, Arial, sans-serif;
        fill: #111;
    }

    .label-bg {
        fill: #000;
        opacity: 0.75;
    }

    .label-inv {
        fill: #fff;
        text-anchor: end;
    }

    .z-index { 
        font-size: 7px; 
        fill: #333;
        text-anchor: end;
        paint-order: stroke fill;
        stroke: white;
        stroke-width: 2;
        stroke-linejoin: round;
    }

    .distance {
        stroke: red;
        stroke-width: 2.5;
        fill: none;
    }

    .edge-ghost {
        stroke: rgba(200, 0, 0, 0.4);
        stroke-width: 1.5;
        stroke-dasharray: 6 3;
        fill: none;
    }

    .arrowhead {
        fill: red;
    }
    
    .fender-zone {
        fill: url(#fender-hatch);
        stroke: none;
    }

    .fender-edge {
        stroke: #0891b2;
        stroke-width: 2;
        fill: none;
    }
</style>
<defs>
    <pattern id="baseline-grid" patternUnits="userSpaceOnUse" width="100%" height="11">
        <line x1="0" y1="0" x2="100%" y2="0" class="grid" />
    </pattern>
    <pattern id="checkerboard" patternUnits="userSpaceOnUse" width="20" height="20">
        <rect width="20" height="20" fill="#e8e8e8" stroke="none"/>
        <rect width="10" height="10" fill="#ffffff" stroke="none"/>
        <rect x="10" y="10" width="10" height="10" fill="#ffffff" stroke="none"/>
    </pattern>
    <pattern id="fender-hatch" patternUnits="userSpaceOnUse" width="8" height="8" patternTransform="rotate(45)">
        <line x1="0" y1="0" x2="0" y2="8" stroke="#0891b2" stroke-width="1.2" stroke-opacity="0.5" />
    </pattern>
</defs>


<g id="article">
<line class="thread" x1="517.525" y1="1139.2440000000001" x2="638.2" y2="740.85" />
<rect class="text-frame" x="36.85" y="487.57500000000005" width="480.675" height="651.669" />
<rect class="label-bg" x="479.525" y="1125.2440000000001" width="38" height="14" />
<text class="z-index" x="475.525" y="1135.2440000000001" text-anchor="end">z:434</text>
<text class="label label-inv" x="513.525" y="1135.2440000000001">TEKST</text>
<rect class="text-frame" x="36.85" y="102.85" width="754.016" height="22" />
<rect class="label-bg" x="734.866" y="110.85" width="56" height="14" />
<text class="z-index" x="730.866" y="120.85" text-anchor="end">z:436</text>
<text class="label label-inv" x="786.866" y="120.85">BOVENKOP</text>
<rect class="text-frame" x="36.85" y="135.85" width="754.016" height="121" />
<rect class="label-bg" x="764.866" y="242.85000000000002" width="26" height="14" />
<text class="z-index" x="760.866" y="252.85000000000002" text-anchor="end">z:441</text>
<text class="label label-inv" x="786.866" y="252.85000000000002">KOP</text>
<rect class="text-frame" x="528.864" y="741.001" width="97.998" height="131.7" />
<rect class="label-bg" x="558.8620000000001" y="858.701" width="68" height="14" />
<text class="z-index" x="554.8620000000001" y="868.701" text-anchor="end">z:442</text>
<text class="label label-inv" x="622.8620000000001" y="868.701">BIJSCHRIFT</text>
<rect class="image-frame" x="200.855" y="278.54999999999995" width="590.011" height="455.339" />
<rect class="label-bg" x="752.866" y="719.8889999999999" width="38" height="14" />
<text class="z-index" x="748.866" y="729.8889999999999" text-anchor="end">z:443</text>
<text class="label label-inv" x="786.866" y="729.8889999999999">image</text>
<rect class="text-frame" x="638.2" y="740.85" width="152.666" height="398.394" />
<rect class="label-bg" x="752.866" y="1125.2440000000001" width="38" height="14" />
<text class="z-index" x="748.866" y="1135.2440000000001" text-anchor="end">z:444</text>
<text class="label label-inv" x="786.866" y="1135.2440000000001">TEKST</text>
<rect class="text-frame" x="200.855" y="1026.85" width="316.67" height="33" />
<rect class="label-bg" x="449.525" y="1045.85" width="68" height="14" />
<text class="z-index" x="445.525" y="1055.85" text-anchor="end">z:445</text>
<text class="label label-inv" x="513.525" y="1055.85">BIJSCHRIFT</text>
<rect class="image-frame" x="200.855" y="746.315" width="316.67" height="273.685" />
<rect class="label-bg" x="479.525" y="1006" width="38" height="14" />
<text class="z-index" x="475.525" y="1016" text-anchor="end">z:446</text>
<text class="label label-inv" x="513.525" y="1016">image</text>
<rect class="text-frame" x="528.864" y="1031.85" width="97.998" height="106" />
<rect class="label-bg" x="588.8620000000001" y="1123.85" width="38" height="14" />
<text class="z-index" x="584.8620000000001" y="1133.85" text-anchor="end">z:447</text>
<text class="label label-inv" x="622.8620000000001" y="1133.85">QUOTE</text>
<rect class="text-frame" x="37.003" y="484.879" width="141.579" height="60.904" />
<rect class="label-bg" x="134.582" y="531.783" width="44" height="14" />
<text class="z-index" x="130.582" y="541.783" text-anchor="end">z:448</text>
<text class="label label-inv" x="174.582" y="541.783">PLAATS</text>
<rect class="text-frame" x="36.85" y="465.879" width="141.732" height="73.208" />
<rect class="label-bg" x="134.582" y="525.087" width="44" height="14" />
<text class="z-index" x="130.582" y="535.087" text-anchor="end">z:449</text>
<text class="label label-inv" x="174.582" y="535.087">AUTEUR</text>
<rect class="text-frame" x="36.85" y="278.85" width="141.732" height="230.725" />
<rect class="label-bg" x="140.582" y="495.57500000000005" width="38" height="14" />
<text class="z-index" x="136.582" y="505.57500000000005" text-anchor="end">z:450</text>
<text class="label label-inv" x="174.582" y="505.57500000000005">INTRO</text>
</g>
</svg>