<svg xmlns="http://www.w3.org/2000/svg" width="794.016" height="1098.323" viewBox="827.559 60.849999999999994 794.016 1098.323">
<style>
    .page { fill: #fff; stroke: #ccc; }
    .margin { fill: none; stroke: #aaa; stroke-dasharray: 4 2; }
    .column { fill: none; stroke: #ddd; }
    .grid { stroke: #eee; stroke-width: 0.5; }

    .text-frame { fill: rgba(0,0,255,0.08); stroke: #00f; }
    .image-frame { fill: rgba(255,165,0,0.15); stroke: #f90; }

    .frame-id { 
        font-size: 7px; 
        fill: #666;
    }
    
    .thread {
        fill: none;
        stroke: #888;
        stroke-dasharray: 3 3;
        stroke-width: 1;
    }

    .label {
        font-size: 9px;
        font-family: monospace;
    }

    .snippet {
        font-size: 12px;
        font-family: Inter, system-ui, -apple-system, Segoe UI, Roboto, Arial, sans-serif;
        fill: #111;
    }

    .label-bg {
        fill: #000;
        opacity: 0.75;
    }

    .label-inv {
        fill: #fff;
        text-anchor: end;
    }

    .z-index { 
        font-size: 7px; 
        fill: #333;
        text-anchor: end;
        paint-order: stroke fill;
        stroke: white;
        stroke-width: 2;
        stroke-linejoin: round;
    }

    .distance {
        stroke: red;
        stroke-width: 2.5;
        fill: none;
    }

    .edge-ghost {
        stroke: rgba(200, 0, 0, 0.4);
        stroke-width: 1.5;
        stroke-dasharray: 6 3;
        fill: none;
    }

    .arrowhead {
        fill: red;
    }
    
    .fender-zone {
        fill: url(#fender-hatch);
        stroke: none;
    }

    .fender-edge {
        stroke: #0891b2;
        stroke-width: 2;
        fill: none;
    }
</style>
<defs>
    <pattern id="baseline-grid" patternUnits="userSpaceOnUse" width="100%" height="11">
        <line x1="0" y1="0" x2="100%" y2="0" class="grid" />
    </pattern>
    <pattern id="checkerboard" patternUnits="userSpaceOnUse" width="20" height="20">
        <rect width="20" height="20" fill="#e8e8e8" stroke="none"/>
        <rect width="10" height="10" fill="#ffffff" stroke="none"/>
        <rect x="10" y="10" width="10" height="10" fill="#ffffff" stroke="none"/>
    </pattern>
    <pattern id="fender-hatch" patternUnits="userSpaceOnUse" width="8" height="8" patternTransform="rotate(45)">
        <line x1="0" y1="0" x2="0" y2="8" stroke="#0891b2" stroke-width="1.2" stroke-opacity="0.5" />
    </pattern>
</defs>


<g id="article">
<line class="thread" x1="1000.63" y1="1139.173" x2="1120.9" y2="685.85" />
<rect class="text-frame" x="847.559" y="487.85" width="153.071" height="651.323" />
<rect class="label-bg" x="962.63" y="1125.173" width="38" height="14" />
<text class="z-index" x="958.63" y="1135.173" text-anchor="end">z:310</text>
<text class="label label-inv" x="996.63" y="1135.173">TEKST</text>
<rect class="text-frame" x="1011.564" y="685.85" width="97.998" height="154" />
<rect class="label-bg" x="1041.562" y="825.85" width="68" height="14" />
<text class="z-index" x="1037.562" y="835.85" text-anchor="end">z:311</text>
<text class="label label-inv" x="1105.562" y="835.85">BIJSCHRIFT</text>
<rect class="image-frame" x="1011.564" y="273.15" width="590.011" height="406.7" />
<rect class="label-bg" x="1563.5749999999998" y="665.8499999999999" width="38" height="14" />
<text class="z-index" x="1559.5749999999998" y="675.8499999999999" text-anchor="end">z:312</text>
<text class="label label-inv" x="1597.5749999999998" y="675.8499999999999">image</text>
<rect class="text-frame" x="1120.9" y="685.85" width="480.675" height="453.323" />
<rect class="label-bg" x="1563.575" y="1125.173" width="38" height="14" />
<text class="z-index" x="1559.575" y="1135.173" text-anchor="end">z:313</text>
<text class="label label-inv" x="1597.575" y="1135.173">TEKST</text>
<rect class="text-frame" x="1284.904" y="861.85" width="152.666" height="123.2" />
<rect class="label-bg" x="1399.57" y="971.0500000000001" width="38" height="14" />
<text class="z-index" x="1395.57" y="981.0500000000001" text-anchor="end">z:314</text>
<text class="label label-inv" x="1433.57" y="981.0500000000001">QUOTE</text>
<rect class="text-frame" x="847.559" y="135.85" width="754.016" height="132" />
<rect class="label-bg" x="1575.5749999999998" y="253.85000000000002" width="26" height="14" />
<text class="z-index" x="1571.5749999999998" y="263.85" text-anchor="end">z:315</text>
<text class="label label-inv" x="1597.5749999999998" y="263.85">KOP</text>
<rect class="text-frame" x="847.559" y="102.85" width="754.016" height="15.821" />
<rect class="label-bg" x="1545.5749999999998" y="104.67099999999999" width="56" height="14" />
<text class="z-index" x="1541.5749999999998" y="114.67099999999999" text-anchor="end">z:316</text>
<text class="label label-inv" x="1597.5749999999998" y="114.67099999999999">BOVENKOP</text>
<rect class="text-frame" x="847.559" y="102.85" width="56.978" height="15.821" />
<rect class="label-bg" x="854.5369999999999" y="104.67099999999999" width="50" height="14" />
<text class="z-index" x="850.5369999999999" y="114.67099999999999" text-anchor="end">z:317</text>
<text class="label label-inv" x="900.5369999999999" y="114.67099999999999">SPECIAL</text>
<rect class="text-frame" x="848.533" y="473.879" width="152.097" height="27.904" />
<rect class="label-bg" x="956.63" y="487.783" width="44" height="14" />
<text class="z-index" x="952.63" y="497.783" text-anchor="end">z:318</text>
<text class="label label-inv" x="996.63" y="497.783">PLAATS</text>
<rect class="text-frame" x="848.3689999999999" y="454.879" width="152.261" height="40.208" />
<rect class="label-bg" x="956.6299999999999" y="481.087" width="44" height="14" />
<text class="z-index" x="952.6299999999999" y="491.087" text-anchor="end">z:319</text>
<text class="label label-inv" x="996.6299999999999" y="491.087">AUTEUR</text>
<rect class="text-frame" x="848.3689999999999" y="267.85" width="152.261" height="194.725" />
<rect class="label-bg" x="962.6299999999999" y="448.57500000000005" width="38" height="14" />
<text class="z-index" x="958.6299999999999" y="458.57500000000005" text-anchor="end">z:320</text>
<text class="label label-inv" x="996.6299999999999" y="458.57500000000005">INTRO</text>
</g>
</svg>