<svg xmlns="http://www.w3.org/2000/svg" width="794.016" height="801.843" viewBox="8.346 60.849999999999994 794.016 801.843">
<style>
    .page { fill: #fff; stroke: #ccc; }
    .margin { fill: none; stroke: #aaa; stroke-dasharray: 4 2; }
    .column { fill: none; stroke: #ddd; }
    .grid { stroke: #eee; stroke-width: 0.5; }

    .text-frame { fill: rgba(0,0,255,0.08); stroke: #00f; }
    .image-frame { fill: rgba(255,165,0,0.15); stroke: #f90; }

    .frame-id { 
        font-size: 7px; 
        fill: #666;
    }
    
    .thread {
        fill: none;
        stroke: #888;
        stroke-dasharray: 3 3;
        stroke-width: 1;
    }

    .label {
        font-size: 9px;
        font-family: monospace;
    }

    .snippet {
        font-size: 12px;
        font-family: Inter, system-ui, -apple-system, Segoe UI, Roboto, Arial, sans-serif;
        fill: #111;
    }

    .label-bg {
        fill: #000;
        opacity: 0.75;
    }

    .label-inv {
        fill: #fff;
        text-anchor: end;
    }

    .z-index { 
        font-size: 7px; 
        fill: #333;
        text-anchor: end;
        paint-order: stroke fill;
        stroke: white;
        stroke-width: 2;
        stroke-linejoin: round;
    }

    .distance {
        stroke: red;
        stroke-width: 2.5;
        fill: none;
    }

    .edge-ghost {
        stroke: rgba(200, 0, 0, 0.4);
        stroke-width: 1.5;
        stroke-dasharray: 6 3;
        fill: none;
    }

    .arrowhead {
        fill: red;
    }
    
    .fender-zone {
        fill: url(#fender-hatch);
        stroke: none;
    }

    .fender-edge {
        stroke: #0891b2;
        stroke-width: 2;
        fill: none;
    }
</style>
<defs>
    <pattern id="baseline-grid" patternUnits="userSpaceOnUse" width="100%" height="11">
        <line x1="0" y1="0" x2="100%" y2="0" class="grid" />
    </pattern>
    <pattern id="checkerboard" patternUnits="userSpaceOnUse" width="20" height="20">
        <rect width="20" height="20" fill="#e8e8e8" stroke="none"/>
        <rect width="10" height="10" fill="#ffffff" stroke="none"/>
        <rect x="10" y="10" width="10" height="10" fill="#ffffff" stroke="none"/>
    </pattern>
    <pattern id="fender-hatch" patternUnits="userSpaceOnUse" width="8" height="8" patternTransform="rotate(45)">
        <line x1="0" y1="0" x2="0" y2="8" stroke="#0891b2" stroke-width="1.2" stroke-opacity="0.5" />
    </pattern>
</defs>


<g id="article">
<line class="thread" x1="508.616" y1="842.693" x2="629.696" y2="608.85" />
<rect class="text-frame" x="28.346" y="410.85" width="480.27" height="431.843" />
<rect class="label-bg" x="470.616" y="828.693" width="38" height="14" />
<text class="z-index" x="466.616" y="838.693" text-anchor="end">z:311</text>
<text class="label label-inv" x="504.616" y="838.693">TEKST</text>
<rect class="text-frame" x="519.691" y="609.15" width="97.998" height="76.7" />
<rect class="label-bg" x="549.6890000000001" y="671.85" width="68" height="14" />
<text class="z-index" x="545.6890000000001" y="681.85" text-anchor="end">z:316</text>
<text class="label label-inv" x="613.6890000000001" y="681.85">BIJSCHRIFT</text>
<rect class="text-frame" x="629.696" y="608.85" width="152.666" height="233.843" />
<rect class="label-bg" x="744.3620000000001" y="828.693" width="38" height="14" />
<text class="z-index" x="740.3620000000001" y="838.693" text-anchor="end">z:317</text>
<text class="label label-inv" x="778.3620000000001" y="838.693">TEKST</text>
<rect class="text-frame" x="519.691" y="734.825" width="97.998" height="107.867" />
<rect class="label-bg" x="579.6890000000001" y="828.692" width="38" height="14" />
<text class="z-index" x="575.6890000000001" y="838.692" text-anchor="end">z:318</text>
<text class="label label-inv" x="613.6890000000001" y="838.692">QUOTE</text>
<rect class="text-frame" x="28.346" y="135.85" width="754.016" height="55" />
<rect class="label-bg" x="756.362" y="176.85" width="26" height="14" />
<text class="z-index" x="752.362" y="186.85" text-anchor="end">z:319</text>
<text class="label label-inv" x="778.362" y="186.85">KOP</text>
<rect class="text-frame" x="28.346" y="102.85" width="754.016" height="22" />
<rect class="label-bg" x="726.362" y="110.85" width="56" height="14" />
<text class="z-index" x="722.362" y="120.85" text-anchor="end">z:320</text>
<text class="label label-inv" x="778.362" y="120.85">BOVENKOP</text>
<rect class="image-frame" x="192.34" y="205.85" width="590.022" height="397.675" />
<rect class="label-bg" x="744.3620000000001" y="589.525" width="38" height="14" />
<text class="z-index" x="740.3620000000001" y="599.525" text-anchor="end">z:321</text>
<text class="label label-inv" x="778.3620000000001" y="599.525">image</text>
<rect class="text-frame" x="28.511" y="404.946" width="152.366" height="30.837" />
<rect class="label-bg" x="136.877" y="421.783" width="44" height="14" />
<text class="z-index" x="132.877" y="431.783" text-anchor="end">z:322</text>
<text class="label label-inv" x="176.877" y="431.783">PLAATS</text>
<rect class="text-frame" x="28.346" y="385.946" width="152.531" height="43.141" />
<rect class="label-bg" x="136.877" y="415.08700000000005" width="44" height="14" />
<text class="z-index" x="132.877" y="425.08700000000005" text-anchor="end">z:323</text>
<text class="label label-inv" x="176.877" y="425.08700000000005">AUTEUR</text>
<rect class="text-frame" x="28.346" y="198.91699999999997" width="152.531" height="194.725" />
<rect class="label-bg" x="142.877" y="379.64199999999994" width="38" height="14" />
<text class="z-index" x="138.877" y="389.64199999999994" text-anchor="end">z:324</text>
<text class="label label-inv" x="176.877" y="389.64199999999994">INTRO</text>
</g>
</svg>