<svg xmlns="http://www.w3.org/2000/svg" width="794.12" height="1101.512" viewBox="16.85 60.849999999999994 794.12 1101.512">
<style>
    .page { fill: #fff; stroke: #ccc; }
    .margin { fill: none; stroke: #aaa; stroke-dasharray: 4 2; }
    .column { fill: none; stroke: #ddd; }
    .grid { stroke: #eee; stroke-width: 0.5; }

    .text-frame { fill: rgba(0,0,255,0.08); stroke: #00f; }
    .image-frame { fill: rgba(255,165,0,0.15); stroke: #f90; }

    .frame-id { 
        font-size: 7px; 
        fill: #666;
    }
    
    .thread {
        fill: none;
        stroke: #888;
        stroke-dasharray: 3 3;
        stroke-width: 1;
    }

    .label {
        font-size: 9px;
        font-family: monospace;
    }

    .snippet {
        font-size: 12px;
        font-family: Inter, system-ui, -apple-system, Segoe UI, Roboto, Arial, sans-serif;
        fill: #111;
    }

    .label-bg {
        fill: #000;
        opacity: 0.75;
    }

    .label-inv {
        fill: #fff;
        text-anchor: end;
    }

    .z-index { 
        font-size: 7px; 
        fill: #333;
        text-anchor: end;
        paint-order: stroke fill;
        stroke: white;
        stroke-width: 2;
        stroke-linejoin: round;
    }

    .distance {
        stroke: red;
        stroke-width: 2.5;
        fill: none;
    }

    .edge-ghost {
        stroke: rgba(200, 0, 0, 0.4);
        stroke-width: 1.5;
        stroke-dasharray: 6 3;
        fill: none;
    }

    .arrowhead {
        fill: red;
    }
    
    .fender-zone {
        fill: url(#fender-hatch);
        stroke: none;
    }

    .fender-edge {
        stroke: #0891b2;
        stroke-width: 2;
        fill: none;
    }
</style>
<defs>
    <pattern id="baseline-grid" patternUnits="userSpaceOnUse" width="100%" height="11">
        <line x1="0" y1="0" x2="100%" y2="0" class="grid" />
    </pattern>
    <pattern id="checkerboard" patternUnits="userSpaceOnUse" width="20" height="20">
        <rect width="20" height="20" fill="#e8e8e8" stroke="none"/>
        <rect width="10" height="10" fill="#ffffff" stroke="none"/>
        <rect x="10" y="10" width="10" height="10" fill="#ffffff" stroke="none"/>
    </pattern>
    <pattern id="fender-hatch" patternUnits="userSpaceOnUse" width="8" height="8" patternTransform="rotate(45)">
        <line x1="0" y1="0" x2="0" y2="8" stroke="#0891b2" stroke-width="1.2" stroke-opacity="0.5" />
    </pattern>
</defs>


<g id="article">
<line class="thread" x1="190.008" y1="972.85" x2="310.27700000000004" y2="488.85" />
<rect class="text-frame" x="36.937000000000005" y="498.85" width="153.071" height="474" />
<rect class="label-bg" x="152.008" y="958.85" width="38" height="14" />
<text class="z-index" x="148.008" y="968.85" text-anchor="end">z:6</text>
<text class="label label-inv" x="186.008" y="968.85">TEKST</text>
<rect class="text-frame" x="310.27700000000004" y="488.85" width="480.693" height="483" />
<rect class="label-bg" x="752.97" y="957.85" width="38" height="14" />
<text class="z-index" x="748.97" y="967.85" text-anchor="end">z:7</text>
<text class="label label-inv" x="786.97" y="967.85">TEKST</text>
<rect class="text-frame" x="200.941" y="642.85" width="98.2" height="10" />
<rect class="label-bg" x="231.14100000000002" y="638.85" width="68" height="14" />
<text class="z-index" x="227.14100000000002" y="648.85" text-anchor="end">z:8</text>
<text class="label label-inv" x="295.141" y="648.85">BIJSCHRIFT</text>
<rect class="image-frame" x="200.941" y="278.85" width="590.011" height="358" />
<rect class="label-bg" x="752.952" y="622.85" width="38" height="14" />
<text class="z-index" x="748.952" y="632.85" text-anchor="end">z:9</text>
<text class="label label-inv" x="786.952" y="632.85">image</text>
<rect class="text-frame" x="200.941" y="855.662" width="98.2" height="116.188" />
<rect class="label-bg" x="261.141" y="957.85" width="38" height="14" />
<text class="z-index" x="257.141" y="967.85" text-anchor="end">z:10</text>
<text class="label label-inv" x="295.141" y="967.85">QUOTE</text>
<rect class="text-frame" x="36.886" y="135.85" width="754.016" height="132" />
<rect class="label-bg" x="764.9019999999999" y="253.85000000000002" width="26" height="14" />
<text class="z-index" x="760.9019999999999" y="263.85" text-anchor="end">z:11</text>
<text class="label label-inv" x="786.9019999999999" y="263.85">KOP</text>
<rect class="text-frame" x="36.85" y="102.85" width="754.051" height="22" />
<rect class="label-bg" x="734.9010000000001" y="110.85" width="56" height="14" />
<text class="z-index" x="730.9010000000001" y="120.85" text-anchor="end">z:12</text>
<text class="label label-inv" x="786.9010000000001" y="120.85">BOVENKOP</text>
<rect class="image-frame" x="36.85" y="982.85" width="243.78" height="137" />
<rect class="label-bg" x="242.63" y="1105.85" width="38" height="14" />
<text class="z-index" x="238.63" y="1115.85" text-anchor="end">z:13</text>
<text class="label label-inv" x="276.63" y="1115.85">image</text>
<rect class="image-frame" x="292.32" y="982.85" width="243.78" height="137" />
<rect class="label-bg" x="498.1" y="1105.85" width="38" height="14" />
<text class="z-index" x="494.1" y="1115.85" text-anchor="end">z:14</text>
<text class="label label-inv" x="532.1" y="1115.85">image</text>
<rect class="image-frame" x="547.087" y="982.85" width="243.78" height="137" />
<rect class="label-bg" x="752.867" y="1105.85" width="38" height="14" />
<text class="z-index" x="748.867" y="1115.85" text-anchor="end">z:15</text>
<text class="label label-inv" x="786.867" y="1115.85">image</text>
<rect class="text-frame" x="36.85" y="1125.85" width="243.78" height="16.512" />
<rect class="label-bg" x="212.63" y="1128.3619999999999" width="68" height="14" />
<text class="z-index" x="208.63" y="1138.3619999999999" text-anchor="end">z:16</text>
<text class="label label-inv" x="276.63" y="1138.3619999999999">BIJSCHRIFT</text>
<rect class="text-frame" x="292.32" y="1125.85" width="243.78" height="16.512" />
<rect class="label-bg" x="468.1" y="1128.3619999999999" width="68" height="14" />
<text class="z-index" x="464.1" y="1138.3619999999999" text-anchor="end">z:17</text>
<text class="label label-inv" x="532.1" y="1138.3619999999999">BIJSCHRIFT</text>
<rect class="text-frame" x="547.087" y="1125.85" width="243.78" height="16.512" />
<rect class="label-bg" x="722.867" y="1128.3619999999999" width="68" height="14" />
<text class="z-index" x="718.867" y="1138.3619999999999" text-anchor="end">z:18</text>
<text class="label label-inv" x="786.867" y="1138.3619999999999">BIJSCHRIFT</text>
<rect class="text-frame" x="37.003" y="484.879" width="141.579" height="38.904" />
<rect class="label-bg" x="134.582" y="509.783" width="44" height="14" />
<text class="z-index" x="130.582" y="519.783" text-anchor="end">z:19</text>
<text class="label label-inv" x="174.582" y="519.783">PLAATS</text>
<rect class="text-frame" x="36.85" y="465.879" width="141.732" height="51.208" />
<rect class="label-bg" x="134.582" y="503.087" width="44" height="14" />
<text class="z-index" x="130.582" y="513.087" text-anchor="end">z:20</text>
<text class="label label-inv" x="174.582" y="513.087">AUTEUR</text>
<rect class="text-frame" x="36.85" y="278.85" width="141.732" height="212.725" />
<rect class="label-bg" x="140.582" y="477.57500000000005" width="38" height="14" />
<text class="z-index" x="136.582" y="487.57500000000005" text-anchor="end">z:21</text>
<text class="label label-inv" x="174.582" y="487.57500000000005">INTRO</text>
</g>
</svg>