<svg xmlns="http://www.w3.org/2000/svg" width="334.953" height="802.174" viewBox="16.85 60.849999999999994 334.953 802.174">
<style>
    .page { fill: #fff; stroke: #ccc; }
    .margin { fill: none; stroke: #aaa; stroke-dasharray: 4 2; }
    .column { fill: none; stroke: #ddd; }
    .grid { stroke: #eee; stroke-width: 0.5; }

    .text-frame { fill: rgba(0,0,255,0.08); stroke: #00f; }
    .image-frame { fill: rgba(255,165,0,0.15); stroke: #f90; }

    .frame-id { 
        font-size: 7px; 
        fill: #666;
    }
    
    .thread {
        fill: none;
        stroke: #888;
        stroke-dasharray: 3 3;
        stroke-width: 1;
    }

    .label {
        font-size: 9px;
        font-family: monospace;
    }

    .snippet {
        font-size: 12px;
        font-family: Inter, system-ui, -apple-system, Segoe UI, Roboto, Arial, sans-serif;
        fill: #111;
    }

    .label-bg {
        fill: #000;
        opacity: 0.75;
    }

    .label-inv {
        fill: #fff;
        text-anchor: end;
    }

    .z-index { 
        font-size: 7px; 
        fill: #333;
        text-anchor: end;
        paint-order: stroke fill;
        stroke: white;
        stroke-width: 2;
        stroke-linejoin: round;
    }

    .distance {
        stroke: red;
        stroke-width: 2.5;
        fill: none;
    }

    .edge-ghost {
        stroke: rgba(200, 0, 0, 0.4);
        stroke-width: 1.5;
        stroke-dasharray: 6 3;
        fill: none;
    }

    .arrowhead {
        fill: red;
    }
    
    .fender-zone {
        fill: url(#fender-hatch);
        stroke: none;
    }

    .fender-edge {
        stroke: #0891b2;
        stroke-width: 2;
        fill: none;
    }
</style>
<defs>
    <pattern id="baseline-grid" patternUnits="userSpaceOnUse" width="100%" height="11">
        <line x1="0" y1="0" x2="100%" y2="0" class="grid" />
    </pattern>
    <pattern id="checkerboard" patternUnits="userSpaceOnUse" width="20" height="20">
        <rect width="20" height="20" fill="#e8e8e8" stroke="none"/>
        <rect width="10" height="10" fill="#ffffff" stroke="none"/>
        <rect x="10" y="10" width="10" height="10" fill="#ffffff" stroke="none"/>
    </pattern>
    <pattern id="fender-hatch" patternUnits="userSpaceOnUse" width="8" height="8" patternTransform="rotate(45)">
        <line x1="0" y1="0" x2="0" y2="8" stroke="#0891b2" stroke-width="1.2" stroke-opacity="0.5" />
    </pattern>
</defs>


<g id="article">
<line class="thread" x1="178.582" y1="843.024" x2="189.921" y2="201.85" />
<rect class="text-frame" x="189.921" y="201.85" width="141.732" height="641.173" />
<rect class="label-bg" x="293.653" y="829.023" width="38" height="14" />
<text class="z-index" x="289.653" y="839.023" text-anchor="end">z:328</text>
<text class="label label-inv" x="327.653" y="839.023">TEKST</text>
<rect class="text-frame" x="189.921" y="377.85" width="141.732" height="18.15" />
<rect class="label-bg" x="263.653" y="382" width="68" height="14" />
<text class="z-index" x="259.653" y="392" text-anchor="end">z:329</text>
<text class="label label-inv" x="327.653" y="392">BIJSCHRIFT</text>
<rect class="image-frame" x="189.921" y="205.28699999999998" width="141.732" height="167.523" />
<rect class="label-bg" x="293.653" y="358.80999999999995" width="38" height="14" />
<text class="z-index" x="289.653" y="368.80999999999995" text-anchor="end">z:330</text>
<text class="label label-inv" x="327.653" y="368.80999999999995">image</text>
<rect class="text-frame" x="189.921" y="553.85" width="141.732" height="99" />
<rect class="label-bg" x="293.653" y="638.85" width="38" height="14" />
<text class="z-index" x="289.653" y="648.85" text-anchor="end">z:331</text>
<text class="label label-inv" x="327.653" y="648.85">QUOTE</text>
<rect class="text-frame" x="37" y="102.85" width="294.803" height="99" />
<rect class="label-bg" x="305.803" y="187.85" width="26" height="14" />
<text class="z-index" x="301.803" y="197.85" text-anchor="end">z:332</text>
<text class="label label-inv" x="327.803" y="197.85">KOP</text>
<rect class="text-frame" x="36.85" y="289.047" width="141.732" height="553.977" />
<rect class="label-bg" x="140.582" y="829.024" width="38" height="14" />
<text class="z-index" x="136.582" y="839.024" text-anchor="end">z:333</text>
<text class="label label-inv" x="174.582" y="839.024">TEKST</text>
<rect class="text-frame" x="37.153" y="297.919" width="141.579" height="16.864" />
<rect class="label-bg" x="134.732" y="300.78299999999996" width="44" height="14" />
<text class="z-index" x="130.732" y="310.78299999999996" text-anchor="end">z:334</text>
<text class="label label-inv" x="174.732" y="310.78299999999996">PLAATS</text>
<rect class="text-frame" x="37" y="278.919" width="141.732" height="29.168" />
<rect class="label-bg" x="134.732" y="294.087" width="44" height="14" />
<text class="z-index" x="130.732" y="304.087" text-anchor="end">z:335</text>
<text class="label label-inv" x="174.732" y="304.087">AUTEUR</text>
<rect class="text-frame" x="37" y="201.91899999999998" width="141.656" height="76.931" />
<rect class="label-bg" x="140.656" y="264.84999999999997" width="38" height="14" />
<text class="z-index" x="136.656" y="274.84999999999997" text-anchor="end">z:336</text>
<text class="label label-inv" x="174.656" y="274.84999999999997">INTRO</text>
</g>
</svg>