<svg xmlns="http://www.w3.org/2000/svg" width="794.016" height="1101.512" viewBox="16.85 60.849999999999994 794.016 1101.512">
<style>
    .page { fill: #fff; stroke: #ccc; }
    .margin { fill: none; stroke: #aaa; stroke-dasharray: 4 2; }
    .column { fill: none; stroke: #ddd; }
    .grid { stroke: #eee; stroke-width: 0.5; }

    .text-frame { fill: rgba(0,0,255,0.08); stroke: #00f; }
    .image-frame { fill: rgba(255,165,0,0.15); stroke: #f90; }

    .frame-id { 
        font-size: 7px; 
        fill: #666;
    }
    
    .thread {
        fill: none;
        stroke: #888;
        stroke-dasharray: 3 3;
        stroke-width: 1;
    }

    .label {
        font-size: 9px;
        font-family: monospace;
    }

    .snippet {
        font-size: 12px;
        font-family: Inter, system-ui, -apple-system, Segoe UI, Roboto, Arial, sans-serif;
        fill: #111;
    }

    .label-bg {
        fill: #000;
        opacity: 0.75;
    }

    .label-inv {
        fill: #fff;
        text-anchor: end;
    }

    .z-index { 
        font-size: 7px; 
        fill: #333;
        text-anchor: end;
        paint-order: stroke fill;
        stroke: white;
        stroke-width: 2;
        stroke-linejoin: round;
    }

    .distance {
        stroke: red;
        stroke-width: 2.5;
        fill: none;
    }

    .edge-ghost {
        stroke: rgba(200, 0, 0, 0.4);
        stroke-width: 1.5;
        stroke-dasharray: 6 3;
        fill: none;
    }

    .arrowhead {
        fill: red;
    }
    
    .fender-zone {
        fill: url(#fender-hatch);
        stroke: none;
    }

    .fender-edge {
        stroke: #0891b2;
        stroke-width: 2;
        fill: none;
    }
</style>
<defs>
    <pattern id="baseline-grid" patternUnits="userSpaceOnUse" width="100%" height="11">
        <line x1="0" y1="0" x2="100%" y2="0" class="grid" />
    </pattern>
    <pattern id="checkerboard" patternUnits="userSpaceOnUse" width="20" height="20">
        <rect width="20" height="20" fill="#e8e8e8" stroke="none"/>
        <rect width="10" height="10" fill="#ffffff" stroke="none"/>
        <rect x="10" y="10" width="10" height="10" fill="#ffffff" stroke="none"/>
    </pattern>
    <pattern id="fender-hatch" patternUnits="userSpaceOnUse" width="8" height="8" patternTransform="rotate(45)">
        <line x1="0" y1="0" x2="0" y2="8" stroke="#0891b2" stroke-width="1.2" stroke-opacity="0.5" />
    </pattern>
</defs>


<g id="article">
<line class="thread" x1="178.582" y1="1139.528" x2="189.921" y2="674.85" />
<rect class="text-frame" x="189.921" y="674.85" width="600.945" height="464.111" />
<rect class="label-bg" x="752.866" y="1124.961" width="38" height="14" />
<text class="z-index" x="748.866" y="1134.961" text-anchor="end">z:277</text>
<text class="label label-inv" x="786.866" y="1134.961">TEKST</text>
<rect class="text-frame" x="36.85" y="498.85" width="141.732" height="640.678" />
<rect class="label-bg" x="140.582" y="1125.528" width="38" height="14" />
<text class="z-index" x="136.582" y="1135.528" text-anchor="end">z:278</text>
<text class="label label-inv" x="174.582" y="1135.528">TEKST</text>
<rect class="text-frame" x="36.85" y="102.85" width="754.016" height="22" />
<rect class="label-bg" x="734.866" y="110.85" width="56" height="14" />
<text class="z-index" x="730.866" y="120.85" text-anchor="end">z:279</text>
<text class="label label-inv" x="786.866" y="120.85">BOVENKOP</text>
<rect class="text-frame" x="36.85" y="135.85" width="754.016" height="132" />
<rect class="label-bg" x="764.866" y="253.85000000000002" width="26" height="14" />
<text class="z-index" x="760.866" y="263.85" text-anchor="end">z:280</text>
<text class="label label-inv" x="786.866" y="263.85">KOP</text>
<rect class="text-frame" x="189.921" y="652.85" width="600.945" height="22" />
<rect class="label-bg" x="722.866" y="660.85" width="68" height="14" />
<text class="z-index" x="718.866" y="670.85" text-anchor="end">z:281</text>
<text class="label label-inv" x="786.866" y="670.85">BIJSCHRIFT</text>
<rect class="text-frame" x="189.921" y="1125.85" width="294.803" height="16.512" />
<rect class="label-bg" x="416.724" y="1128.3619999999999" width="68" height="14" />
<text class="z-index" x="412.724" y="1138.3619999999999" text-anchor="end">z:282</text>
<text class="label label-inv" x="480.724" y="1138.3619999999999">BIJSCHRIFT</text>
<rect class="image-frame" x="189.921" y="267.85" width="600.945" height="379.252" />
<rect class="label-bg" x="752.866" y="633.1020000000001" width="38" height="14" />
<text class="z-index" x="748.866" y="643.1020000000001" text-anchor="end">z:283</text>
<text class="label label-inv" x="786.866" y="643.1020000000001">image</text>
<rect class="image-frame" x="189.921" y="949.85" width="294.803" height="170.292" />
<rect class="label-bg" x="446.724" y="1106.142" width="38" height="14" />
<text class="z-index" x="442.724" y="1116.142" text-anchor="end">z:284</text>
<text class="label label-inv" x="480.724" y="1116.142">image</text>
<rect class="text-frame" x="496.06300000000005" y="751.85" width="140.922" height="121" />
<rect class="label-bg" x="598.985" y="858.85" width="38" height="14" />
<text class="z-index" x="594.985" y="868.85" text-anchor="end">z:285</text>
<text class="label label-inv" x="632.985" y="868.85">QUOTE</text>
<rect class="text-frame" x="37.003" y="484.879" width="141.579" height="27.904" />
<rect class="label-bg" x="134.582" y="498.783" width="44" height="14" />
<text class="z-index" x="130.582" y="508.783" text-anchor="end">z:286</text>
<text class="label label-inv" x="174.582" y="508.783">PLAATS</text>
<rect class="text-frame" x="36.85" y="465.879" width="141.732" height="40.208" />
<rect class="label-bg" x="134.582" y="492.087" width="44" height="14" />
<text class="z-index" x="130.582" y="502.087" text-anchor="end">z:287</text>
<text class="label label-inv" x="174.582" y="502.087">AUTEUR</text>
<rect class="text-frame" x="36.85" y="278.85" width="141.732" height="194.725" />
<rect class="label-bg" x="140.582" y="459.57500000000005" width="38" height="14" />
<text class="z-index" x="136.582" y="469.57500000000005" text-anchor="end">z:288</text>
<text class="label label-inv" x="174.582" y="469.57500000000005">INTRO</text>
</g>
</svg>