<svg xmlns="http://www.w3.org/2000/svg" width="794.166" height="1098.11" viewBox="16.85 60.849999999999994 794.166 1098.11">
<style>
    .page { fill: #fff; stroke: #ccc; }
    .margin { fill: none; stroke: #aaa; stroke-dasharray: 4 2; }
    .column { fill: none; stroke: #ddd; }
    .grid { stroke: #eee; stroke-width: 0.5; }

    .text-frame { fill: rgba(0,0,255,0.08); stroke: #00f; }
    .image-frame { fill: rgba(255,165,0,0.15); stroke: #f90; }

    .frame-id { 
        font-size: 7px; 
        fill: #666;
    }
    
    .thread {
        fill: none;
        stroke: #888;
        stroke-dasharray: 3 3;
        stroke-width: 1;
    }

    .label {
        font-size: 9px;
        font-family: monospace;
    }

    .snippet {
        font-size: 12px;
        font-family: Inter, system-ui, -apple-system, Segoe UI, Roboto, Arial, sans-serif;
        fill: #111;
    }

    .label-bg {
        fill: #000;
        opacity: 0.75;
    }

    .label-inv {
        fill: #fff;
        text-anchor: end;
    }

    .z-index { 
        font-size: 7px; 
        fill: #333;
        text-anchor: end;
        paint-order: stroke fill;
        stroke: white;
        stroke-width: 2;
        stroke-linejoin: round;
    }

    .distance {
        stroke: red;
        stroke-width: 2.5;
        fill: none;
    }

    .edge-ghost {
        stroke: rgba(200, 0, 0, 0.4);
        stroke-width: 1.5;
        stroke-dasharray: 6 3;
        fill: none;
    }

    .arrowhead {
        fill: red;
    }
    
    .fender-zone {
        fill: url(#fender-hatch);
        stroke: none;
    }

    .fender-edge {
        stroke: #0891b2;
        stroke-width: 2;
        fill: none;
    }
</style>
<defs>
    <pattern id="baseline-grid" patternUnits="userSpaceOnUse" width="100%" height="11">
        <line x1="0" y1="0" x2="100%" y2="0" class="grid" />
    </pattern>
    <pattern id="checkerboard" patternUnits="userSpaceOnUse" width="20" height="20">
        <rect width="20" height="20" fill="#e8e8e8" stroke="none"/>
        <rect width="10" height="10" fill="#ffffff" stroke="none"/>
        <rect x="10" y="10" width="10" height="10" fill="#ffffff" stroke="none"/>
    </pattern>
    <pattern id="fender-hatch" patternUnits="userSpaceOnUse" width="8" height="8" patternTransform="rotate(45)">
        <line x1="0" y1="0" x2="0" y2="8" stroke="#0891b2" stroke-width="1.2" stroke-opacity="0.5" />
    </pattern>
</defs>


<g id="article">

<rect class="text-frame" x="36.85" y="487.85" width="754.016" height="651.111" />
<rect class="label-bg" x="752.866" y="1124.961" width="38" height="14" />
<text class="z-index" x="748.866" y="1134.961" text-anchor="end">z:404</text>
<text class="label label-inv" x="786.866" y="1134.961">TEKST</text>
<rect class="text-frame" x="37" y="102.85" width="754.016" height="22" />
<rect class="label-bg" x="735.016" y="110.85" width="56" height="14" />
<text class="z-index" x="731.016" y="120.85" text-anchor="end">z:405</text>
<text class="label label-inv" x="787.016" y="120.85">BOVENKOP</text>
<rect class="text-frame" x="189.921" y="707.85" width="600.945" height="22" />
<rect class="label-bg" x="722.866" y="715.85" width="68" height="14" />
<text class="z-index" x="718.866" y="725.85" text-anchor="end">z:406</text>
<text class="label label-inv" x="786.866" y="725.85">BIJSCHRIFT</text>
<rect class="text-frame" x="36.85" y="135.85" width="754.016" height="132" />
<rect class="label-bg" x="764.866" y="253.85000000000002" width="26" height="14" />
<text class="z-index" x="760.866" y="263.85" text-anchor="end">z:407</text>
<text class="label label-inv" x="786.866" y="263.85">KOP</text>
<rect class="text-frame" x="496.06300000000005" y="883.85" width="141.732" height="122.846" />
<rect class="label-bg" x="599.7950000000001" y="992.696" width="38" height="14" />
<text class="z-index" x="595.7950000000001" y="1002.696" text-anchor="end">z:408</text>
<text class="label label-inv" x="633.7950000000001" y="1002.696">QUOTE</text>
<rect class="text-frame" x="189.921" y="1114.85" width="294.803" height="24.11" />
<rect class="label-bg" x="416.724" y="1124.9599999999998" width="68" height="14" />
<text class="z-index" x="412.724" y="1134.9599999999998" text-anchor="end">z:409</text>
<text class="label label-inv" x="480.724" y="1134.9599999999998">BIJSCHRIFT</text>
<rect class="image-frame" x="189.921" y="883.85" width="294.803" height="227" />
<rect class="label-bg" x="446.724" y="1096.85" width="38" height="14" />
<text class="z-index" x="442.724" y="1106.85" text-anchor="end">z:410</text>
<text class="label label-inv" x="480.724" y="1106.85">image</text>
<rect class="image-frame" x="189.921" y="272.15" width="600.945" height="429.48" />
<rect class="label-bg" x="752.866" y="687.63" width="38" height="14" />
<text class="z-index" x="748.866" y="697.63" text-anchor="end">z:411</text>
<text class="label label-inv" x="786.866" y="697.63">image</text>
<rect class="text-frame" x="37.003" y="473.879" width="141.579" height="60.904" />
<rect class="label-bg" x="134.582" y="520.783" width="44" height="14" />
<text class="z-index" x="130.582" y="530.783" text-anchor="end">z:412</text>
<text class="label label-inv" x="174.582" y="530.783">PLAATS</text>
<rect class="text-frame" x="36.85" y="454.879" width="141.732" height="73.208" />
<rect class="label-bg" x="134.582" y="514.087" width="44" height="14" />
<text class="z-index" x="130.582" y="524.087" text-anchor="end">z:413</text>
<text class="label label-inv" x="174.582" y="524.087">AUTEUR</text>
<rect class="text-frame" x="36.85" y="267.85" width="141.732" height="230.725" />
<rect class="label-bg" x="140.582" y="484.57500000000005" width="38" height="14" />
<text class="z-index" x="136.582" y="494.57500000000005" text-anchor="end">z:414</text>
<text class="label label-inv" x="174.582" y="494.57500000000005">INTRO</text>
</g>
</svg>